%TF.GenerationSoftware,KiCad,Pcbnew,8.0.8*%
%TF.CreationDate,2025-02-25T14:17:27-08:00*%
%TF.ProjectId,Casa passthrough,43617361-2070-4617-9373-7468726f7567,rev?*%
%TF.SameCoordinates,Original*%
%TF.FileFunction,Soldermask,Top*%
%TF.FilePolarity,Negative*%
%FSLAX46Y46*%
G04 Gerber Fmt 4.6, Leading zero omitted, Abs format (unit mm)*
G04 Created by KiCad (PCBNEW 8.0.8) date 2025-02-25 14:17:27*
%MOMM*%
%LPD*%
G01*
G04 APERTURE LIST*
G04 Aperture macros list*
%AMRoundRect*
0 Rectangle with rounded corners*
0 $1 Rounding radius*
0 $2 $3 $4 $5 $6 $7 $8 $9 X,Y pos of 4 corners*
0 Add a 4 corners polygon primitive as box body*
4,1,4,$2,$3,$4,$5,$6,$7,$8,$9,$2,$3,0*
0 Add four circle primitives for the rounded corners*
1,1,$1+$1,$2,$3*
1,1,$1+$1,$4,$5*
1,1,$1+$1,$6,$7*
1,1,$1+$1,$8,$9*
0 Add four rect primitives between the rounded corners*
20,1,$1+$1,$2,$3,$4,$5,0*
20,1,$1+$1,$4,$5,$6,$7,0*
20,1,$1+$1,$6,$7,$8,$9,0*
20,1,$1+$1,$8,$9,$2,$3,0*%
G04 Aperture macros list end*
%ADD10RoundRect,0.250000X0.600000X0.725000X-0.600000X0.725000X-0.600000X-0.725000X0.600000X-0.725000X0*%
%ADD11O,1.700000X1.950000*%
%ADD12RoundRect,0.250000X-0.600000X-0.725000X0.600000X-0.725000X0.600000X0.725000X-0.600000X0.725000X0*%
%ADD13RoundRect,0.250000X-0.600000X-0.750000X0.600000X-0.750000X0.600000X0.750000X-0.600000X0.750000X0*%
%ADD14O,1.700000X2.000000*%
%ADD15RoundRect,0.250000X-0.725000X0.600000X-0.725000X-0.600000X0.725000X-0.600000X0.725000X0.600000X0*%
%ADD16O,1.950000X1.700000*%
%ADD17C,3.200000*%
%ADD18RoundRect,0.250000X0.600000X0.750000X-0.600000X0.750000X-0.600000X-0.750000X0.600000X-0.750000X0*%
G04 APERTURE END LIST*
D10*
%TO.C,X_Endstop_Min_IN1*%
X664845000Y-292735000D03*
D11*
X662345000Y-292735000D03*
X659845000Y-292735000D03*
%TD*%
D12*
%TO.C,Y_Endstop_Min_OUT1*%
X633890000Y-312656110D03*
D11*
X636390000Y-312656110D03*
X638890000Y-312656110D03*
%TD*%
D10*
%TO.C,Probe_IN1*%
X664845000Y-382380000D03*
D11*
X662345000Y-382380000D03*
X659845000Y-382380000D03*
%TD*%
D10*
%TO.C,Aux_Endstop_Min_IN1*%
X664845000Y-353198332D03*
D11*
X662345000Y-353198332D03*
X659845000Y-353198332D03*
%TD*%
D13*
%TO.C,Coolant_IN1*%
X633730000Y-393700000D03*
D14*
X636230000Y-393700000D03*
%TD*%
D10*
%TO.C,Z_Endstop_Max_IN1*%
X664845000Y-343121110D03*
D11*
X662345000Y-343121110D03*
X659845000Y-343121110D03*
%TD*%
D12*
%TO.C,Toolsetter_OUT1*%
X633890000Y-372419440D03*
D11*
X636390000Y-372419440D03*
X638890000Y-372419440D03*
%TD*%
D12*
%TO.C,Y_Endstop_Max_OUT1*%
X633890000Y-322616665D03*
D11*
X636390000Y-322616665D03*
X638890000Y-322616665D03*
%TD*%
D12*
%TO.C,Z_Endstop_Min_OUT1*%
X633890000Y-332577220D03*
D11*
X636390000Y-332577220D03*
X638890000Y-332577220D03*
%TD*%
D10*
%TO.C,Y_Endstop_Min_IN1*%
X664845000Y-312889444D03*
D11*
X662345000Y-312889444D03*
X659845000Y-312889444D03*
%TD*%
D10*
%TO.C,Aux_Endstop_Max_IN1*%
X664845000Y-363275554D03*
D11*
X662345000Y-363275554D03*
X659845000Y-363275554D03*
%TD*%
D15*
%TO.C,Estop_IN1*%
X665142500Y-403345000D03*
D16*
X665142500Y-405845000D03*
X665142500Y-408345000D03*
X665142500Y-410845000D03*
%TD*%
D15*
%TO.C,EStop_OUT1*%
X635000000Y-403385000D03*
D16*
X635000000Y-405885000D03*
X635000000Y-408385000D03*
X635000000Y-410885000D03*
%TD*%
D15*
%TO.C,Aux_Motor_OUT1*%
X664845000Y-276345000D03*
D16*
X664845000Y-278845000D03*
X664845000Y-281345000D03*
X664845000Y-283845000D03*
%TD*%
D12*
%TO.C,X_Endstop_Max_OUT1*%
X633890000Y-302695555D03*
D11*
X636390000Y-302695555D03*
X638890000Y-302695555D03*
%TD*%
D15*
%TO.C,X_Motor_IN1*%
X635000000Y-227965000D03*
D16*
X635000000Y-230465000D03*
X635000000Y-232965000D03*
X635000000Y-235465000D03*
%TD*%
D17*
%TO.C,REF\u002A\u002A*%
X649605000Y-222250000D03*
%TD*%
D12*
%TO.C,Probe_OUT1*%
X633890000Y-382380000D03*
D11*
X636390000Y-382380000D03*
X638890000Y-382380000D03*
%TD*%
D15*
%TO.C,Z_Motor_OUT1*%
X664845000Y-259715000D03*
D16*
X664845000Y-262215000D03*
X664845000Y-264715000D03*
X664845000Y-267215000D03*
%TD*%
D10*
%TO.C,Y_Endstop_Max_IN1*%
X664845000Y-322966666D03*
D11*
X662345000Y-322966666D03*
X659845000Y-322966666D03*
%TD*%
D18*
%TO.C,Coolant_OUT1*%
X665400000Y-394335000D03*
D14*
X662900000Y-394335000D03*
%TD*%
D10*
%TO.C,X_Endstop_Max_IN1*%
X664845000Y-302812222D03*
D11*
X662345000Y-302812222D03*
X659845000Y-302812222D03*
%TD*%
D10*
%TO.C,Toolsetter_IN1*%
X664885000Y-372745000D03*
D11*
X662385000Y-372745000D03*
X659885000Y-372745000D03*
%TD*%
D12*
%TO.C,Aux_Endstop_Max_OUT1*%
X633890000Y-362458885D03*
D11*
X636390000Y-362458885D03*
X638890000Y-362458885D03*
%TD*%
D15*
%TO.C,Z_Motor_IN1*%
X635000000Y-259715000D03*
D16*
X635000000Y-262215000D03*
X635000000Y-264715000D03*
X635000000Y-267215000D03*
%TD*%
D15*
%TO.C,X_Motor_OUT1*%
X664845000Y-227965000D03*
D16*
X664845000Y-230465000D03*
X664845000Y-232965000D03*
X664845000Y-235465000D03*
%TD*%
D12*
%TO.C,X_Endstop_Min_OUT1*%
X633890000Y-292735000D03*
D11*
X636390000Y-292735000D03*
X638890000Y-292735000D03*
%TD*%
D15*
%TO.C,Y_Motor_OUT1*%
X664845000Y-243920000D03*
D16*
X664845000Y-246420000D03*
X664845000Y-248920000D03*
X664845000Y-251420000D03*
%TD*%
D12*
%TO.C,Z_Endstop_Max_OUT1*%
X633890000Y-342537775D03*
D11*
X636390000Y-342537775D03*
X638890000Y-342537775D03*
%TD*%
D10*
%TO.C,Z_Endstop_Min_IN1*%
X664845000Y-333043888D03*
D11*
X662345000Y-333043888D03*
X659845000Y-333043888D03*
%TD*%
D17*
%TO.C,REF\u002A\u002A*%
X649287500Y-417830000D03*
%TD*%
D15*
%TO.C,Y_Motor_IN1*%
X635000000Y-243920000D03*
D16*
X635000000Y-246420000D03*
X635000000Y-248920000D03*
X635000000Y-251420000D03*
%TD*%
D12*
%TO.C,Aux_Endstop_Min_OUT1*%
X633890000Y-352498330D03*
D11*
X636390000Y-352498330D03*
X638890000Y-352498330D03*
%TD*%
D15*
%TO.C,Aux_Motor_IN1*%
X635000000Y-276345000D03*
D16*
X635000000Y-278845000D03*
X635000000Y-281345000D03*
X635000000Y-283845000D03*
%TD*%
M02*
