%TF.GenerationSoftware,KiCad,Pcbnew,8.0.8*%
%TF.CreationDate,2025-02-25T14:17:27-08:00*%
%TF.ProjectId,Casa passthrough,43617361-2070-4617-9373-7468726f7567,rev?*%
%TF.SameCoordinates,Original*%
%TF.FileFunction,Copper,L1,Top*%
%TF.FilePolarity,Positive*%
%FSLAX46Y46*%
G04 Gerber Fmt 4.6, Leading zero omitted, Abs format (unit mm)*
G04 Created by KiCad (PCBNEW 8.0.8) date 2025-02-25 14:17:27*
%MOMM*%
%LPD*%
G01*
G04 APERTURE LIST*
G04 Aperture macros list*
%AMRoundRect*
0 Rectangle with rounded corners*
0 $1 Rounding radius*
0 $2 $3 $4 $5 $6 $7 $8 $9 X,Y pos of 4 corners*
0 Add a 4 corners polygon primitive as box body*
4,1,4,$2,$3,$4,$5,$6,$7,$8,$9,$2,$3,0*
0 Add four circle primitives for the rounded corners*
1,1,$1+$1,$2,$3*
1,1,$1+$1,$4,$5*
1,1,$1+$1,$6,$7*
1,1,$1+$1,$8,$9*
0 Add four rect primitives between the rounded corners*
20,1,$1+$1,$2,$3,$4,$5,0*
20,1,$1+$1,$4,$5,$6,$7,0*
20,1,$1+$1,$6,$7,$8,$9,0*
20,1,$1+$1,$8,$9,$2,$3,0*%
G04 Aperture macros list end*
%TA.AperFunction,ComponentPad*%
%ADD10RoundRect,0.250000X0.600000X0.725000X-0.600000X0.725000X-0.600000X-0.725000X0.600000X-0.725000X0*%
%TD*%
%TA.AperFunction,ComponentPad*%
%ADD11O,1.700000X1.950000*%
%TD*%
%TA.AperFunction,ComponentPad*%
%ADD12RoundRect,0.250000X-0.600000X-0.725000X0.600000X-0.725000X0.600000X0.725000X-0.600000X0.725000X0*%
%TD*%
%TA.AperFunction,ComponentPad*%
%ADD13RoundRect,0.250000X-0.600000X-0.750000X0.600000X-0.750000X0.600000X0.750000X-0.600000X0.750000X0*%
%TD*%
%TA.AperFunction,ComponentPad*%
%ADD14O,1.700000X2.000000*%
%TD*%
%TA.AperFunction,ComponentPad*%
%ADD15RoundRect,0.250000X-0.725000X0.600000X-0.725000X-0.600000X0.725000X-0.600000X0.725000X0.600000X0*%
%TD*%
%TA.AperFunction,ComponentPad*%
%ADD16O,1.950000X1.700000*%
%TD*%
%TA.AperFunction,ComponentPad*%
%ADD17RoundRect,0.250000X0.600000X0.750000X-0.600000X0.750000X-0.600000X-0.750000X0.600000X-0.750000X0*%
%TD*%
%TA.AperFunction,Conductor*%
%ADD18C,0.750000*%
%TD*%
%TA.AperFunction,Conductor*%
%ADD19C,1.500000*%
%TD*%
G04 APERTURE END LIST*
D10*
%TO.P,X_Endstop_Min_IN1,1,Pin_1*%
%TO.N,Net-(X_Endstop_Min_IN1-Pin_1)*%
X664845000Y-292735000D03*
D11*
%TO.P,X_Endstop_Min_IN1,2,Pin_2*%
%TO.N,Net-(X_Endstop_Min_IN1-Pin_2)*%
X662345000Y-292735000D03*
%TO.P,X_Endstop_Min_IN1,3,Pin_3*%
%TO.N,Net-(X_Endstop_Min_IN1-Pin_3)*%
X659845000Y-292735000D03*
%TD*%
D12*
%TO.P,Y_Endstop_Min_OUT1,1,Pin_1*%
%TO.N,Net-(Y_Endstop_Min_IN1-Pin_1)*%
X633890000Y-312656110D03*
D11*
%TO.P,Y_Endstop_Min_OUT1,2,Pin_2*%
%TO.N,Net-(Y_Endstop_Min_IN1-Pin_2)*%
X636390000Y-312656110D03*
%TO.P,Y_Endstop_Min_OUT1,3,Pin_3*%
%TO.N,Net-(Y_Endstop_Min_IN1-Pin_3)*%
X638890000Y-312656110D03*
%TD*%
D10*
%TO.P,Probe_IN1,1,Pin_1*%
%TO.N,Net-(Probe_IN1-Pin_1)*%
X664845000Y-382380000D03*
D11*
%TO.P,Probe_IN1,2,Pin_2*%
%TO.N,Net-(Probe_IN1-Pin_2)*%
X662345000Y-382380000D03*
%TO.P,Probe_IN1,3,Pin_3*%
%TO.N,Net-(Probe_IN1-Pin_3)*%
X659845000Y-382380000D03*
%TD*%
D10*
%TO.P,Aux_Endstop_Min_IN1,1,Pin_1*%
%TO.N,Net-(Aux_Endstop_Min_IN1-Pin_1)*%
X664845000Y-353198332D03*
D11*
%TO.P,Aux_Endstop_Min_IN1,2,Pin_2*%
%TO.N,Net-(Aux_Endstop_Min_IN1-Pin_2)*%
X662345000Y-353198332D03*
%TO.P,Aux_Endstop_Min_IN1,3,Pin_3*%
%TO.N,Net-(Aux_Endstop_Min_IN1-Pin_3)*%
X659845000Y-353198332D03*
%TD*%
D13*
%TO.P,Coolant_IN1,1,Pin_1*%
%TO.N,Net-(Coolant_IN1-Pin_1)*%
X633730000Y-393700000D03*
D14*
%TO.P,Coolant_IN1,2,Pin_2*%
%TO.N,Net-(Coolant_IN1-Pin_2)*%
X636230000Y-393700000D03*
%TD*%
D10*
%TO.P,Z_Endstop_Max_IN1,1,Pin_1*%
%TO.N,Net-(Z_Endstop_Max_IN1-Pin_1)*%
X664845000Y-343121110D03*
D11*
%TO.P,Z_Endstop_Max_IN1,2,Pin_2*%
%TO.N,Net-(Z_Endstop_Max_IN1-Pin_2)*%
X662345000Y-343121110D03*
%TO.P,Z_Endstop_Max_IN1,3,Pin_3*%
%TO.N,Net-(Z_Endstop_Max_IN1-Pin_3)*%
X659845000Y-343121110D03*
%TD*%
D12*
%TO.P,Toolsetter_OUT1,1,Pin_1*%
%TO.N,Net-(Toolsetter_IN1-Pin_1)*%
X633890000Y-372419440D03*
D11*
%TO.P,Toolsetter_OUT1,2,Pin_2*%
%TO.N,Net-(Toolsetter_IN1-Pin_2)*%
X636390000Y-372419440D03*
%TO.P,Toolsetter_OUT1,3,Pin_3*%
%TO.N,Net-(Toolsetter_IN1-Pin_3)*%
X638890000Y-372419440D03*
%TD*%
D12*
%TO.P,Y_Endstop_Max_OUT1,1,Pin_1*%
%TO.N,Net-(Y_Endstop_Max_IN1-Pin_1)*%
X633890000Y-322616665D03*
D11*
%TO.P,Y_Endstop_Max_OUT1,2,Pin_2*%
%TO.N,Net-(Y_Endstop_Max_IN1-Pin_2)*%
X636390000Y-322616665D03*
%TO.P,Y_Endstop_Max_OUT1,3,Pin_3*%
%TO.N,Net-(Y_Endstop_Max_IN1-Pin_3)*%
X638890000Y-322616665D03*
%TD*%
D12*
%TO.P,Z_Endstop_Min_OUT1,1,Pin_1*%
%TO.N,Net-(Z_Endstop_Min_IN1-Pin_1)*%
X633890000Y-332577220D03*
D11*
%TO.P,Z_Endstop_Min_OUT1,2,Pin_2*%
%TO.N,Net-(Z_Endstop_Min_IN1-Pin_2)*%
X636390000Y-332577220D03*
%TO.P,Z_Endstop_Min_OUT1,3,Pin_3*%
%TO.N,Net-(Z_Endstop_Min_IN1-Pin_3)*%
X638890000Y-332577220D03*
%TD*%
D10*
%TO.P,Y_Endstop_Min_IN1,1,Pin_1*%
%TO.N,Net-(Y_Endstop_Min_IN1-Pin_1)*%
X664845000Y-312889444D03*
D11*
%TO.P,Y_Endstop_Min_IN1,2,Pin_2*%
%TO.N,Net-(Y_Endstop_Min_IN1-Pin_2)*%
X662345000Y-312889444D03*
%TO.P,Y_Endstop_Min_IN1,3,Pin_3*%
%TO.N,Net-(Y_Endstop_Min_IN1-Pin_3)*%
X659845000Y-312889444D03*
%TD*%
D10*
%TO.P,Aux_Endstop_Max_IN1,1,Pin_1*%
%TO.N,Net-(Aux_Endstop_Max_IN1-Pin_1)*%
X664845000Y-363275554D03*
D11*
%TO.P,Aux_Endstop_Max_IN1,2,Pin_2*%
%TO.N,Net-(Aux_Endstop_Max_IN1-Pin_2)*%
X662345000Y-363275554D03*
%TO.P,Aux_Endstop_Max_IN1,3,Pin_3*%
%TO.N,Net-(Aux_Endstop_Max_IN1-Pin_3)*%
X659845000Y-363275554D03*
%TD*%
D15*
%TO.P,Estop_IN1,1,Pin_1*%
%TO.N,Net-(EStop_OUT1-Pin_1)*%
X665142500Y-403345000D03*
D16*
%TO.P,Estop_IN1,2,Pin_2*%
%TO.N,Net-(EStop_OUT1-Pin_2)*%
X665142500Y-405845000D03*
%TO.P,Estop_IN1,3,Pin_3*%
%TO.N,Net-(EStop_OUT1-Pin_3)*%
X665142500Y-408345000D03*
%TO.P,Estop_IN1,4,Pin_4*%
%TO.N,Net-(EStop_OUT1-Pin_4)*%
X665142500Y-410845000D03*
%TD*%
D15*
%TO.P,EStop_OUT1,1,Pin_1*%
%TO.N,Net-(EStop_OUT1-Pin_1)*%
X635000000Y-403385000D03*
D16*
%TO.P,EStop_OUT1,2,Pin_2*%
%TO.N,Net-(EStop_OUT1-Pin_2)*%
X635000000Y-405885000D03*
%TO.P,EStop_OUT1,3,Pin_3*%
%TO.N,Net-(EStop_OUT1-Pin_3)*%
X635000000Y-408385000D03*
%TO.P,EStop_OUT1,4,Pin_4*%
%TO.N,Net-(EStop_OUT1-Pin_4)*%
X635000000Y-410885000D03*
%TD*%
D15*
%TO.P,Aux_Motor_OUT1,1,Pin_1*%
%TO.N,Net-(Aux_Motor_IN1-Pin_1)*%
X664845000Y-276345000D03*
D16*
%TO.P,Aux_Motor_OUT1,2,Pin_2*%
%TO.N,Net-(Aux_Motor_IN1-Pin_2)*%
X664845000Y-278845000D03*
%TO.P,Aux_Motor_OUT1,3,Pin_3*%
%TO.N,Net-(Aux_Motor_IN1-Pin_3)*%
X664845000Y-281345000D03*
%TO.P,Aux_Motor_OUT1,4,Pin_4*%
%TO.N,Net-(Aux_Motor_IN1-Pin_4)*%
X664845000Y-283845000D03*
%TD*%
D12*
%TO.P,X_Endstop_Max_OUT1,1,Pin_1*%
%TO.N,Net-(X_Endstop_Max_IN1-Pin_1)*%
X633890000Y-302695555D03*
D11*
%TO.P,X_Endstop_Max_OUT1,2,Pin_2*%
%TO.N,Net-(X_Endstop_Max_IN1-Pin_2)*%
X636390000Y-302695555D03*
%TO.P,X_Endstop_Max_OUT1,3,Pin_3*%
%TO.N,Net-(X_Endstop_Max_IN1-Pin_3)*%
X638890000Y-302695555D03*
%TD*%
D15*
%TO.P,X_Motor_IN1,1,Pin_1*%
%TO.N,Net-(X_Motor_IN1-Pin_1)*%
X635000000Y-227965000D03*
D16*
%TO.P,X_Motor_IN1,2,Pin_2*%
%TO.N,Net-(X_Motor_IN1-Pin_2)*%
X635000000Y-230465000D03*
%TO.P,X_Motor_IN1,3,Pin_3*%
%TO.N,Net-(X_Motor_IN1-Pin_3)*%
X635000000Y-232965000D03*
%TO.P,X_Motor_IN1,4,Pin_4*%
%TO.N,Net-(X_Motor_IN1-Pin_4)*%
X635000000Y-235465000D03*
%TD*%
D12*
%TO.P,Probe_OUT1,1,Pin_1*%
%TO.N,Net-(Probe_IN1-Pin_1)*%
X633890000Y-382380000D03*
D11*
%TO.P,Probe_OUT1,2,Pin_2*%
%TO.N,Net-(Probe_IN1-Pin_2)*%
X636390000Y-382380000D03*
%TO.P,Probe_OUT1,3,Pin_3*%
%TO.N,Net-(Probe_IN1-Pin_3)*%
X638890000Y-382380000D03*
%TD*%
D15*
%TO.P,Z_Motor_OUT1,1,Pin_1*%
%TO.N,Net-(Z_Motor_IN1-Pin_1)*%
X664845000Y-259715000D03*
D16*
%TO.P,Z_Motor_OUT1,2,Pin_2*%
%TO.N,Net-(Z_Motor_IN1-Pin_2)*%
X664845000Y-262215000D03*
%TO.P,Z_Motor_OUT1,3,Pin_3*%
%TO.N,Net-(Z_Motor_IN1-Pin_3)*%
X664845000Y-264715000D03*
%TO.P,Z_Motor_OUT1,4,Pin_4*%
%TO.N,Net-(Z_Motor_IN1-Pin_4)*%
X664845000Y-267215000D03*
%TD*%
D10*
%TO.P,Y_Endstop_Max_IN1,1,Pin_1*%
%TO.N,Net-(Y_Endstop_Max_IN1-Pin_1)*%
X664845000Y-322966666D03*
D11*
%TO.P,Y_Endstop_Max_IN1,2,Pin_2*%
%TO.N,Net-(Y_Endstop_Max_IN1-Pin_2)*%
X662345000Y-322966666D03*
%TO.P,Y_Endstop_Max_IN1,3,Pin_3*%
%TO.N,Net-(Y_Endstop_Max_IN1-Pin_3)*%
X659845000Y-322966666D03*
%TD*%
D17*
%TO.P,Coolant_OUT1,1,Pin_1*%
%TO.N,Net-(Coolant_IN1-Pin_1)*%
X665400000Y-394335000D03*
D14*
%TO.P,Coolant_OUT1,2,Pin_2*%
%TO.N,Net-(Coolant_IN1-Pin_2)*%
X662900000Y-394335000D03*
%TD*%
D10*
%TO.P,X_Endstop_Max_IN1,1,Pin_1*%
%TO.N,Net-(X_Endstop_Max_IN1-Pin_1)*%
X664845000Y-302812222D03*
D11*
%TO.P,X_Endstop_Max_IN1,2,Pin_2*%
%TO.N,Net-(X_Endstop_Max_IN1-Pin_2)*%
X662345000Y-302812222D03*
%TO.P,X_Endstop_Max_IN1,3,Pin_3*%
%TO.N,Net-(X_Endstop_Max_IN1-Pin_3)*%
X659845000Y-302812222D03*
%TD*%
D10*
%TO.P,Toolsetter_IN1,1,Pin_1*%
%TO.N,Net-(Toolsetter_IN1-Pin_1)*%
X664885000Y-372745000D03*
D11*
%TO.P,Toolsetter_IN1,2,Pin_2*%
%TO.N,Net-(Toolsetter_IN1-Pin_2)*%
X662385000Y-372745000D03*
%TO.P,Toolsetter_IN1,3,Pin_3*%
%TO.N,Net-(Toolsetter_IN1-Pin_3)*%
X659885000Y-372745000D03*
%TD*%
D12*
%TO.P,Aux_Endstop_Max_OUT1,1,Pin_1*%
%TO.N,Net-(Aux_Endstop_Max_IN1-Pin_1)*%
X633890000Y-362458885D03*
D11*
%TO.P,Aux_Endstop_Max_OUT1,2,Pin_2*%
%TO.N,Net-(Aux_Endstop_Max_IN1-Pin_2)*%
X636390000Y-362458885D03*
%TO.P,Aux_Endstop_Max_OUT1,3,Pin_3*%
%TO.N,Net-(Aux_Endstop_Max_IN1-Pin_3)*%
X638890000Y-362458885D03*
%TD*%
D15*
%TO.P,Z_Motor_IN1,1,Pin_1*%
%TO.N,Net-(Z_Motor_IN1-Pin_1)*%
X635000000Y-259715000D03*
D16*
%TO.P,Z_Motor_IN1,2,Pin_2*%
%TO.N,Net-(Z_Motor_IN1-Pin_2)*%
X635000000Y-262215000D03*
%TO.P,Z_Motor_IN1,3,Pin_3*%
%TO.N,Net-(Z_Motor_IN1-Pin_3)*%
X635000000Y-264715000D03*
%TO.P,Z_Motor_IN1,4,Pin_4*%
%TO.N,Net-(Z_Motor_IN1-Pin_4)*%
X635000000Y-267215000D03*
%TD*%
D15*
%TO.P,X_Motor_OUT1,1,Pin_1*%
%TO.N,Net-(X_Motor_IN1-Pin_1)*%
X664845000Y-227965000D03*
D16*
%TO.P,X_Motor_OUT1,2,Pin_2*%
%TO.N,Net-(X_Motor_IN1-Pin_2)*%
X664845000Y-230465000D03*
%TO.P,X_Motor_OUT1,3,Pin_3*%
%TO.N,Net-(X_Motor_IN1-Pin_3)*%
X664845000Y-232965000D03*
%TO.P,X_Motor_OUT1,4,Pin_4*%
%TO.N,Net-(X_Motor_IN1-Pin_4)*%
X664845000Y-235465000D03*
%TD*%
D12*
%TO.P,X_Endstop_Min_OUT1,1,Pin_1*%
%TO.N,Net-(X_Endstop_Min_IN1-Pin_1)*%
X633890000Y-292735000D03*
D11*
%TO.P,X_Endstop_Min_OUT1,2,Pin_2*%
%TO.N,Net-(X_Endstop_Min_IN1-Pin_2)*%
X636390000Y-292735000D03*
%TO.P,X_Endstop_Min_OUT1,3,Pin_3*%
%TO.N,Net-(X_Endstop_Min_IN1-Pin_3)*%
X638890000Y-292735000D03*
%TD*%
D15*
%TO.P,Y_Motor_OUT1,1,Pin_1*%
%TO.N,Net-(Y_Motor_IN1-Pin_1)*%
X664845000Y-243920000D03*
D16*
%TO.P,Y_Motor_OUT1,2,Pin_2*%
%TO.N,Net-(Y_Motor_IN1-Pin_2)*%
X664845000Y-246420000D03*
%TO.P,Y_Motor_OUT1,3,Pin_3*%
%TO.N,Net-(Y_Motor_IN1-Pin_3)*%
X664845000Y-248920000D03*
%TO.P,Y_Motor_OUT1,4,Pin_4*%
%TO.N,Net-(Y_Motor_IN1-Pin_4)*%
X664845000Y-251420000D03*
%TD*%
D12*
%TO.P,Z_Endstop_Max_OUT1,1,Pin_1*%
%TO.N,Net-(Z_Endstop_Max_IN1-Pin_1)*%
X633890000Y-342537775D03*
D11*
%TO.P,Z_Endstop_Max_OUT1,2,Pin_2*%
%TO.N,Net-(Z_Endstop_Max_IN1-Pin_2)*%
X636390000Y-342537775D03*
%TO.P,Z_Endstop_Max_OUT1,3,Pin_3*%
%TO.N,Net-(Z_Endstop_Max_IN1-Pin_3)*%
X638890000Y-342537775D03*
%TD*%
D10*
%TO.P,Z_Endstop_Min_IN1,1,Pin_1*%
%TO.N,Net-(Z_Endstop_Min_IN1-Pin_1)*%
X664845000Y-333043888D03*
D11*
%TO.P,Z_Endstop_Min_IN1,2,Pin_2*%
%TO.N,Net-(Z_Endstop_Min_IN1-Pin_2)*%
X662345000Y-333043888D03*
%TO.P,Z_Endstop_Min_IN1,3,Pin_3*%
%TO.N,Net-(Z_Endstop_Min_IN1-Pin_3)*%
X659845000Y-333043888D03*
%TD*%
D15*
%TO.P,Y_Motor_IN1,1,Pin_1*%
%TO.N,Net-(Y_Motor_IN1-Pin_1)*%
X635000000Y-243920000D03*
D16*
%TO.P,Y_Motor_IN1,2,Pin_2*%
%TO.N,Net-(Y_Motor_IN1-Pin_2)*%
X635000000Y-246420000D03*
%TO.P,Y_Motor_IN1,3,Pin_3*%
%TO.N,Net-(Y_Motor_IN1-Pin_3)*%
X635000000Y-248920000D03*
%TO.P,Y_Motor_IN1,4,Pin_4*%
%TO.N,Net-(Y_Motor_IN1-Pin_4)*%
X635000000Y-251420000D03*
%TD*%
D12*
%TO.P,Aux_Endstop_Min_OUT1,1,Pin_1*%
%TO.N,Net-(Aux_Endstop_Min_IN1-Pin_1)*%
X633890000Y-352498330D03*
D11*
%TO.P,Aux_Endstop_Min_OUT1,2,Pin_2*%
%TO.N,Net-(Aux_Endstop_Min_IN1-Pin_2)*%
X636390000Y-352498330D03*
%TO.P,Aux_Endstop_Min_OUT1,3,Pin_3*%
%TO.N,Net-(Aux_Endstop_Min_IN1-Pin_3)*%
X638890000Y-352498330D03*
%TD*%
D15*
%TO.P,Aux_Motor_IN1,1,Pin_1*%
%TO.N,Net-(Aux_Motor_IN1-Pin_1)*%
X635000000Y-276345000D03*
D16*
%TO.P,Aux_Motor_IN1,2,Pin_2*%
%TO.N,Net-(Aux_Motor_IN1-Pin_2)*%
X635000000Y-278845000D03*
%TO.P,Aux_Motor_IN1,3,Pin_3*%
%TO.N,Net-(Aux_Motor_IN1-Pin_3)*%
X635000000Y-281345000D03*
%TO.P,Aux_Motor_IN1,4,Pin_4*%
%TO.N,Net-(Aux_Motor_IN1-Pin_4)*%
X635000000Y-283845000D03*
%TD*%
D18*
%TO.N,Net-(Probe_IN1-Pin_1)*%
X633890000Y-384335000D02*
X635000000Y-385445000D01*
X633890000Y-382380000D02*
X633890000Y-384335000D01*
X664885000Y-384175000D02*
X664845000Y-384135000D01*
X663615000Y-385445000D02*
X664885000Y-384175000D01*
X664845000Y-384135000D02*
X664845000Y-382380000D01*
X635000000Y-385445000D02*
X663615000Y-385445000D01*
%TO.N,Net-(Probe_IN1-Pin_3)*%
X638890000Y-382380000D02*
X659845000Y-382380000D01*
%TO.N,Net-(Probe_IN1-Pin_2)*%
X636390000Y-382380000D02*
X636390000Y-380880000D01*
X636390000Y-380880000D02*
X636905000Y-380365000D01*
X661075000Y-380365000D02*
X662345000Y-381635000D01*
X662345000Y-381635000D02*
X662345000Y-382380000D01*
X636905000Y-380365000D02*
X661075000Y-380365000D01*
%TO.N,Net-(Toolsetter_IN1-Pin_1)*%
X633890000Y-372419440D02*
X633890000Y-373540000D01*
X663615000Y-375285000D02*
X664885000Y-374015000D01*
X635635000Y-375285000D02*
X663615000Y-375285000D01*
X633890000Y-373540000D02*
X635635000Y-375285000D01*
X664885000Y-374015000D02*
X664885000Y-372745000D01*
%TO.N,Net-(Toolsetter_IN1-Pin_3)*%
X639215560Y-372745000D02*
X638890000Y-372419440D01*
X659885000Y-372745000D02*
X639215560Y-372745000D01*
%TO.N,Net-(Toolsetter_IN1-Pin_2)*%
X636390000Y-371990000D02*
X638175000Y-370205000D01*
X662385000Y-371515000D02*
X662385000Y-372745000D01*
X638175000Y-370205000D02*
X661075000Y-370205000D01*
X661075000Y-370205000D02*
X662385000Y-371515000D01*
X636390000Y-372419440D02*
X636390000Y-371990000D01*
%TO.N,Net-(Aux_Endstop_Max_IN1-Pin_3)*%
X638890000Y-362458885D02*
X659028331Y-362458885D01*
X659028331Y-362458885D02*
X659845000Y-363275554D01*
%TO.N,Net-(Aux_Endstop_Max_IN1-Pin_1)*%
X664845000Y-364530000D02*
X664845000Y-363275554D01*
X633890000Y-362458885D02*
X633890000Y-364015000D01*
X635635000Y-365760000D02*
X663615000Y-365760000D01*
X663615000Y-365760000D02*
X664845000Y-364530000D01*
X633890000Y-364015000D02*
X635635000Y-365760000D01*
%TO.N,Net-(Aux_Endstop_Max_IN1-Pin_2)*%
X637540000Y-360045000D02*
X661075000Y-360045000D01*
X636390000Y-361195000D02*
X637540000Y-360045000D01*
X662345000Y-361315000D02*
X662345000Y-363275554D01*
X661075000Y-360045000D02*
X662345000Y-361315000D01*
X636390000Y-362458885D02*
X636390000Y-361195000D01*
D19*
%TO.N,Net-(X_Motor_IN1-Pin_1)*%
X635000000Y-227965000D02*
X664845000Y-227965000D01*
%TO.N,Net-(X_Motor_IN1-Pin_4)*%
X664845000Y-235465000D02*
X635000000Y-235465000D01*
%TO.N,Net-(X_Motor_IN1-Pin_3)*%
X635000000Y-232965000D02*
X664845000Y-232965000D01*
%TO.N,Net-(X_Motor_IN1-Pin_2)*%
X664845000Y-230465000D02*
X635000000Y-230465000D01*
D18*
%TO.N,Net-(Aux_Endstop_Min_IN1-Pin_2)*%
X662345000Y-351830000D02*
X662345000Y-353198332D01*
X636390000Y-351035000D02*
X636905000Y-350520000D01*
X636390000Y-352498330D02*
X636390000Y-351035000D01*
X636905000Y-350520000D02*
X661035000Y-350520000D01*
X661035000Y-350520000D02*
X662345000Y-351830000D01*
%TO.N,Net-(Aux_Endstop_Min_IN1-Pin_1)*%
X633890000Y-353855000D02*
X635635000Y-355600000D01*
X664845000Y-353735000D02*
X664845000Y-353198332D01*
X662980000Y-355600000D02*
X664845000Y-353735000D01*
X635635000Y-355600000D02*
X662980000Y-355600000D01*
X633890000Y-352498330D02*
X633890000Y-353855000D01*
%TO.N,Net-(Aux_Endstop_Min_IN1-Pin_3)*%
X659144998Y-352498330D02*
X659845000Y-353198332D01*
X638890000Y-352498330D02*
X659144998Y-352498330D01*
D19*
%TO.N,Net-(Y_Motor_IN1-Pin_1)*%
X635000000Y-243920000D02*
X664845000Y-243920000D01*
%TO.N,Net-(Y_Motor_IN1-Pin_4)*%
X664845000Y-251420000D02*
X635000000Y-251420000D01*
%TO.N,Net-(Y_Motor_IN1-Pin_3)*%
X635000000Y-248920000D02*
X664845000Y-248920000D01*
%TO.N,Net-(Y_Motor_IN1-Pin_2)*%
X664845000Y-246420000D02*
X635000000Y-246420000D01*
D18*
%TO.N,Net-(X_Endstop_Max_IN1-Pin_2)*%
X662345000Y-301625000D02*
X662345000Y-302812222D01*
X636390000Y-302695555D02*
X636390000Y-301505000D01*
X661075000Y-300355000D02*
X662345000Y-301625000D01*
X636390000Y-301505000D02*
X637540000Y-300355000D01*
X637540000Y-300355000D02*
X661075000Y-300355000D01*
%TO.N,Net-(X_Endstop_Max_IN1-Pin_3)*%
X639006667Y-302812222D02*
X638890000Y-302695555D01*
X659845000Y-302812222D02*
X639006667Y-302812222D01*
%TO.N,Net-(X_Endstop_Max_IN1-Pin_1)*%
X663615000Y-305435000D02*
X664845000Y-304205000D01*
X664845000Y-304205000D02*
X664845000Y-302812222D01*
X633890000Y-302695555D02*
X633890000Y-303690000D01*
X635635000Y-305435000D02*
X663615000Y-305435000D01*
X633890000Y-303690000D02*
X635635000Y-305435000D01*
D19*
%TO.N,Net-(Z_Motor_IN1-Pin_1)*%
X635000000Y-259715000D02*
X664845000Y-259715000D01*
%TO.N,Net-(Z_Motor_IN1-Pin_3)*%
X635000000Y-264715000D02*
X664845000Y-264715000D01*
%TO.N,Net-(Z_Motor_IN1-Pin_2)*%
X664845000Y-262215000D02*
X635000000Y-262215000D01*
%TO.N,Net-(Z_Motor_IN1-Pin_4)*%
X664845000Y-267215000D02*
X635000000Y-267215000D01*
D18*
%TO.N,Net-(X_Endstop_Min_IN1-Pin_3)*%
X638890000Y-292735000D02*
X659845000Y-292735000D01*
%TO.N,Net-(X_Endstop_Min_IN1-Pin_1)*%
X633890000Y-293530000D02*
X635635000Y-295275000D01*
X664845000Y-294045000D02*
X664845000Y-292735000D01*
X633890000Y-292735000D02*
X633890000Y-293530000D01*
X663615000Y-295275000D02*
X664845000Y-294045000D01*
X635635000Y-295275000D02*
X663615000Y-295275000D01*
%TO.N,Net-(X_Endstop_Min_IN1-Pin_2)*%
X661075000Y-290830000D02*
X662345000Y-292100000D01*
X636390000Y-291980000D02*
X637540000Y-290830000D01*
X636390000Y-292735000D02*
X636390000Y-291980000D01*
X662345000Y-292100000D02*
X662345000Y-292735000D01*
X637540000Y-290830000D02*
X661075000Y-290830000D01*
D19*
%TO.N,Net-(Aux_Motor_IN1-Pin_3)*%
X635000000Y-281345000D02*
X664845000Y-281345000D01*
%TO.N,Net-(Aux_Motor_IN1-Pin_4)*%
X664845000Y-283845000D02*
X635000000Y-283845000D01*
%TO.N,Net-(Aux_Motor_IN1-Pin_2)*%
X664845000Y-278845000D02*
X635000000Y-278845000D01*
%TO.N,Net-(Aux_Motor_IN1-Pin_1)*%
X635000000Y-276345000D02*
X664845000Y-276345000D01*
D18*
%TO.N,Net-(EStop_OUT1-Pin_1)*%
X665142500Y-403345000D02*
X635337500Y-403345000D01*
X635040000Y-403345000D02*
X635000000Y-403385000D01*
%TO.N,Net-(EStop_OUT1-Pin_2)*%
X665102500Y-405885000D02*
X665142500Y-405845000D01*
X635297500Y-405885000D02*
X665102500Y-405885000D01*
%TO.N,Net-(EStop_OUT1-Pin_4)*%
X635297500Y-410885000D02*
X665102500Y-410885000D01*
X665102500Y-410885000D02*
X665142500Y-410845000D01*
%TO.N,Net-(EStop_OUT1-Pin_3)*%
X665142500Y-408345000D02*
X635337500Y-408345000D01*
X635040000Y-408345000D02*
X635000000Y-408385000D01*
%TO.N,Net-(Y_Endstop_Max_IN1-Pin_1)*%
X662980000Y-325755000D02*
X664845000Y-323890000D01*
X633890000Y-322616665D02*
X633890000Y-324010000D01*
X633890000Y-324010000D02*
X635635000Y-325755000D01*
X635635000Y-325755000D02*
X662980000Y-325755000D01*
X664845000Y-323890000D02*
X664845000Y-322966666D01*
%TO.N,Net-(Y_Endstop_Max_IN1-Pin_2)*%
X636390000Y-321825000D02*
X637540000Y-320675000D01*
X637540000Y-320675000D02*
X661710000Y-320675000D01*
X661710000Y-320675000D02*
X662345000Y-321310000D01*
X662345000Y-321310000D02*
X662345000Y-322966666D01*
X636390000Y-322616665D02*
X636390000Y-321825000D01*
%TO.N,Net-(Y_Endstop_Max_IN1-Pin_3)*%
X639240001Y-322966666D02*
X638890000Y-322616665D01*
X659845000Y-322966666D02*
X639240001Y-322966666D01*
%TO.N,Net-(Y_Endstop_Min_IN1-Pin_3)*%
X659611666Y-312656110D02*
X659845000Y-312889444D01*
X638890000Y-312656110D02*
X659611666Y-312656110D01*
%TO.N,Net-(Y_Endstop_Min_IN1-Pin_1)*%
X664845000Y-313730000D02*
X664845000Y-312889444D01*
X663615000Y-314960000D02*
X664845000Y-313730000D01*
X635000000Y-314960000D02*
X663615000Y-314960000D01*
X633890000Y-313850000D02*
X635000000Y-314960000D01*
X633890000Y-312656110D02*
X633890000Y-313850000D01*
%TO.N,Net-(Y_Endstop_Min_IN1-Pin_2)*%
X636390000Y-311030000D02*
X636905000Y-310515000D01*
X662345000Y-311785000D02*
X662345000Y-312889444D01*
X661075000Y-310515000D02*
X662345000Y-311785000D01*
X636905000Y-310515000D02*
X661075000Y-310515000D01*
X636390000Y-312656110D02*
X636390000Y-311030000D01*
%TO.N,Net-(Z_Endstop_Max_IN1-Pin_3)*%
X659845000Y-343121110D02*
X639473335Y-343121110D01*
X639473335Y-343121110D02*
X638890000Y-342537775D01*
%TO.N,Net-(Z_Endstop_Max_IN1-Pin_1)*%
X635635000Y-345440000D02*
X662980000Y-345440000D01*
X664845000Y-343575000D02*
X664845000Y-343121110D01*
X633890000Y-342537775D02*
X633890000Y-343695000D01*
X633890000Y-343695000D02*
X635635000Y-345440000D01*
X662980000Y-345440000D02*
X664845000Y-343575000D01*
%TO.N,Net-(Z_Endstop_Max_IN1-Pin_2)*%
X638175000Y-340360000D02*
X661075000Y-340360000D01*
X661075000Y-340360000D02*
X662345000Y-341630000D01*
X662345000Y-341630000D02*
X662345000Y-343121110D01*
X636390000Y-342537775D02*
X636390000Y-342145000D01*
X636390000Y-342145000D02*
X638175000Y-340360000D01*
%TO.N,Net-(Z_Endstop_Min_IN1-Pin_1)*%
X633890000Y-332577220D02*
X633890000Y-333535000D01*
X664845000Y-333415000D02*
X664845000Y-333043888D01*
X662980000Y-335280000D02*
X664845000Y-333415000D01*
X635635000Y-335280000D02*
X662980000Y-335280000D01*
X633890000Y-333535000D02*
X635635000Y-335280000D01*
%TO.N,Net-(Z_Endstop_Min_IN1-Pin_3)*%
X638890000Y-332577220D02*
X659378332Y-332577220D01*
X659378332Y-332577220D02*
X659845000Y-333043888D01*
%TO.N,Net-(Z_Endstop_Min_IN1-Pin_2)*%
X636390000Y-332577220D02*
X636390000Y-331350000D01*
X636390000Y-331350000D02*
X637540000Y-330200000D01*
X637540000Y-330200000D02*
X661075000Y-330200000D01*
X661075000Y-330200000D02*
X662345000Y-331470000D01*
X662345000Y-331470000D02*
X662345000Y-333043888D01*
%TO.N,Net-(Coolant_IN1-Pin_2)*%
X638135000Y-391795000D02*
X636230000Y-393700000D01*
X661035000Y-391795000D02*
X638135000Y-391795000D01*
X662900000Y-393660000D02*
X661035000Y-391795000D01*
X662900000Y-394335000D02*
X662900000Y-393660000D01*
%TO.N,Net-(Coolant_IN1-Pin_1)*%
X634365000Y-396240000D02*
X664210000Y-396240000D01*
X633730000Y-395605000D02*
X634365000Y-396240000D01*
X665400000Y-395050000D02*
X664210000Y-396240000D01*
X633730000Y-393700000D02*
X633730000Y-395605000D01*
X665400000Y-394335000D02*
X665400000Y-395050000D01*
%TD*%
%TA.AperFunction,NonConductor*%
G36*
X676987539Y-215785185D02*
G01*
X677033294Y-215837989D01*
X677044500Y-215889500D01*
X677044500Y-422920500D01*
X677024815Y-422987539D01*
X676972011Y-423033294D01*
X676920500Y-423044500D01*
X621654500Y-423044500D01*
X621587461Y-423024815D01*
X621541706Y-422972011D01*
X621530500Y-422920500D01*
X621530500Y-417708711D01*
X647437000Y-417708711D01*
X647437000Y-417951288D01*
X647468661Y-418191785D01*
X647531447Y-418426104D01*
X647624273Y-418650205D01*
X647624276Y-418650212D01*
X647745564Y-418860289D01*
X647745566Y-418860292D01*
X647745567Y-418860293D01*
X647893233Y-419052736D01*
X647893239Y-419052743D01*
X648064756Y-419224260D01*
X648064762Y-419224265D01*
X648257211Y-419371936D01*
X648467288Y-419493224D01*
X648691400Y-419586054D01*
X648925711Y-419648838D01*
X649106086Y-419672584D01*
X649166211Y-419680500D01*
X649166212Y-419680500D01*
X649408789Y-419680500D01*
X649456888Y-419674167D01*
X649649289Y-419648838D01*
X649883600Y-419586054D01*
X650107712Y-419493224D01*
X650317789Y-419371936D01*
X650510238Y-419224265D01*
X650681765Y-419052738D01*
X650829436Y-418860289D01*
X650950724Y-418650212D01*
X651043554Y-418426100D01*
X651106338Y-418191789D01*
X651138000Y-417951288D01*
X651138000Y-417708712D01*
X651106338Y-417468211D01*
X651043554Y-417233900D01*
X650950724Y-417009788D01*
X650829436Y-416799711D01*
X650681765Y-416607262D01*
X650681760Y-416607256D01*
X650510243Y-416435739D01*
X650510236Y-416435733D01*
X650317793Y-416288067D01*
X650317792Y-416288066D01*
X650317789Y-416288064D01*
X650107712Y-416166776D01*
X650107705Y-416166773D01*
X649883604Y-416073947D01*
X649649285Y-416011161D01*
X649408789Y-415979500D01*
X649408788Y-415979500D01*
X649166212Y-415979500D01*
X649166211Y-415979500D01*
X648925714Y-416011161D01*
X648691395Y-416073947D01*
X648467294Y-416166773D01*
X648467285Y-416166777D01*
X648257206Y-416288067D01*
X648064763Y-416435733D01*
X648064756Y-416435739D01*
X647893239Y-416607256D01*
X647893233Y-416607263D01*
X647745567Y-416799706D01*
X647624277Y-417009785D01*
X647624273Y-417009794D01*
X647531447Y-417233895D01*
X647468661Y-417468214D01*
X647437000Y-417708711D01*
X621530500Y-417708711D01*
X621530500Y-402734983D01*
X633524500Y-402734983D01*
X633524500Y-404035001D01*
X633524501Y-404035018D01*
X633535000Y-404137796D01*
X633535001Y-404137799D01*
X633590185Y-404304331D01*
X633590187Y-404304336D01*
X633682289Y-404453657D01*
X633806344Y-404577712D01*
X633961120Y-404673178D01*
X634007845Y-404725126D01*
X634019068Y-404794088D01*
X633991224Y-404858171D01*
X633983706Y-404866398D01*
X633844889Y-405005215D01*
X633719951Y-405177179D01*
X633623444Y-405366585D01*
X633557753Y-405568760D01*
X633524500Y-405778713D01*
X633524500Y-405991286D01*
X633557753Y-406201239D01*
X633623444Y-406403414D01*
X633719951Y-406592820D01*
X633844890Y-406764786D01*
X633995209Y-406915105D01*
X633995214Y-406915109D01*
X634159793Y-407034682D01*
X634202459Y-407090011D01*
X634208438Y-407159625D01*
X634175833Y-407221420D01*
X634159793Y-407235318D01*
X633995214Y-407354890D01*
X633995209Y-407354894D01*
X633844890Y-407505213D01*
X633719951Y-407677179D01*
X633623444Y-407866585D01*
X633557753Y-408068760D01*
X633524500Y-408278713D01*
X633524500Y-408491286D01*
X633557753Y-408701239D01*
X633623444Y-408903414D01*
X633719951Y-409092820D01*
X633844890Y-409264786D01*
X633995209Y-409415105D01*
X633995214Y-409415109D01*
X634159793Y-409534682D01*
X634202459Y-409590011D01*
X634208438Y-409659625D01*
X634175833Y-409721420D01*
X634159793Y-409735318D01*
X633995214Y-409854890D01*
X633995209Y-409854894D01*
X633844890Y-410005213D01*
X633719951Y-410177179D01*
X633623444Y-410366585D01*
X633557753Y-410568760D01*
X633524500Y-410778713D01*
X633524500Y-410991286D01*
X633557753Y-411201239D01*
X633623444Y-411403414D01*
X633719951Y-411592820D01*
X633844890Y-411764786D01*
X633995213Y-411915109D01*
X634167179Y-412040048D01*
X634167181Y-412040049D01*
X634167184Y-412040051D01*
X634356588Y-412136557D01*
X634558757Y-412202246D01*
X634768713Y-412235500D01*
X634768714Y-412235500D01*
X635231286Y-412235500D01*
X635231287Y-412235500D01*
X635441243Y-412202246D01*
X635643412Y-412136557D01*
X635832816Y-412040051D01*
X635887876Y-412000048D01*
X636004786Y-411915109D01*
X636004788Y-411915106D01*
X636004792Y-411915104D01*
X636123077Y-411796819D01*
X636184400Y-411763334D01*
X636210758Y-411760500D01*
X663971742Y-411760500D01*
X664038781Y-411780185D01*
X664059423Y-411796819D01*
X664137713Y-411875109D01*
X664309679Y-412000048D01*
X664309681Y-412000049D01*
X664309684Y-412000051D01*
X664499088Y-412096557D01*
X664701257Y-412162246D01*
X664911213Y-412195500D01*
X664911214Y-412195500D01*
X665373786Y-412195500D01*
X665373787Y-412195500D01*
X665583743Y-412162246D01*
X665785912Y-412096557D01*
X665975316Y-412000051D01*
X665997289Y-411984086D01*
X666147286Y-411875109D01*
X666147288Y-411875106D01*
X666147292Y-411875104D01*
X666297604Y-411724792D01*
X666297606Y-411724788D01*
X666297609Y-411724786D01*
X666422548Y-411552820D01*
X666422547Y-411552820D01*
X666422551Y-411552816D01*
X666519057Y-411363412D01*
X666584746Y-411161243D01*
X666618000Y-410951287D01*
X666618000Y-410738713D01*
X666584746Y-410528757D01*
X666519057Y-410326588D01*
X666422551Y-410137184D01*
X666422549Y-410137181D01*
X666422548Y-410137179D01*
X666297609Y-409965213D01*
X666147292Y-409814896D01*
X666147284Y-409814890D01*
X665982704Y-409695316D01*
X665940040Y-409639989D01*
X665934061Y-409570376D01*
X665966666Y-409508580D01*
X665982699Y-409494686D01*
X666147292Y-409375104D01*
X666297604Y-409224792D01*
X666297606Y-409224788D01*
X666297609Y-409224786D01*
X666422548Y-409052820D01*
X666422547Y-409052820D01*
X666422551Y-409052816D01*
X666519057Y-408863412D01*
X666584746Y-408661243D01*
X666618000Y-408451287D01*
X666618000Y-408238713D01*
X666584746Y-408028757D01*
X666519057Y-407826588D01*
X666422551Y-407637184D01*
X666422549Y-407637181D01*
X666422548Y-407637179D01*
X666297609Y-407465213D01*
X666147292Y-407314896D01*
X666147284Y-407314890D01*
X665982704Y-407195316D01*
X665940040Y-407139989D01*
X665934061Y-407070376D01*
X665966666Y-407008580D01*
X665982699Y-406994686D01*
X666147292Y-406875104D01*
X666297604Y-406724792D01*
X666297606Y-406724788D01*
X666297609Y-406724786D01*
X666422548Y-406552820D01*
X666422547Y-406552820D01*
X666422551Y-406552816D01*
X666519057Y-406363412D01*
X666584746Y-406161243D01*
X666618000Y-405951287D01*
X666618000Y-405738713D01*
X666584746Y-405528757D01*
X666519057Y-405326588D01*
X666422551Y-405137184D01*
X666422549Y-405137181D01*
X666422548Y-405137179D01*
X666297609Y-404965213D01*
X666158794Y-404826398D01*
X666125309Y-404765075D01*
X666130293Y-404695383D01*
X666172165Y-404639450D01*
X666181379Y-404633178D01*
X666186831Y-404629814D01*
X666186834Y-404629814D01*
X666336156Y-404537712D01*
X666460212Y-404413656D01*
X666552314Y-404264334D01*
X666607499Y-404097797D01*
X666618000Y-403995009D01*
X666617999Y-402694992D01*
X666607499Y-402592203D01*
X666552314Y-402425666D01*
X666460212Y-402276344D01*
X666336156Y-402152288D01*
X666186834Y-402060186D01*
X666020297Y-402005001D01*
X666020295Y-402005000D01*
X665917510Y-401994500D01*
X664367498Y-401994500D01*
X664367481Y-401994501D01*
X664264703Y-402005000D01*
X664264700Y-402005001D01*
X664098168Y-402060185D01*
X664098163Y-402060187D01*
X663948842Y-402152289D01*
X663824789Y-402276342D01*
X663741981Y-402410597D01*
X663690033Y-402457321D01*
X663636442Y-402469500D01*
X636481386Y-402469500D01*
X636414347Y-402449815D01*
X636375847Y-402410597D01*
X636317712Y-402316344D01*
X636193656Y-402192288D01*
X636044334Y-402100186D01*
X635877797Y-402045001D01*
X635877795Y-402045000D01*
X635775010Y-402034500D01*
X634224998Y-402034500D01*
X634224981Y-402034501D01*
X634122203Y-402045000D01*
X634122200Y-402045001D01*
X633955668Y-402100185D01*
X633955663Y-402100187D01*
X633806342Y-402192289D01*
X633682289Y-402316342D01*
X633590187Y-402465663D01*
X633590185Y-402465668D01*
X633562349Y-402549670D01*
X633535001Y-402632203D01*
X633535001Y-402632204D01*
X633535000Y-402632204D01*
X633524500Y-402734983D01*
X621530500Y-402734983D01*
X621530500Y-392899983D01*
X632379500Y-392899983D01*
X632379500Y-394500001D01*
X632379501Y-394500018D01*
X632390000Y-394602796D01*
X632390001Y-394602799D01*
X632445185Y-394769331D01*
X632445187Y-394769336D01*
X632480069Y-394825888D01*
X632537288Y-394918656D01*
X632661344Y-395042712D01*
X632795597Y-395125519D01*
X632842321Y-395177465D01*
X632854500Y-395231057D01*
X632854500Y-395691233D01*
X632888143Y-395860366D01*
X632888146Y-395860378D01*
X632954138Y-396019698D01*
X632954145Y-396019711D01*
X633049954Y-396163098D01*
X633049957Y-396163102D01*
X633684955Y-396798099D01*
X633806898Y-396920042D01*
X633806902Y-396920046D01*
X633950288Y-397015854D01*
X633950301Y-397015861D01*
X634109621Y-397081853D01*
X634109626Y-397081855D01*
X634278766Y-397115499D01*
X634278769Y-397115500D01*
X634278771Y-397115500D01*
X664296231Y-397115500D01*
X664296232Y-397115499D01*
X664465374Y-397081855D01*
X664624705Y-397015858D01*
X664768099Y-396920045D01*
X665816325Y-395871817D01*
X665877648Y-395838333D01*
X665904006Y-395835499D01*
X666050002Y-395835499D01*
X666050008Y-395835499D01*
X666152797Y-395824999D01*
X666319334Y-395769814D01*
X666468656Y-395677712D01*
X666592712Y-395553656D01*
X666684814Y-395404334D01*
X666739999Y-395237797D01*
X666750500Y-395135009D01*
X666750499Y-393534992D01*
X666739999Y-393432203D01*
X666684814Y-393265666D01*
X666592712Y-393116344D01*
X666468656Y-392992288D01*
X666367927Y-392930158D01*
X666319336Y-392900187D01*
X666319331Y-392900185D01*
X666317862Y-392899698D01*
X666152797Y-392845001D01*
X666152795Y-392845000D01*
X666050010Y-392834500D01*
X664749998Y-392834500D01*
X664749981Y-392834501D01*
X664647203Y-392845000D01*
X664647200Y-392845001D01*
X664480668Y-392900185D01*
X664480663Y-392900187D01*
X664331342Y-392992289D01*
X664207289Y-393116342D01*
X664111821Y-393271121D01*
X664059873Y-393317845D01*
X663990910Y-393329068D01*
X663926828Y-393301224D01*
X663918601Y-393293705D01*
X663779786Y-393154890D01*
X663607819Y-393029951D01*
X663607818Y-393029950D01*
X663607816Y-393029949D01*
X663526634Y-392988585D01*
X663421993Y-392935267D01*
X663390607Y-392912463D01*
X661593102Y-391114957D01*
X661593098Y-391114954D01*
X661449711Y-391019145D01*
X661449698Y-391019138D01*
X661290378Y-390953146D01*
X661290366Y-390953143D01*
X661121232Y-390919500D01*
X661121229Y-390919500D01*
X638221229Y-390919500D01*
X638048771Y-390919500D01*
X638048768Y-390919500D01*
X637879633Y-390953143D01*
X637879621Y-390953146D01*
X637720301Y-391019138D01*
X637720288Y-391019145D01*
X637576901Y-391114954D01*
X637576897Y-391114957D01*
X636515691Y-392176163D01*
X636454368Y-392209648D01*
X636408613Y-392210955D01*
X636336287Y-392199500D01*
X636123713Y-392199500D01*
X636075042Y-392207208D01*
X635913760Y-392232753D01*
X635711585Y-392298444D01*
X635522179Y-392394951D01*
X635350215Y-392519889D01*
X635211398Y-392658706D01*
X635150075Y-392692190D01*
X635080383Y-392687206D01*
X635024450Y-392645334D01*
X635018178Y-392636120D01*
X634922712Y-392481344D01*
X634798657Y-392357289D01*
X634798656Y-392357288D01*
X634649334Y-392265186D01*
X634482797Y-392210001D01*
X634482795Y-392210000D01*
X634380010Y-392199500D01*
X633079998Y-392199500D01*
X633079981Y-392199501D01*
X632977203Y-392210000D01*
X632977200Y-392210001D01*
X632810668Y-392265185D01*
X632810663Y-392265187D01*
X632661342Y-392357289D01*
X632537289Y-392481342D01*
X632445187Y-392630663D01*
X632445185Y-392630668D01*
X632440325Y-392645334D01*
X632390001Y-392797203D01*
X632390001Y-392797204D01*
X632390000Y-392797204D01*
X632379500Y-392899983D01*
X621530500Y-392899983D01*
X621530500Y-381604983D01*
X632539500Y-381604983D01*
X632539500Y-383155001D01*
X632539501Y-383155018D01*
X632550000Y-383257796D01*
X632550001Y-383257799D01*
X632595894Y-383396294D01*
X632605186Y-383424334D01*
X632697288Y-383573656D01*
X632821344Y-383697712D01*
X632955597Y-383780519D01*
X633002321Y-383832465D01*
X633014500Y-383886057D01*
X633014500Y-384421233D01*
X633048143Y-384590366D01*
X633048146Y-384590378D01*
X633114138Y-384749698D01*
X633114145Y-384749711D01*
X633209954Y-384893098D01*
X633209957Y-384893102D01*
X634319955Y-386003099D01*
X634441898Y-386125042D01*
X634441902Y-386125046D01*
X634585288Y-386220854D01*
X634585301Y-386220861D01*
X634744621Y-386286853D01*
X634744626Y-386286855D01*
X634913766Y-386320499D01*
X634913769Y-386320500D01*
X634913771Y-386320500D01*
X663701231Y-386320500D01*
X663701232Y-386320499D01*
X663870374Y-386286855D01*
X664029705Y-386220858D01*
X664173099Y-386125045D01*
X665565045Y-384733099D01*
X665660858Y-384589705D01*
X665726855Y-384430374D01*
X665760500Y-384261229D01*
X665760500Y-384088771D01*
X665760500Y-384088768D01*
X665760499Y-384088766D01*
X665725667Y-383913652D01*
X665727246Y-383913337D01*
X665726688Y-383851285D01*
X665763932Y-383792169D01*
X665780870Y-383779614D01*
X665913656Y-383697712D01*
X666037712Y-383573656D01*
X666129814Y-383424334D01*
X666184999Y-383257797D01*
X666195500Y-383155009D01*
X666195499Y-381604992D01*
X666184999Y-381502203D01*
X666129814Y-381335666D01*
X666037712Y-381186344D01*
X665913656Y-381062288D01*
X665764334Y-380970186D01*
X665597797Y-380915001D01*
X665597795Y-380915000D01*
X665495010Y-380904500D01*
X664194998Y-380904500D01*
X664194981Y-380904501D01*
X664092203Y-380915000D01*
X664092200Y-380915001D01*
X663925668Y-380970185D01*
X663925663Y-380970187D01*
X663776342Y-381062289D01*
X663652289Y-381186342D01*
X663556821Y-381341121D01*
X663504873Y-381387845D01*
X663435910Y-381399068D01*
X663371828Y-381371224D01*
X663363601Y-381363705D01*
X663224792Y-381224896D01*
X663171729Y-381186344D01*
X663052816Y-381099949D01*
X663052811Y-381099946D01*
X663048874Y-381097086D01*
X663049127Y-381096736D01*
X663030262Y-381080299D01*
X663029353Y-381081209D01*
X662903099Y-380954955D01*
X661633102Y-379684957D01*
X661633098Y-379684954D01*
X661489711Y-379589145D01*
X661489698Y-379589138D01*
X661330378Y-379523146D01*
X661330366Y-379523143D01*
X661161232Y-379489500D01*
X661161229Y-379489500D01*
X636991229Y-379489500D01*
X636818771Y-379489500D01*
X636818768Y-379489500D01*
X636649633Y-379523143D01*
X636649621Y-379523146D01*
X636490301Y-379589138D01*
X636490288Y-379589145D01*
X636346901Y-379684954D01*
X636346897Y-379684957D01*
X635831901Y-380199955D01*
X635770927Y-380260929D01*
X635709953Y-380321902D01*
X635614145Y-380465288D01*
X635614138Y-380465301D01*
X635548146Y-380624621D01*
X635548143Y-380624633D01*
X635514500Y-380793766D01*
X635514500Y-381169241D01*
X635494815Y-381236280D01*
X635478181Y-381256922D01*
X635371398Y-381363705D01*
X635310075Y-381397190D01*
X635240383Y-381392206D01*
X635184450Y-381350334D01*
X635178178Y-381341120D01*
X635082712Y-381186344D01*
X634958657Y-381062289D01*
X634958656Y-381062288D01*
X634809334Y-380970186D01*
X634642797Y-380915001D01*
X634642795Y-380915000D01*
X634540010Y-380904500D01*
X633239998Y-380904500D01*
X633239981Y-380904501D01*
X633137203Y-380915000D01*
X633137200Y-380915001D01*
X632970668Y-380970185D01*
X632970663Y-380970187D01*
X632821342Y-381062289D01*
X632697289Y-381186342D01*
X632605187Y-381335663D01*
X632605185Y-381335668D01*
X632586450Y-381392206D01*
X632550001Y-381502203D01*
X632550001Y-381502204D01*
X632550000Y-381502204D01*
X632539500Y-381604983D01*
X621530500Y-381604983D01*
X621530500Y-371644423D01*
X632539500Y-371644423D01*
X632539500Y-373194441D01*
X632539501Y-373194458D01*
X632550000Y-373297236D01*
X632550001Y-373297239D01*
X632592083Y-373424232D01*
X632605186Y-373463774D01*
X632697288Y-373613096D01*
X632821344Y-373737152D01*
X632970666Y-373829254D01*
X633022889Y-373846558D01*
X633080333Y-373886330D01*
X633098445Y-373916810D01*
X633113896Y-373954112D01*
X633114142Y-373954704D01*
X633114145Y-373954711D01*
X633209954Y-374098098D01*
X633209957Y-374098102D01*
X634954955Y-375843099D01*
X635076898Y-375965042D01*
X635076902Y-375965046D01*
X635220288Y-376060854D01*
X635220301Y-376060861D01*
X635379621Y-376126853D01*
X635379626Y-376126855D01*
X635548766Y-376160499D01*
X635548769Y-376160500D01*
X635548771Y-376160500D01*
X663701231Y-376160500D01*
X663701232Y-376160499D01*
X663870374Y-376126855D01*
X664029705Y-376060858D01*
X664173099Y-375965045D01*
X665565045Y-374573099D01*
X665660858Y-374429705D01*
X665726855Y-374270374D01*
X665732010Y-374244456D01*
X665764392Y-374182547D01*
X665801224Y-374156264D01*
X665804323Y-374154817D01*
X665804334Y-374154814D01*
X665953656Y-374062712D01*
X666077712Y-373938656D01*
X666169814Y-373789334D01*
X666224999Y-373622797D01*
X666235500Y-373520009D01*
X666235499Y-371969992D01*
X666224999Y-371867203D01*
X666169814Y-371700666D01*
X666077712Y-371551344D01*
X665953656Y-371427288D01*
X665804334Y-371335186D01*
X665637797Y-371280001D01*
X665637795Y-371280000D01*
X665535010Y-371269500D01*
X664234998Y-371269500D01*
X664234981Y-371269501D01*
X664132203Y-371280000D01*
X664132200Y-371280001D01*
X663965668Y-371335185D01*
X663965663Y-371335187D01*
X663816342Y-371427289D01*
X663692289Y-371551342D01*
X663596821Y-371706121D01*
X663544873Y-371752845D01*
X663475910Y-371764068D01*
X663411828Y-371736224D01*
X663403611Y-371728715D01*
X663296818Y-371621922D01*
X663263334Y-371560599D01*
X663260500Y-371534241D01*
X663260500Y-371428768D01*
X663260499Y-371428766D01*
X663241885Y-371335186D01*
X663226855Y-371259626D01*
X663212837Y-371225784D01*
X663160861Y-371100301D01*
X663160854Y-371100288D01*
X663065046Y-370956902D01*
X663039740Y-370931596D01*
X662943099Y-370834955D01*
X661633102Y-369524957D01*
X661633098Y-369524954D01*
X661489711Y-369429145D01*
X661489698Y-369429138D01*
X661330378Y-369363146D01*
X661330366Y-369363143D01*
X661161232Y-369329500D01*
X661161229Y-369329500D01*
X638261229Y-369329500D01*
X638088771Y-369329500D01*
X638088768Y-369329500D01*
X637919633Y-369363143D01*
X637919621Y-369363146D01*
X637760301Y-369429138D01*
X637760288Y-369429145D01*
X637616901Y-369524954D01*
X637616897Y-369524957D01*
X636210258Y-370931596D01*
X636148935Y-370965081D01*
X636141977Y-370966388D01*
X636073758Y-370977193D01*
X635871585Y-371042884D01*
X635682179Y-371139391D01*
X635510215Y-371264329D01*
X635371398Y-371403146D01*
X635310075Y-371436630D01*
X635240383Y-371431646D01*
X635184450Y-371389774D01*
X635178178Y-371380560D01*
X635082712Y-371225784D01*
X634958657Y-371101729D01*
X634958656Y-371101728D01*
X634809334Y-371009626D01*
X634642797Y-370954441D01*
X634642795Y-370954440D01*
X634540010Y-370943940D01*
X633239998Y-370943940D01*
X633239981Y-370943941D01*
X633137203Y-370954440D01*
X633137200Y-370954441D01*
X632970668Y-371009625D01*
X632970663Y-371009627D01*
X632821342Y-371101729D01*
X632697289Y-371225782D01*
X632605187Y-371375103D01*
X632605185Y-371375108D01*
X632587894Y-371427289D01*
X632550001Y-371541643D01*
X632550001Y-371541644D01*
X632550000Y-371541644D01*
X632539500Y-371644423D01*
X621530500Y-371644423D01*
X621530500Y-361683868D01*
X632539500Y-361683868D01*
X632539500Y-363233886D01*
X632539501Y-363233903D01*
X632550000Y-363336681D01*
X632550001Y-363336684D01*
X632595894Y-363475179D01*
X632605186Y-363503219D01*
X632697288Y-363652541D01*
X632821344Y-363776597D01*
X632955597Y-363859404D01*
X633002321Y-363911350D01*
X633014500Y-363964942D01*
X633014500Y-364101233D01*
X633048143Y-364270366D01*
X633048146Y-364270378D01*
X633114138Y-364429698D01*
X633114145Y-364429711D01*
X633209954Y-364573098D01*
X633209957Y-364573102D01*
X634954955Y-366318099D01*
X635076898Y-366440042D01*
X635076902Y-366440046D01*
X635220288Y-366535854D01*
X635220301Y-366535861D01*
X635379621Y-366601853D01*
X635379626Y-366601855D01*
X635548766Y-366635499D01*
X635548769Y-366635500D01*
X635548771Y-366635500D01*
X663701231Y-366635500D01*
X663701232Y-366635499D01*
X663870374Y-366601855D01*
X664029705Y-366535858D01*
X664173099Y-366440045D01*
X665525045Y-365088099D01*
X665594507Y-364984142D01*
X665620858Y-364944705D01*
X665686855Y-364785374D01*
X665688599Y-364776602D01*
X665720982Y-364714692D01*
X665757811Y-364688410D01*
X665764329Y-364685370D01*
X665764330Y-364685369D01*
X665764334Y-364685368D01*
X665913656Y-364593266D01*
X666037712Y-364469210D01*
X666129814Y-364319888D01*
X666184999Y-364153351D01*
X666195500Y-364050563D01*
X666195499Y-362500546D01*
X666184999Y-362397757D01*
X666129814Y-362231220D01*
X666037712Y-362081898D01*
X665913656Y-361957842D01*
X665764334Y-361865740D01*
X665597797Y-361810555D01*
X665597795Y-361810554D01*
X665495010Y-361800054D01*
X664194998Y-361800054D01*
X664194981Y-361800055D01*
X664092203Y-361810554D01*
X664092200Y-361810555D01*
X663925668Y-361865739D01*
X663925663Y-361865741D01*
X663776342Y-361957843D01*
X663652289Y-362081896D01*
X663556821Y-362236675D01*
X663504873Y-362283399D01*
X663435910Y-362294622D01*
X663371828Y-362266778D01*
X663363611Y-362259269D01*
X663256818Y-362152476D01*
X663223334Y-362091153D01*
X663220500Y-362064795D01*
X663220500Y-361228768D01*
X663220499Y-361228766D01*
X663203076Y-361141174D01*
X663186855Y-361059626D01*
X663159253Y-360992989D01*
X663120861Y-360900301D01*
X663120854Y-360900288D01*
X663025046Y-360756902D01*
X663025045Y-360756901D01*
X662903099Y-360634955D01*
X662783099Y-360514955D01*
X661633102Y-359364957D01*
X661633098Y-359364954D01*
X661489711Y-359269145D01*
X661489698Y-359269138D01*
X661330378Y-359203146D01*
X661330366Y-359203143D01*
X661161232Y-359169500D01*
X661161229Y-359169500D01*
X637453771Y-359169500D01*
X637453768Y-359169500D01*
X637284633Y-359203143D01*
X637284621Y-359203146D01*
X637125301Y-359269138D01*
X637125288Y-359269145D01*
X636981901Y-359364954D01*
X636981897Y-359364957D01*
X635831901Y-360514955D01*
X635770927Y-360575929D01*
X635709953Y-360636902D01*
X635614145Y-360780288D01*
X635614138Y-360780301D01*
X635548146Y-360939621D01*
X635548143Y-360939633D01*
X635514500Y-361108766D01*
X635514500Y-361248126D01*
X635494815Y-361315165D01*
X635478181Y-361335807D01*
X635371398Y-361442590D01*
X635310075Y-361476075D01*
X635240383Y-361471091D01*
X635184450Y-361429219D01*
X635178178Y-361420005D01*
X635082712Y-361265229D01*
X634958657Y-361141174D01*
X634958656Y-361141173D01*
X634826458Y-361059633D01*
X634809336Y-361049072D01*
X634809331Y-361049070D01*
X634779515Y-361039190D01*
X634642797Y-360993886D01*
X634642795Y-360993885D01*
X634540010Y-360983385D01*
X633239998Y-360983385D01*
X633239981Y-360983386D01*
X633137203Y-360993885D01*
X633137200Y-360993886D01*
X632970668Y-361049070D01*
X632970663Y-361049072D01*
X632821342Y-361141174D01*
X632697289Y-361265227D01*
X632605187Y-361414548D01*
X632605185Y-361414553D01*
X632600542Y-361428566D01*
X632550001Y-361581088D01*
X632550001Y-361581089D01*
X632550000Y-361581089D01*
X632539500Y-361683868D01*
X621530500Y-361683868D01*
X621530500Y-351723313D01*
X632539500Y-351723313D01*
X632539500Y-353273331D01*
X632539501Y-353273348D01*
X632550000Y-353376126D01*
X632550001Y-353376129D01*
X632595894Y-353514624D01*
X632605186Y-353542664D01*
X632697288Y-353691986D01*
X632821344Y-353816042D01*
X632967147Y-353905974D01*
X633013871Y-353957921D01*
X633023667Y-353987320D01*
X633048143Y-354110368D01*
X633048146Y-354110378D01*
X633114138Y-354269698D01*
X633114145Y-354269711D01*
X633209954Y-354413098D01*
X633209957Y-354413102D01*
X634954955Y-356158099D01*
X635076898Y-356280042D01*
X635076902Y-356280046D01*
X635220288Y-356375854D01*
X635220301Y-356375861D01*
X635379621Y-356441853D01*
X635379626Y-356441855D01*
X635548766Y-356475499D01*
X635548769Y-356475500D01*
X635548771Y-356475500D01*
X663066231Y-356475500D01*
X663066232Y-356475499D01*
X663235374Y-356441855D01*
X663394705Y-356375858D01*
X663538099Y-356280045D01*
X665107993Y-354710149D01*
X665169316Y-354676665D01*
X665195674Y-354673831D01*
X665495002Y-354673831D01*
X665495008Y-354673831D01*
X665597797Y-354663331D01*
X665764334Y-354608146D01*
X665913656Y-354516044D01*
X666037712Y-354391988D01*
X666129814Y-354242666D01*
X666184999Y-354076129D01*
X666195500Y-353973341D01*
X666195499Y-352423324D01*
X666184999Y-352320535D01*
X666129814Y-352153998D01*
X666037712Y-352004676D01*
X665913656Y-351880620D01*
X665764334Y-351788518D01*
X665597797Y-351733333D01*
X665597795Y-351733332D01*
X665495010Y-351722832D01*
X664194998Y-351722832D01*
X664194981Y-351722833D01*
X664092203Y-351733332D01*
X664092200Y-351733333D01*
X663925668Y-351788517D01*
X663925663Y-351788519D01*
X663776342Y-351880621D01*
X663652289Y-352004674D01*
X663556821Y-352159453D01*
X663504873Y-352206177D01*
X663435910Y-352217400D01*
X663371828Y-352189556D01*
X663363611Y-352182047D01*
X663256818Y-352075254D01*
X663223334Y-352013931D01*
X663220500Y-351987573D01*
X663220500Y-351743768D01*
X663220499Y-351743766D01*
X663196443Y-351622830D01*
X663186855Y-351574626D01*
X663160308Y-351510536D01*
X663120861Y-351415301D01*
X663120854Y-351415288D01*
X663025046Y-351271902D01*
X663025045Y-351271901D01*
X662903099Y-351149955D01*
X662373432Y-350620288D01*
X661593102Y-349839957D01*
X661593098Y-349839954D01*
X661449711Y-349744145D01*
X661449698Y-349744138D01*
X661290378Y-349678146D01*
X661290366Y-349678143D01*
X661121232Y-349644500D01*
X661121229Y-349644500D01*
X636991229Y-349644500D01*
X636818771Y-349644500D01*
X636818768Y-349644500D01*
X636649633Y-349678143D01*
X636649621Y-349678146D01*
X636490301Y-349744138D01*
X636490288Y-349744145D01*
X636346901Y-349839954D01*
X636346897Y-349839957D01*
X635831901Y-350354955D01*
X635770927Y-350415929D01*
X635709953Y-350476902D01*
X635614145Y-350620288D01*
X635614138Y-350620301D01*
X635548146Y-350779621D01*
X635548143Y-350779633D01*
X635514500Y-350948766D01*
X635514500Y-351287571D01*
X635494815Y-351354610D01*
X635478181Y-351375252D01*
X635371398Y-351482035D01*
X635310075Y-351515520D01*
X635240383Y-351510536D01*
X635184450Y-351468664D01*
X635178178Y-351459450D01*
X635082712Y-351304674D01*
X634958657Y-351180619D01*
X634958656Y-351180618D01*
X634809334Y-351088516D01*
X634642797Y-351033331D01*
X634642795Y-351033330D01*
X634540010Y-351022830D01*
X633239998Y-351022830D01*
X633239981Y-351022831D01*
X633137203Y-351033330D01*
X633137200Y-351033331D01*
X632970668Y-351088515D01*
X632970663Y-351088517D01*
X632821342Y-351180619D01*
X632697289Y-351304672D01*
X632605187Y-351453993D01*
X632605185Y-351453998D01*
X632600325Y-351468664D01*
X632550001Y-351620533D01*
X632550001Y-351620534D01*
X632550000Y-351620534D01*
X632539500Y-351723313D01*
X621530500Y-351723313D01*
X621530500Y-341762758D01*
X632539500Y-341762758D01*
X632539500Y-343312776D01*
X632539501Y-343312793D01*
X632550000Y-343415571D01*
X632550001Y-343415574D01*
X632595894Y-343554069D01*
X632605186Y-343582109D01*
X632697288Y-343731431D01*
X632821344Y-343855487D01*
X632970666Y-343947589D01*
X633005286Y-343959060D01*
X633062730Y-343998832D01*
X633080842Y-344029313D01*
X633114140Y-344109701D01*
X633114145Y-344109711D01*
X633209954Y-344253098D01*
X633209957Y-344253102D01*
X634954955Y-345998099D01*
X635076898Y-346120042D01*
X635076902Y-346120046D01*
X635220288Y-346215854D01*
X635220301Y-346215861D01*
X635379621Y-346281853D01*
X635379626Y-346281855D01*
X635548766Y-346315499D01*
X635548769Y-346315500D01*
X635548771Y-346315500D01*
X663066231Y-346315500D01*
X663066232Y-346315499D01*
X663235374Y-346281855D01*
X663394705Y-346215858D01*
X663538099Y-346120045D01*
X665025215Y-344632927D01*
X665086538Y-344599443D01*
X665112896Y-344596609D01*
X665495002Y-344596609D01*
X665495008Y-344596609D01*
X665597797Y-344586109D01*
X665764334Y-344530924D01*
X665913656Y-344438822D01*
X666037712Y-344314766D01*
X666129814Y-344165444D01*
X666184999Y-343998907D01*
X666195500Y-343896119D01*
X666195499Y-342346102D01*
X666184999Y-342243313D01*
X666129814Y-342076776D01*
X666037712Y-341927454D01*
X665913656Y-341803398D01*
X665764334Y-341711296D01*
X665597797Y-341656111D01*
X665597795Y-341656110D01*
X665495010Y-341645610D01*
X664194998Y-341645610D01*
X664194981Y-341645611D01*
X664092203Y-341656110D01*
X664092200Y-341656111D01*
X663925668Y-341711295D01*
X663925663Y-341711297D01*
X663776342Y-341803399D01*
X663652289Y-341927452D01*
X663556821Y-342082231D01*
X663504873Y-342128955D01*
X663435910Y-342140178D01*
X663371828Y-342112334D01*
X663363611Y-342104825D01*
X663256818Y-341998032D01*
X663223334Y-341936709D01*
X663220500Y-341910351D01*
X663220500Y-341543768D01*
X663220499Y-341543766D01*
X663188455Y-341382671D01*
X663186855Y-341374626D01*
X663139472Y-341260233D01*
X663120861Y-341215301D01*
X663120854Y-341215288D01*
X663025046Y-341071902D01*
X662996175Y-341043031D01*
X662903099Y-340949955D01*
X661633102Y-339679957D01*
X661633098Y-339679954D01*
X661489711Y-339584145D01*
X661489698Y-339584138D01*
X661330378Y-339518146D01*
X661330366Y-339518143D01*
X661161232Y-339484500D01*
X661161229Y-339484500D01*
X638261229Y-339484500D01*
X638088771Y-339484500D01*
X638088768Y-339484500D01*
X637919633Y-339518143D01*
X637919621Y-339518146D01*
X637760301Y-339584138D01*
X637760288Y-339584145D01*
X637616901Y-339679954D01*
X637616897Y-339679957D01*
X636253823Y-341043031D01*
X636192500Y-341076516D01*
X636185541Y-341077823D01*
X636073759Y-341095528D01*
X635871585Y-341161219D01*
X635682179Y-341257726D01*
X635510215Y-341382664D01*
X635371398Y-341521481D01*
X635310075Y-341554965D01*
X635240383Y-341549981D01*
X635184450Y-341508109D01*
X635178178Y-341498895D01*
X635082712Y-341344119D01*
X634958657Y-341220064D01*
X634958656Y-341220063D01*
X634809334Y-341127961D01*
X634642797Y-341072776D01*
X634642795Y-341072775D01*
X634540010Y-341062275D01*
X633239998Y-341062275D01*
X633239981Y-341062276D01*
X633137203Y-341072775D01*
X633137200Y-341072776D01*
X632970668Y-341127960D01*
X632970663Y-341127962D01*
X632821342Y-341220064D01*
X632697289Y-341344117D01*
X632605187Y-341493438D01*
X632605185Y-341493443D01*
X632600325Y-341508109D01*
X632550001Y-341659978D01*
X632550001Y-341659979D01*
X632550000Y-341659979D01*
X632539500Y-341762758D01*
X621530500Y-341762758D01*
X621530500Y-331802203D01*
X632539500Y-331802203D01*
X632539500Y-333352221D01*
X632539501Y-333352238D01*
X632550000Y-333455016D01*
X632550001Y-333455019D01*
X632573260Y-333525209D01*
X632605186Y-333621554D01*
X632697288Y-333770876D01*
X632821344Y-333894932D01*
X632970666Y-333987034D01*
X633068539Y-334019466D01*
X633143630Y-334044349D01*
X633142884Y-334046597D01*
X633194669Y-334074655D01*
X633206025Y-334088444D01*
X633206091Y-334088391D01*
X633209957Y-334093102D01*
X634954955Y-335838099D01*
X635076898Y-335960042D01*
X635076902Y-335960046D01*
X635220288Y-336055854D01*
X635220301Y-336055861D01*
X635379621Y-336121853D01*
X635379626Y-336121855D01*
X635548766Y-336155499D01*
X635548769Y-336155500D01*
X635548771Y-336155500D01*
X663066231Y-336155500D01*
X663066232Y-336155499D01*
X663235374Y-336121855D01*
X663394705Y-336055858D01*
X663538099Y-335960045D01*
X664942437Y-334555705D01*
X665003760Y-334522221D01*
X665030118Y-334519387D01*
X665495002Y-334519387D01*
X665495008Y-334519387D01*
X665597797Y-334508887D01*
X665764334Y-334453702D01*
X665913656Y-334361600D01*
X666037712Y-334237544D01*
X666129814Y-334088222D01*
X666184999Y-333921685D01*
X666195500Y-333818897D01*
X666195499Y-332268880D01*
X666184999Y-332166091D01*
X666129814Y-331999554D01*
X666037712Y-331850232D01*
X665913656Y-331726176D01*
X665764334Y-331634074D01*
X665597797Y-331578889D01*
X665597795Y-331578888D01*
X665495010Y-331568388D01*
X664194998Y-331568388D01*
X664194981Y-331568389D01*
X664092203Y-331578888D01*
X664092200Y-331578889D01*
X663925668Y-331634073D01*
X663925663Y-331634075D01*
X663776342Y-331726177D01*
X663652289Y-331850230D01*
X663556821Y-332005009D01*
X663504873Y-332051733D01*
X663435910Y-332062956D01*
X663371828Y-332035112D01*
X663363611Y-332027603D01*
X663256818Y-331920810D01*
X663223334Y-331859487D01*
X663220500Y-331833129D01*
X663220500Y-331383768D01*
X663220499Y-331383766D01*
X663203274Y-331297169D01*
X663186855Y-331214626D01*
X663167296Y-331167406D01*
X663120861Y-331055301D01*
X663120854Y-331055288D01*
X663025046Y-330911902D01*
X663025045Y-330911901D01*
X662903099Y-330789955D01*
X662783099Y-330669955D01*
X661633102Y-329519957D01*
X661633098Y-329519954D01*
X661489711Y-329424145D01*
X661489698Y-329424138D01*
X661330378Y-329358146D01*
X661330366Y-329358143D01*
X661161232Y-329324500D01*
X661161229Y-329324500D01*
X637453771Y-329324500D01*
X637453768Y-329324500D01*
X637284633Y-329358143D01*
X637284621Y-329358146D01*
X637125301Y-329424138D01*
X637125288Y-329424145D01*
X636981901Y-329519954D01*
X636981897Y-329519957D01*
X635831901Y-330669955D01*
X635770927Y-330730929D01*
X635709953Y-330791902D01*
X635614145Y-330935288D01*
X635614138Y-330935301D01*
X635548146Y-331094621D01*
X635548143Y-331094633D01*
X635514500Y-331263766D01*
X635514500Y-331366461D01*
X635494815Y-331433500D01*
X635478181Y-331454142D01*
X635371398Y-331560925D01*
X635310075Y-331594410D01*
X635240383Y-331589426D01*
X635184450Y-331547554D01*
X635178178Y-331538340D01*
X635082712Y-331383564D01*
X634958657Y-331259509D01*
X634958656Y-331259508D01*
X634863253Y-331200663D01*
X634809336Y-331167407D01*
X634809331Y-331167405D01*
X634750737Y-331147989D01*
X634642797Y-331112221D01*
X634642795Y-331112220D01*
X634540010Y-331101720D01*
X633239998Y-331101720D01*
X633239981Y-331101721D01*
X633137203Y-331112220D01*
X633137200Y-331112221D01*
X632970668Y-331167405D01*
X632970663Y-331167407D01*
X632821342Y-331259509D01*
X632697289Y-331383562D01*
X632605187Y-331532883D01*
X632605185Y-331532888D01*
X632600325Y-331547554D01*
X632550001Y-331699423D01*
X632550001Y-331699424D01*
X632550000Y-331699424D01*
X632539500Y-331802203D01*
X621530500Y-331802203D01*
X621530500Y-321841648D01*
X632539500Y-321841648D01*
X632539500Y-323391666D01*
X632539501Y-323391683D01*
X632550000Y-323494461D01*
X632550001Y-323494464D01*
X632595894Y-323632959D01*
X632605186Y-323660999D01*
X632697288Y-323810321D01*
X632821344Y-323934377D01*
X632958833Y-324019180D01*
X633005558Y-324071128D01*
X633015354Y-324100527D01*
X633048143Y-324265368D01*
X633048146Y-324265378D01*
X633114138Y-324424698D01*
X633114145Y-324424711D01*
X633209954Y-324568098D01*
X633209957Y-324568102D01*
X634954955Y-326313099D01*
X635076898Y-326435042D01*
X635076902Y-326435046D01*
X635220288Y-326530854D01*
X635220301Y-326530861D01*
X635379621Y-326596853D01*
X635379626Y-326596855D01*
X635548766Y-326630499D01*
X635548769Y-326630500D01*
X635548771Y-326630500D01*
X663066231Y-326630500D01*
X663066232Y-326630499D01*
X663235374Y-326596855D01*
X663394705Y-326530858D01*
X663538099Y-326435045D01*
X665503879Y-324469264D01*
X665565200Y-324435781D01*
X665578954Y-324433589D01*
X665597797Y-324431665D01*
X665764334Y-324376480D01*
X665913656Y-324284378D01*
X666037712Y-324160322D01*
X666129814Y-324011000D01*
X666184999Y-323844463D01*
X666195500Y-323741675D01*
X666195499Y-322191658D01*
X666184999Y-322088869D01*
X666129814Y-321922332D01*
X666037712Y-321773010D01*
X665913656Y-321648954D01*
X665789425Y-321572328D01*
X665764336Y-321556853D01*
X665764331Y-321556851D01*
X665745165Y-321550500D01*
X665597797Y-321501667D01*
X665597795Y-321501666D01*
X665495010Y-321491166D01*
X664194998Y-321491166D01*
X664194981Y-321491167D01*
X664092203Y-321501666D01*
X664092200Y-321501667D01*
X663925668Y-321556851D01*
X663925663Y-321556853D01*
X663776342Y-321648955D01*
X663652289Y-321773008D01*
X663556821Y-321927787D01*
X663504873Y-321974511D01*
X663435910Y-321985734D01*
X663371828Y-321957890D01*
X663363611Y-321950381D01*
X663256818Y-321843588D01*
X663223334Y-321782265D01*
X663220500Y-321755907D01*
X663220500Y-321223768D01*
X663220499Y-321223766D01*
X663204823Y-321144956D01*
X663186855Y-321054626D01*
X663186853Y-321054621D01*
X663120861Y-320895301D01*
X663120854Y-320895288D01*
X663025046Y-320751902D01*
X663025045Y-320751901D01*
X662903099Y-320629955D01*
X662268102Y-319994957D01*
X662268098Y-319994954D01*
X662124711Y-319899145D01*
X662124698Y-319899138D01*
X661965378Y-319833146D01*
X661965366Y-319833143D01*
X661796232Y-319799500D01*
X661796229Y-319799500D01*
X637453771Y-319799500D01*
X637453768Y-319799500D01*
X637284633Y-319833143D01*
X637284621Y-319833146D01*
X637125301Y-319899138D01*
X637125288Y-319899145D01*
X636981901Y-319994954D01*
X636981897Y-319994957D01*
X636081568Y-320895288D01*
X635831901Y-321144955D01*
X635770929Y-321205927D01*
X635709957Y-321266898D01*
X635657928Y-321344763D01*
X635627713Y-321376188D01*
X635510209Y-321461560D01*
X635371398Y-321600371D01*
X635310075Y-321633855D01*
X635240383Y-321628871D01*
X635184450Y-321586999D01*
X635178178Y-321577785D01*
X635082712Y-321423009D01*
X634958657Y-321298954D01*
X634958656Y-321298953D01*
X634809334Y-321206851D01*
X634642797Y-321151666D01*
X634642795Y-321151665D01*
X634540010Y-321141165D01*
X633239998Y-321141165D01*
X633239981Y-321141166D01*
X633137203Y-321151665D01*
X633137200Y-321151666D01*
X632970668Y-321206850D01*
X632970663Y-321206852D01*
X632821342Y-321298954D01*
X632697289Y-321423007D01*
X632605187Y-321572328D01*
X632605185Y-321572333D01*
X632586450Y-321628871D01*
X632550001Y-321738868D01*
X632550001Y-321738869D01*
X632550000Y-321738869D01*
X632539500Y-321841648D01*
X621530500Y-321841648D01*
X621530500Y-311881093D01*
X632539500Y-311881093D01*
X632539500Y-313431111D01*
X632539501Y-313431128D01*
X632550000Y-313533906D01*
X632550001Y-313533909D01*
X632605185Y-313700441D01*
X632605187Y-313700446D01*
X632640069Y-313756998D01*
X632697288Y-313849766D01*
X632821344Y-313973822D01*
X632970666Y-314065924D01*
X632987680Y-314071561D01*
X633045125Y-314111332D01*
X633063239Y-314141815D01*
X633114140Y-314264701D01*
X633114145Y-314264711D01*
X633209954Y-314408098D01*
X633209957Y-314408102D01*
X634441897Y-315640042D01*
X634441901Y-315640045D01*
X634585288Y-315735854D01*
X634585301Y-315735861D01*
X634744621Y-315801853D01*
X634744626Y-315801855D01*
X634913766Y-315835499D01*
X634913769Y-315835500D01*
X634913771Y-315835500D01*
X663701231Y-315835500D01*
X663701232Y-315835499D01*
X663870374Y-315801855D01*
X664029705Y-315735858D01*
X664173099Y-315640045D01*
X665411956Y-314401186D01*
X665473279Y-314367702D01*
X665493332Y-314365028D01*
X665494999Y-314364943D01*
X665495008Y-314364943D01*
X665495016Y-314364942D01*
X665495019Y-314364942D01*
X665551302Y-314359192D01*
X665597797Y-314354443D01*
X665764334Y-314299258D01*
X665913656Y-314207156D01*
X666037712Y-314083100D01*
X666129814Y-313933778D01*
X666184999Y-313767241D01*
X666195500Y-313664453D01*
X666195499Y-312114436D01*
X666184999Y-312011647D01*
X666129814Y-311845110D01*
X666037712Y-311695788D01*
X665913656Y-311571732D01*
X665798990Y-311501006D01*
X665764336Y-311479631D01*
X665764331Y-311479629D01*
X665738791Y-311471166D01*
X665597797Y-311424445D01*
X665597795Y-311424444D01*
X665495010Y-311413944D01*
X664194998Y-311413944D01*
X664194981Y-311413945D01*
X664092203Y-311424444D01*
X664092200Y-311424445D01*
X663925668Y-311479629D01*
X663925663Y-311479631D01*
X663776342Y-311571733D01*
X663652289Y-311695786D01*
X663556821Y-311850565D01*
X663504873Y-311897289D01*
X663435910Y-311908512D01*
X663371828Y-311880668D01*
X663363611Y-311873159D01*
X663254863Y-311764411D01*
X663221379Y-311703088D01*
X663220928Y-311700921D01*
X663205139Y-311621550D01*
X663186855Y-311529626D01*
X663186853Y-311529621D01*
X663120861Y-311370300D01*
X663120854Y-311370288D01*
X663025046Y-311226902D01*
X662978754Y-311180610D01*
X662903099Y-311104955D01*
X662270045Y-310471901D01*
X661633102Y-309834957D01*
X661633098Y-309834954D01*
X661489711Y-309739145D01*
X661489698Y-309739138D01*
X661330378Y-309673146D01*
X661330366Y-309673143D01*
X661161232Y-309639500D01*
X661161229Y-309639500D01*
X636991229Y-309639500D01*
X636818771Y-309639500D01*
X636818768Y-309639500D01*
X636649633Y-309673143D01*
X636649621Y-309673146D01*
X636490301Y-309739138D01*
X636490288Y-309739145D01*
X636346901Y-309834954D01*
X636346897Y-309834957D01*
X635831901Y-310349955D01*
X635770927Y-310410929D01*
X635709953Y-310471902D01*
X635614145Y-310615288D01*
X635614138Y-310615301D01*
X635548146Y-310774621D01*
X635548143Y-310774633D01*
X635514500Y-310943766D01*
X635514500Y-311445351D01*
X635494815Y-311512390D01*
X635478181Y-311533032D01*
X635371398Y-311639815D01*
X635310075Y-311673300D01*
X635240383Y-311668316D01*
X635184450Y-311626444D01*
X635178178Y-311617230D01*
X635082712Y-311462454D01*
X634958657Y-311338399D01*
X634958656Y-311338398D01*
X634809334Y-311246296D01*
X634642797Y-311191111D01*
X634642795Y-311191110D01*
X634540010Y-311180610D01*
X633239998Y-311180610D01*
X633239981Y-311180611D01*
X633137203Y-311191110D01*
X633137200Y-311191111D01*
X632970668Y-311246295D01*
X632970663Y-311246297D01*
X632821342Y-311338399D01*
X632697289Y-311462452D01*
X632605187Y-311611773D01*
X632605185Y-311611778D01*
X632600325Y-311626444D01*
X632550001Y-311778313D01*
X632550001Y-311778314D01*
X632550000Y-311778314D01*
X632539500Y-311881093D01*
X621530500Y-311881093D01*
X621530500Y-301920538D01*
X632539500Y-301920538D01*
X632539500Y-303470556D01*
X632539501Y-303470573D01*
X632550000Y-303573351D01*
X632550001Y-303573354D01*
X632599934Y-303724040D01*
X632605186Y-303739889D01*
X632697288Y-303889211D01*
X632821344Y-304013267D01*
X632970666Y-304105369D01*
X633068539Y-304137801D01*
X633115079Y-304153223D01*
X633172524Y-304192996D01*
X633179177Y-304202037D01*
X633209957Y-304248102D01*
X634954955Y-305993099D01*
X635076898Y-306115042D01*
X635076902Y-306115046D01*
X635220288Y-306210854D01*
X635220301Y-306210861D01*
X635379621Y-306276853D01*
X635379626Y-306276855D01*
X635548766Y-306310499D01*
X635548769Y-306310500D01*
X635548771Y-306310500D01*
X663701231Y-306310500D01*
X663701232Y-306310499D01*
X663870374Y-306276855D01*
X664029705Y-306210858D01*
X664173099Y-306115045D01*
X665525045Y-304763099D01*
X665594507Y-304659142D01*
X665620858Y-304619705D01*
X665686855Y-304460374D01*
X665719519Y-304296163D01*
X665751904Y-304234252D01*
X665776036Y-304214818D01*
X665913656Y-304129934D01*
X666037712Y-304005878D01*
X666129814Y-303856556D01*
X666184999Y-303690019D01*
X666195500Y-303587231D01*
X666195499Y-302037214D01*
X666184999Y-301934425D01*
X666129814Y-301767888D01*
X666037712Y-301618566D01*
X665913656Y-301494510D01*
X665764334Y-301402408D01*
X665597797Y-301347223D01*
X665597795Y-301347222D01*
X665495010Y-301336722D01*
X664194998Y-301336722D01*
X664194981Y-301336723D01*
X664092203Y-301347222D01*
X664092200Y-301347223D01*
X663925668Y-301402407D01*
X663925663Y-301402409D01*
X663776342Y-301494511D01*
X663652289Y-301618564D01*
X663556821Y-301773343D01*
X663504873Y-301820067D01*
X663435910Y-301831290D01*
X663371828Y-301803446D01*
X663363611Y-301795937D01*
X663256818Y-301689144D01*
X663223334Y-301627821D01*
X663220500Y-301601463D01*
X663220500Y-301538768D01*
X663220499Y-301538766D01*
X663203801Y-301454818D01*
X663186855Y-301369626D01*
X663178390Y-301349189D01*
X663120861Y-301210301D01*
X663120854Y-301210288D01*
X663025046Y-301066902D01*
X663025045Y-301066901D01*
X662903099Y-300944955D01*
X662783099Y-300824955D01*
X661633102Y-299674957D01*
X661633098Y-299674954D01*
X661489711Y-299579145D01*
X661489698Y-299579138D01*
X661330378Y-299513146D01*
X661330366Y-299513143D01*
X661161232Y-299479500D01*
X661161229Y-299479500D01*
X637453771Y-299479500D01*
X637453768Y-299479500D01*
X637284633Y-299513143D01*
X637284621Y-299513146D01*
X637125301Y-299579138D01*
X637125288Y-299579145D01*
X636981901Y-299674954D01*
X636981897Y-299674957D01*
X635831901Y-300824955D01*
X635770927Y-300885929D01*
X635709953Y-300946902D01*
X635614145Y-301090288D01*
X635614138Y-301090301D01*
X635548146Y-301249621D01*
X635548143Y-301249633D01*
X635514500Y-301418766D01*
X635514500Y-301484796D01*
X635494815Y-301551835D01*
X635478181Y-301572477D01*
X635371398Y-301679260D01*
X635310075Y-301712745D01*
X635240383Y-301707761D01*
X635184450Y-301665889D01*
X635178178Y-301656675D01*
X635082712Y-301501899D01*
X634958657Y-301377844D01*
X634958656Y-301377843D01*
X634809334Y-301285741D01*
X634642797Y-301230556D01*
X634642795Y-301230555D01*
X634540010Y-301220055D01*
X633239998Y-301220055D01*
X633239981Y-301220056D01*
X633137203Y-301230555D01*
X633137200Y-301230556D01*
X632970668Y-301285740D01*
X632970663Y-301285742D01*
X632821342Y-301377844D01*
X632697289Y-301501897D01*
X632605187Y-301651218D01*
X632605185Y-301651223D01*
X632592083Y-301690763D01*
X632550001Y-301817758D01*
X632550001Y-301817759D01*
X632550000Y-301817759D01*
X632539500Y-301920538D01*
X621530500Y-301920538D01*
X621530500Y-291959983D01*
X632539500Y-291959983D01*
X632539500Y-293510001D01*
X632539501Y-293510018D01*
X632550000Y-293612796D01*
X632550001Y-293612799D01*
X632586450Y-293722793D01*
X632605186Y-293779334D01*
X632697288Y-293928656D01*
X632821344Y-294052712D01*
X632970666Y-294144814D01*
X633137203Y-294199999D01*
X633239991Y-294210500D01*
X633280991Y-294210499D01*
X633348030Y-294230182D01*
X633368674Y-294246818D01*
X634954955Y-295833099D01*
X635076898Y-295955042D01*
X635076902Y-295955046D01*
X635220288Y-296050854D01*
X635220301Y-296050861D01*
X635379621Y-296116853D01*
X635379626Y-296116855D01*
X635548766Y-296150499D01*
X635548769Y-296150500D01*
X635548771Y-296150500D01*
X663701231Y-296150500D01*
X663701232Y-296150499D01*
X663870374Y-296116855D01*
X664029705Y-296050858D01*
X664173099Y-295955045D01*
X665525045Y-294603099D01*
X665594507Y-294499142D01*
X665620858Y-294459705D01*
X665686855Y-294300374D01*
X665700780Y-294230363D01*
X665733164Y-294168455D01*
X665759049Y-294150003D01*
X665758187Y-294148605D01*
X665764332Y-294144814D01*
X665764334Y-294144814D01*
X665913656Y-294052712D01*
X666037712Y-293928656D01*
X666129814Y-293779334D01*
X666184999Y-293612797D01*
X666195500Y-293510009D01*
X666195499Y-291959992D01*
X666184999Y-291857203D01*
X666129814Y-291690666D01*
X666037712Y-291541344D01*
X665913656Y-291417288D01*
X665764334Y-291325186D01*
X665597797Y-291270001D01*
X665597795Y-291270000D01*
X665495010Y-291259500D01*
X664194998Y-291259500D01*
X664194981Y-291259501D01*
X664092203Y-291270000D01*
X664092200Y-291270001D01*
X663925668Y-291325185D01*
X663925663Y-291325187D01*
X663776342Y-291417289D01*
X663652289Y-291541342D01*
X663556821Y-291696121D01*
X663504873Y-291742845D01*
X663435910Y-291754068D01*
X663371828Y-291726224D01*
X663363601Y-291718705D01*
X663224786Y-291579890D01*
X663052820Y-291454951D01*
X662863413Y-291358443D01*
X662859384Y-291357134D01*
X662810031Y-291326887D01*
X661633102Y-290149957D01*
X661633098Y-290149954D01*
X661489711Y-290054145D01*
X661489698Y-290054138D01*
X661330378Y-289988146D01*
X661330366Y-289988143D01*
X661161232Y-289954500D01*
X661161229Y-289954500D01*
X637453771Y-289954500D01*
X637453768Y-289954500D01*
X637284633Y-289988143D01*
X637284621Y-289988146D01*
X637125301Y-290054138D01*
X637125288Y-290054145D01*
X636981901Y-290149954D01*
X636981897Y-290149957D01*
X635831901Y-291299955D01*
X635709957Y-291421898D01*
X635709952Y-291421904D01*
X635705536Y-291428513D01*
X635675324Y-291459932D01*
X635510215Y-291579889D01*
X635371398Y-291718706D01*
X635310075Y-291752190D01*
X635240383Y-291747206D01*
X635184450Y-291705334D01*
X635178178Y-291696120D01*
X635082712Y-291541344D01*
X634958657Y-291417289D01*
X634958656Y-291417288D01*
X634809334Y-291325186D01*
X634642797Y-291270001D01*
X634642795Y-291270000D01*
X634540010Y-291259500D01*
X633239998Y-291259500D01*
X633239981Y-291259501D01*
X633137203Y-291270000D01*
X633137200Y-291270001D01*
X632970668Y-291325185D01*
X632970663Y-291325187D01*
X632821342Y-291417289D01*
X632697289Y-291541342D01*
X632605187Y-291690663D01*
X632605185Y-291690668D01*
X632586450Y-291747206D01*
X632550001Y-291857203D01*
X632550001Y-291857204D01*
X632550000Y-291857204D01*
X632539500Y-291959983D01*
X621530500Y-291959983D01*
X621530500Y-275694983D01*
X633524500Y-275694983D01*
X633524500Y-276995001D01*
X633524501Y-276995018D01*
X633535000Y-277097796D01*
X633535001Y-277097799D01*
X633590185Y-277264331D01*
X633590187Y-277264336D01*
X633682289Y-277413657D01*
X633806344Y-277537712D01*
X633961120Y-277633178D01*
X634007845Y-277685126D01*
X634019068Y-277754088D01*
X633991224Y-277818171D01*
X633983706Y-277826398D01*
X633844889Y-277965215D01*
X633719951Y-278137179D01*
X633623444Y-278326585D01*
X633557753Y-278528760D01*
X633524500Y-278738713D01*
X633524500Y-278951286D01*
X633557753Y-279161239D01*
X633623444Y-279363414D01*
X633719951Y-279552820D01*
X633844890Y-279724786D01*
X633995209Y-279875105D01*
X633995214Y-279875109D01*
X634159793Y-279994682D01*
X634202459Y-280050011D01*
X634208438Y-280119625D01*
X634175833Y-280181420D01*
X634159793Y-280195318D01*
X633995214Y-280314890D01*
X633995209Y-280314894D01*
X633844890Y-280465213D01*
X633719951Y-280637179D01*
X633623444Y-280826585D01*
X633557753Y-281028760D01*
X633524500Y-281238713D01*
X633524500Y-281451286D01*
X633557753Y-281661239D01*
X633623444Y-281863414D01*
X633719951Y-282052820D01*
X633844890Y-282224786D01*
X633995209Y-282375105D01*
X633995214Y-282375109D01*
X634159793Y-282494682D01*
X634202459Y-282550011D01*
X634208438Y-282619625D01*
X634175833Y-282681420D01*
X634159793Y-282695318D01*
X633995214Y-282814890D01*
X633995209Y-282814894D01*
X633844890Y-282965213D01*
X633719951Y-283137179D01*
X633623444Y-283326585D01*
X633557753Y-283528760D01*
X633524500Y-283738713D01*
X633524500Y-283951286D01*
X633557753Y-284161239D01*
X633623444Y-284363414D01*
X633719951Y-284552820D01*
X633844890Y-284724786D01*
X633995213Y-284875109D01*
X634167179Y-285000048D01*
X634167181Y-285000049D01*
X634167184Y-285000051D01*
X634356588Y-285096557D01*
X634558757Y-285162246D01*
X634768713Y-285195500D01*
X634768714Y-285195500D01*
X635231286Y-285195500D01*
X635231287Y-285195500D01*
X635441243Y-285162246D01*
X635572226Y-285119686D01*
X635627988Y-285101569D01*
X635666306Y-285095500D01*
X664178694Y-285095500D01*
X664217012Y-285101569D01*
X664289788Y-285125215D01*
X664403757Y-285162246D01*
X664613713Y-285195500D01*
X664613714Y-285195500D01*
X665076286Y-285195500D01*
X665076287Y-285195500D01*
X665286243Y-285162246D01*
X665488412Y-285096557D01*
X665677816Y-285000051D01*
X665699789Y-284984086D01*
X665849786Y-284875109D01*
X665849788Y-284875106D01*
X665849792Y-284875104D01*
X666000104Y-284724792D01*
X666000106Y-284724788D01*
X666000109Y-284724786D01*
X666125048Y-284552820D01*
X666125047Y-284552820D01*
X666125051Y-284552816D01*
X666221557Y-284363412D01*
X666287246Y-284161243D01*
X666320500Y-283951287D01*
X666320500Y-283738713D01*
X666287246Y-283528757D01*
X666221557Y-283326588D01*
X666125051Y-283137184D01*
X666125049Y-283137181D01*
X666125048Y-283137179D01*
X666000109Y-282965213D01*
X665849792Y-282814896D01*
X665849784Y-282814890D01*
X665685204Y-282695316D01*
X665642540Y-282639989D01*
X665636561Y-282570376D01*
X665669166Y-282508580D01*
X665685199Y-282494686D01*
X665849792Y-282375104D01*
X666000104Y-282224792D01*
X666000106Y-282224788D01*
X666000109Y-282224786D01*
X666125048Y-282052820D01*
X666125047Y-282052820D01*
X666125051Y-282052816D01*
X666221557Y-281863412D01*
X666287246Y-281661243D01*
X666320500Y-281451287D01*
X666320500Y-281238713D01*
X666287246Y-281028757D01*
X666221557Y-280826588D01*
X666125051Y-280637184D01*
X666125049Y-280637181D01*
X666125048Y-280637179D01*
X666000109Y-280465213D01*
X665849792Y-280314896D01*
X665849784Y-280314890D01*
X665685204Y-280195316D01*
X665642540Y-280139989D01*
X665636561Y-280070376D01*
X665669166Y-280008580D01*
X665685199Y-279994686D01*
X665849792Y-279875104D01*
X666000104Y-279724792D01*
X666000106Y-279724788D01*
X666000109Y-279724786D01*
X666125048Y-279552820D01*
X666125047Y-279552820D01*
X666125051Y-279552816D01*
X666221557Y-279363412D01*
X666287246Y-279161243D01*
X666320500Y-278951287D01*
X666320500Y-278738713D01*
X666287246Y-278528757D01*
X666221557Y-278326588D01*
X666125051Y-278137184D01*
X666125049Y-278137181D01*
X666125048Y-278137179D01*
X666000109Y-277965213D01*
X665861294Y-277826398D01*
X665827809Y-277765075D01*
X665832793Y-277695383D01*
X665874665Y-277639450D01*
X665883879Y-277633178D01*
X665889331Y-277629814D01*
X665889334Y-277629814D01*
X666038656Y-277537712D01*
X666162712Y-277413656D01*
X666254814Y-277264334D01*
X666309999Y-277097797D01*
X666320500Y-276995009D01*
X666320499Y-275694992D01*
X666309999Y-275592203D01*
X666254814Y-275425666D01*
X666162712Y-275276344D01*
X666038656Y-275152288D01*
X665889334Y-275060186D01*
X665722797Y-275005001D01*
X665722795Y-275005000D01*
X665620010Y-274994500D01*
X664069998Y-274994500D01*
X664069981Y-274994501D01*
X663967203Y-275005000D01*
X663967200Y-275005001D01*
X663800668Y-275060185D01*
X663800663Y-275060187D01*
X663784933Y-275069889D01*
X663774963Y-275076039D01*
X663709868Y-275094500D01*
X636135132Y-275094500D01*
X636070036Y-275076039D01*
X636044334Y-275060186D01*
X635877797Y-275005001D01*
X635877795Y-275005000D01*
X635775010Y-274994500D01*
X634224998Y-274994500D01*
X634224981Y-274994501D01*
X634122203Y-275005000D01*
X634122200Y-275005001D01*
X633955668Y-275060185D01*
X633955663Y-275060187D01*
X633806342Y-275152289D01*
X633682289Y-275276342D01*
X633590187Y-275425663D01*
X633590186Y-275425666D01*
X633535001Y-275592203D01*
X633535001Y-275592204D01*
X633535000Y-275592204D01*
X633524500Y-275694983D01*
X621530500Y-275694983D01*
X621530500Y-259064983D01*
X633524500Y-259064983D01*
X633524500Y-260365001D01*
X633524501Y-260365018D01*
X633535000Y-260467796D01*
X633535001Y-260467799D01*
X633590185Y-260634331D01*
X633590187Y-260634336D01*
X633682289Y-260783657D01*
X633806344Y-260907712D01*
X633961120Y-261003178D01*
X634007845Y-261055126D01*
X634019068Y-261124088D01*
X633991224Y-261188171D01*
X633983706Y-261196398D01*
X633844889Y-261335215D01*
X633719951Y-261507179D01*
X633623444Y-261696585D01*
X633557753Y-261898760D01*
X633524500Y-262108713D01*
X633524500Y-262321286D01*
X633557753Y-262531239D01*
X633623444Y-262733414D01*
X633719951Y-262922820D01*
X633844890Y-263094786D01*
X633995209Y-263245105D01*
X633995214Y-263245109D01*
X634159793Y-263364682D01*
X634202459Y-263420011D01*
X634208438Y-263489625D01*
X634175833Y-263551420D01*
X634159793Y-263565318D01*
X633995214Y-263684890D01*
X633995209Y-263684894D01*
X633844890Y-263835213D01*
X633719951Y-264007179D01*
X633623444Y-264196585D01*
X633557753Y-264398760D01*
X633524500Y-264608713D01*
X633524500Y-264821286D01*
X633557753Y-265031239D01*
X633623444Y-265233414D01*
X633719951Y-265422820D01*
X633844890Y-265594786D01*
X633995209Y-265745105D01*
X633995214Y-265745109D01*
X634159793Y-265864682D01*
X634202459Y-265920011D01*
X634208438Y-265989625D01*
X634175833Y-266051420D01*
X634159793Y-266065318D01*
X633995214Y-266184890D01*
X633995209Y-266184894D01*
X633844890Y-266335213D01*
X633719951Y-266507179D01*
X633623444Y-266696585D01*
X633557753Y-266898760D01*
X633524500Y-267108713D01*
X633524500Y-267321286D01*
X633557753Y-267531239D01*
X633623444Y-267733414D01*
X633719951Y-267922820D01*
X633844890Y-268094786D01*
X633995213Y-268245109D01*
X634167179Y-268370048D01*
X634167181Y-268370049D01*
X634167184Y-268370051D01*
X634356588Y-268466557D01*
X634558757Y-268532246D01*
X634768713Y-268565500D01*
X634768714Y-268565500D01*
X635231286Y-268565500D01*
X635231287Y-268565500D01*
X635441243Y-268532246D01*
X635572226Y-268489686D01*
X635627988Y-268471569D01*
X635666306Y-268465500D01*
X664178694Y-268465500D01*
X664217012Y-268471569D01*
X664289788Y-268495215D01*
X664403757Y-268532246D01*
X664613713Y-268565500D01*
X664613714Y-268565500D01*
X665076286Y-268565500D01*
X665076287Y-268565500D01*
X665286243Y-268532246D01*
X665488412Y-268466557D01*
X665677816Y-268370051D01*
X665699789Y-268354086D01*
X665849786Y-268245109D01*
X665849788Y-268245106D01*
X665849792Y-268245104D01*
X666000104Y-268094792D01*
X666000106Y-268094788D01*
X666000109Y-268094786D01*
X666125048Y-267922820D01*
X666125047Y-267922820D01*
X666125051Y-267922816D01*
X666221557Y-267733412D01*
X666287246Y-267531243D01*
X666320500Y-267321287D01*
X666320500Y-267108713D01*
X666287246Y-266898757D01*
X666221557Y-266696588D01*
X666125051Y-266507184D01*
X666125049Y-266507181D01*
X666125048Y-266507179D01*
X666000109Y-266335213D01*
X665849792Y-266184896D01*
X665849784Y-266184890D01*
X665685204Y-266065316D01*
X665642540Y-266009989D01*
X665636561Y-265940376D01*
X665669166Y-265878580D01*
X665685199Y-265864686D01*
X665849792Y-265745104D01*
X666000104Y-265594792D01*
X666000106Y-265594788D01*
X666000109Y-265594786D01*
X666125048Y-265422820D01*
X666125047Y-265422820D01*
X666125051Y-265422816D01*
X666221557Y-265233412D01*
X666287246Y-265031243D01*
X666320500Y-264821287D01*
X666320500Y-264608713D01*
X666287246Y-264398757D01*
X666221557Y-264196588D01*
X666125051Y-264007184D01*
X666125049Y-264007181D01*
X666125048Y-264007179D01*
X666000109Y-263835213D01*
X665849792Y-263684896D01*
X665849784Y-263684890D01*
X665685204Y-263565316D01*
X665642540Y-263509989D01*
X665636561Y-263440376D01*
X665669166Y-263378580D01*
X665685199Y-263364686D01*
X665849792Y-263245104D01*
X666000104Y-263094792D01*
X666000106Y-263094788D01*
X666000109Y-263094786D01*
X666125048Y-262922820D01*
X666125047Y-262922820D01*
X666125051Y-262922816D01*
X666221557Y-262733412D01*
X666287246Y-262531243D01*
X666320500Y-262321287D01*
X666320500Y-262108713D01*
X666287246Y-261898757D01*
X666221557Y-261696588D01*
X666125051Y-261507184D01*
X666125049Y-261507181D01*
X666125048Y-261507179D01*
X666000109Y-261335213D01*
X665861294Y-261196398D01*
X665827809Y-261135075D01*
X665832793Y-261065383D01*
X665874665Y-261009450D01*
X665883879Y-261003178D01*
X665889331Y-260999814D01*
X665889334Y-260999814D01*
X666038656Y-260907712D01*
X666162712Y-260783656D01*
X666254814Y-260634334D01*
X666309999Y-260467797D01*
X666320500Y-260365009D01*
X666320499Y-259064992D01*
X666309999Y-258962203D01*
X666254814Y-258795666D01*
X666162712Y-258646344D01*
X666038656Y-258522288D01*
X665889334Y-258430186D01*
X665722797Y-258375001D01*
X665722795Y-258375000D01*
X665620010Y-258364500D01*
X664069998Y-258364500D01*
X664069981Y-258364501D01*
X663967203Y-258375000D01*
X663967200Y-258375001D01*
X663800668Y-258430185D01*
X663800663Y-258430187D01*
X663784933Y-258439889D01*
X663774963Y-258446039D01*
X663709868Y-258464500D01*
X636135132Y-258464500D01*
X636070036Y-258446039D01*
X636044334Y-258430186D01*
X635877797Y-258375001D01*
X635877795Y-258375000D01*
X635775010Y-258364500D01*
X634224998Y-258364500D01*
X634224981Y-258364501D01*
X634122203Y-258375000D01*
X634122200Y-258375001D01*
X633955668Y-258430185D01*
X633955663Y-258430187D01*
X633806342Y-258522289D01*
X633682289Y-258646342D01*
X633590187Y-258795663D01*
X633590186Y-258795666D01*
X633535001Y-258962203D01*
X633535001Y-258962204D01*
X633535000Y-258962204D01*
X633524500Y-259064983D01*
X621530500Y-259064983D01*
X621530500Y-243269983D01*
X633524500Y-243269983D01*
X633524500Y-244570001D01*
X633524501Y-244570018D01*
X633535000Y-244672796D01*
X633535001Y-244672799D01*
X633590185Y-244839331D01*
X633590187Y-244839336D01*
X633682289Y-244988657D01*
X633806344Y-245112712D01*
X633961120Y-245208178D01*
X634007845Y-245260126D01*
X634019068Y-245329088D01*
X633991224Y-245393171D01*
X633983706Y-245401398D01*
X633844889Y-245540215D01*
X633719951Y-245712179D01*
X633623444Y-245901585D01*
X633557753Y-246103760D01*
X633524500Y-246313713D01*
X633524500Y-246526286D01*
X633557753Y-246736239D01*
X633623444Y-246938414D01*
X633719951Y-247127820D01*
X633844890Y-247299786D01*
X633995209Y-247450105D01*
X633995214Y-247450109D01*
X634159793Y-247569682D01*
X634202459Y-247625011D01*
X634208438Y-247694625D01*
X634175833Y-247756420D01*
X634159793Y-247770318D01*
X633995214Y-247889890D01*
X633995209Y-247889894D01*
X633844890Y-248040213D01*
X633719951Y-248212179D01*
X633623444Y-248401585D01*
X633557753Y-248603760D01*
X633524500Y-248813713D01*
X633524500Y-249026286D01*
X633557753Y-249236239D01*
X633623444Y-249438414D01*
X633719951Y-249627820D01*
X633844890Y-249799786D01*
X633995209Y-249950105D01*
X633995214Y-249950109D01*
X634159793Y-250069682D01*
X634202459Y-250125011D01*
X634208438Y-250194625D01*
X634175833Y-250256420D01*
X634159793Y-250270318D01*
X633995214Y-250389890D01*
X633995209Y-250389894D01*
X633844890Y-250540213D01*
X633719951Y-250712179D01*
X633623444Y-250901585D01*
X633557753Y-251103760D01*
X633524500Y-251313713D01*
X633524500Y-251526286D01*
X633557753Y-251736239D01*
X633623444Y-251938414D01*
X633719951Y-252127820D01*
X633844890Y-252299786D01*
X633995213Y-252450109D01*
X634167179Y-252575048D01*
X634167181Y-252575049D01*
X634167184Y-252575051D01*
X634356588Y-252671557D01*
X634558757Y-252737246D01*
X634768713Y-252770500D01*
X634768714Y-252770500D01*
X635231286Y-252770500D01*
X635231287Y-252770500D01*
X635441243Y-252737246D01*
X635572226Y-252694686D01*
X635627988Y-252676569D01*
X635666306Y-252670500D01*
X664178694Y-252670500D01*
X664217012Y-252676569D01*
X664289788Y-252700215D01*
X664403757Y-252737246D01*
X664613713Y-252770500D01*
X664613714Y-252770500D01*
X665076286Y-252770500D01*
X665076287Y-252770500D01*
X665286243Y-252737246D01*
X665488412Y-252671557D01*
X665677816Y-252575051D01*
X665699789Y-252559086D01*
X665849786Y-252450109D01*
X665849788Y-252450106D01*
X665849792Y-252450104D01*
X666000104Y-252299792D01*
X666000106Y-252299788D01*
X666000109Y-252299786D01*
X666125048Y-252127820D01*
X666125047Y-252127820D01*
X666125051Y-252127816D01*
X666221557Y-251938412D01*
X666287246Y-251736243D01*
X666320500Y-251526287D01*
X666320500Y-251313713D01*
X666287246Y-251103757D01*
X666221557Y-250901588D01*
X666125051Y-250712184D01*
X666125049Y-250712181D01*
X666125048Y-250712179D01*
X666000109Y-250540213D01*
X665849792Y-250389896D01*
X665849784Y-250389890D01*
X665685204Y-250270316D01*
X665642540Y-250214989D01*
X665636561Y-250145376D01*
X665669166Y-250083580D01*
X665685199Y-250069686D01*
X665849792Y-249950104D01*
X666000104Y-249799792D01*
X666000106Y-249799788D01*
X666000109Y-249799786D01*
X666125048Y-249627820D01*
X666125047Y-249627820D01*
X666125051Y-249627816D01*
X666221557Y-249438412D01*
X666287246Y-249236243D01*
X666320500Y-249026287D01*
X666320500Y-248813713D01*
X666287246Y-248603757D01*
X666221557Y-248401588D01*
X666125051Y-248212184D01*
X666125049Y-248212181D01*
X666125048Y-248212179D01*
X666000109Y-248040213D01*
X665849792Y-247889896D01*
X665849784Y-247889890D01*
X665685204Y-247770316D01*
X665642540Y-247714989D01*
X665636561Y-247645376D01*
X665669166Y-247583580D01*
X665685199Y-247569686D01*
X665849792Y-247450104D01*
X666000104Y-247299792D01*
X666000106Y-247299788D01*
X666000109Y-247299786D01*
X666125048Y-247127820D01*
X666125047Y-247127820D01*
X666125051Y-247127816D01*
X666221557Y-246938412D01*
X666287246Y-246736243D01*
X666320500Y-246526287D01*
X666320500Y-246313713D01*
X666287246Y-246103757D01*
X666221557Y-245901588D01*
X666125051Y-245712184D01*
X666125049Y-245712181D01*
X666125048Y-245712179D01*
X666000109Y-245540213D01*
X665861294Y-245401398D01*
X665827809Y-245340075D01*
X665832793Y-245270383D01*
X665874665Y-245214450D01*
X665883879Y-245208178D01*
X665889331Y-245204814D01*
X665889334Y-245204814D01*
X666038656Y-245112712D01*
X666162712Y-244988656D01*
X666254814Y-244839334D01*
X666309999Y-244672797D01*
X666320500Y-244570009D01*
X666320499Y-243269992D01*
X666309999Y-243167203D01*
X666254814Y-243000666D01*
X666162712Y-242851344D01*
X666038656Y-242727288D01*
X665889334Y-242635186D01*
X665722797Y-242580001D01*
X665722795Y-242580000D01*
X665620010Y-242569500D01*
X664069998Y-242569500D01*
X664069981Y-242569501D01*
X663967203Y-242580000D01*
X663967200Y-242580001D01*
X663800668Y-242635185D01*
X663800663Y-242635187D01*
X663784933Y-242644889D01*
X663774963Y-242651039D01*
X663709868Y-242669500D01*
X636135132Y-242669500D01*
X636070036Y-242651039D01*
X636044334Y-242635186D01*
X635877797Y-242580001D01*
X635877795Y-242580000D01*
X635775010Y-242569500D01*
X634224998Y-242569500D01*
X634224981Y-242569501D01*
X634122203Y-242580000D01*
X634122200Y-242580001D01*
X633955668Y-242635185D01*
X633955663Y-242635187D01*
X633806342Y-242727289D01*
X633682289Y-242851342D01*
X633590187Y-243000663D01*
X633590186Y-243000666D01*
X633535001Y-243167203D01*
X633535001Y-243167204D01*
X633535000Y-243167204D01*
X633524500Y-243269983D01*
X621530500Y-243269983D01*
X621530500Y-227314983D01*
X633524500Y-227314983D01*
X633524500Y-228615001D01*
X633524501Y-228615018D01*
X633535000Y-228717796D01*
X633535001Y-228717799D01*
X633590185Y-228884331D01*
X633590187Y-228884336D01*
X633682289Y-229033657D01*
X633806344Y-229157712D01*
X633961120Y-229253178D01*
X634007845Y-229305126D01*
X634019068Y-229374088D01*
X633991224Y-229438171D01*
X633983706Y-229446398D01*
X633844889Y-229585215D01*
X633719951Y-229757179D01*
X633623444Y-229946585D01*
X633557753Y-230148760D01*
X633524500Y-230358713D01*
X633524500Y-230571286D01*
X633557753Y-230781239D01*
X633623444Y-230983414D01*
X633719951Y-231172820D01*
X633844890Y-231344786D01*
X633995209Y-231495105D01*
X633995214Y-231495109D01*
X634159793Y-231614682D01*
X634202459Y-231670011D01*
X634208438Y-231739625D01*
X634175833Y-231801420D01*
X634159793Y-231815318D01*
X633995214Y-231934890D01*
X633995209Y-231934894D01*
X633844890Y-232085213D01*
X633719951Y-232257179D01*
X633623444Y-232446585D01*
X633557753Y-232648760D01*
X633524500Y-232858713D01*
X633524500Y-233071286D01*
X633557753Y-233281239D01*
X633623444Y-233483414D01*
X633719951Y-233672820D01*
X633844890Y-233844786D01*
X633995209Y-233995105D01*
X633995214Y-233995109D01*
X634159793Y-234114682D01*
X634202459Y-234170011D01*
X634208438Y-234239625D01*
X634175833Y-234301420D01*
X634159793Y-234315318D01*
X633995214Y-234434890D01*
X633995209Y-234434894D01*
X633844890Y-234585213D01*
X633719951Y-234757179D01*
X633623444Y-234946585D01*
X633557753Y-235148760D01*
X633524500Y-235358713D01*
X633524500Y-235571286D01*
X633557753Y-235781239D01*
X633623444Y-235983414D01*
X633719951Y-236172820D01*
X633844890Y-236344786D01*
X633995213Y-236495109D01*
X634167179Y-236620048D01*
X634167181Y-236620049D01*
X634167184Y-236620051D01*
X634356588Y-236716557D01*
X634558757Y-236782246D01*
X634768713Y-236815500D01*
X634768714Y-236815500D01*
X635231286Y-236815500D01*
X635231287Y-236815500D01*
X635441243Y-236782246D01*
X635572226Y-236739686D01*
X635627988Y-236721569D01*
X635666306Y-236715500D01*
X664178694Y-236715500D01*
X664217012Y-236721569D01*
X664289788Y-236745215D01*
X664403757Y-236782246D01*
X664613713Y-236815500D01*
X664613714Y-236815500D01*
X665076286Y-236815500D01*
X665076287Y-236815500D01*
X665286243Y-236782246D01*
X665488412Y-236716557D01*
X665677816Y-236620051D01*
X665699789Y-236604086D01*
X665849786Y-236495109D01*
X665849788Y-236495106D01*
X665849792Y-236495104D01*
X666000104Y-236344792D01*
X666000106Y-236344788D01*
X666000109Y-236344786D01*
X666125048Y-236172820D01*
X666125047Y-236172820D01*
X666125051Y-236172816D01*
X666221557Y-235983412D01*
X666287246Y-235781243D01*
X666320500Y-235571287D01*
X666320500Y-235358713D01*
X666287246Y-235148757D01*
X666221557Y-234946588D01*
X666125051Y-234757184D01*
X666125049Y-234757181D01*
X666125048Y-234757179D01*
X666000109Y-234585213D01*
X665849792Y-234434896D01*
X665849784Y-234434890D01*
X665685204Y-234315316D01*
X665642540Y-234259989D01*
X665636561Y-234190376D01*
X665669166Y-234128580D01*
X665685199Y-234114686D01*
X665849792Y-233995104D01*
X666000104Y-233844792D01*
X666000106Y-233844788D01*
X666000109Y-233844786D01*
X666125048Y-233672820D01*
X666125047Y-233672820D01*
X666125051Y-233672816D01*
X666221557Y-233483412D01*
X666287246Y-233281243D01*
X666320500Y-233071287D01*
X666320500Y-232858713D01*
X666287246Y-232648757D01*
X666221557Y-232446588D01*
X666125051Y-232257184D01*
X666125049Y-232257181D01*
X666125048Y-232257179D01*
X666000109Y-232085213D01*
X665849792Y-231934896D01*
X665849784Y-231934890D01*
X665685204Y-231815316D01*
X665642540Y-231759989D01*
X665636561Y-231690376D01*
X665669166Y-231628580D01*
X665685199Y-231614686D01*
X665849792Y-231495104D01*
X666000104Y-231344792D01*
X666000106Y-231344788D01*
X666000109Y-231344786D01*
X666125048Y-231172820D01*
X666125047Y-231172820D01*
X666125051Y-231172816D01*
X666221557Y-230983412D01*
X666287246Y-230781243D01*
X666320500Y-230571287D01*
X666320500Y-230358713D01*
X666287246Y-230148757D01*
X666221557Y-229946588D01*
X666125051Y-229757184D01*
X666125049Y-229757181D01*
X666125048Y-229757179D01*
X666000109Y-229585213D01*
X665861294Y-229446398D01*
X665827809Y-229385075D01*
X665832793Y-229315383D01*
X665874665Y-229259450D01*
X665883879Y-229253178D01*
X665889331Y-229249814D01*
X665889334Y-229249814D01*
X666038656Y-229157712D01*
X666162712Y-229033656D01*
X666254814Y-228884334D01*
X666309999Y-228717797D01*
X666320500Y-228615009D01*
X666320499Y-227314992D01*
X666309999Y-227212203D01*
X666254814Y-227045666D01*
X666162712Y-226896344D01*
X666038656Y-226772288D01*
X665889334Y-226680186D01*
X665722797Y-226625001D01*
X665722795Y-226625000D01*
X665620010Y-226614500D01*
X664069998Y-226614500D01*
X664069981Y-226614501D01*
X663967203Y-226625000D01*
X663967200Y-226625001D01*
X663800668Y-226680185D01*
X663800663Y-226680187D01*
X663784933Y-226689889D01*
X663774963Y-226696039D01*
X663709868Y-226714500D01*
X636135132Y-226714500D01*
X636070036Y-226696039D01*
X636044334Y-226680186D01*
X635877797Y-226625001D01*
X635877795Y-226625000D01*
X635775010Y-226614500D01*
X634224998Y-226614500D01*
X634224981Y-226614501D01*
X634122203Y-226625000D01*
X634122200Y-226625001D01*
X633955668Y-226680185D01*
X633955663Y-226680187D01*
X633806342Y-226772289D01*
X633682289Y-226896342D01*
X633590187Y-227045663D01*
X633590186Y-227045666D01*
X633535001Y-227212203D01*
X633535001Y-227212204D01*
X633535000Y-227212204D01*
X633524500Y-227314983D01*
X621530500Y-227314983D01*
X621530500Y-222128711D01*
X647754500Y-222128711D01*
X647754500Y-222371288D01*
X647786161Y-222611785D01*
X647848947Y-222846104D01*
X647941773Y-223070205D01*
X647941776Y-223070212D01*
X648063064Y-223280289D01*
X648063066Y-223280292D01*
X648063067Y-223280293D01*
X648210733Y-223472736D01*
X648210739Y-223472743D01*
X648382256Y-223644260D01*
X648382262Y-223644265D01*
X648574711Y-223791936D01*
X648784788Y-223913224D01*
X649008900Y-224006054D01*
X649243211Y-224068838D01*
X649423586Y-224092584D01*
X649483711Y-224100500D01*
X649483712Y-224100500D01*
X649726289Y-224100500D01*
X649774388Y-224094167D01*
X649966789Y-224068838D01*
X650201100Y-224006054D01*
X650425212Y-223913224D01*
X650635289Y-223791936D01*
X650827738Y-223644265D01*
X650999265Y-223472738D01*
X651146936Y-223280289D01*
X651268224Y-223070212D01*
X651361054Y-222846100D01*
X651423838Y-222611789D01*
X651455500Y-222371288D01*
X651455500Y-222128712D01*
X651423838Y-221888211D01*
X651361054Y-221653900D01*
X651268224Y-221429788D01*
X651146936Y-221219711D01*
X650999265Y-221027262D01*
X650999260Y-221027256D01*
X650827743Y-220855739D01*
X650827736Y-220855733D01*
X650635293Y-220708067D01*
X650635292Y-220708066D01*
X650635289Y-220708064D01*
X650425212Y-220586776D01*
X650425205Y-220586773D01*
X650201104Y-220493947D01*
X649966785Y-220431161D01*
X649726289Y-220399500D01*
X649726288Y-220399500D01*
X649483712Y-220399500D01*
X649483711Y-220399500D01*
X649243214Y-220431161D01*
X649008895Y-220493947D01*
X648784794Y-220586773D01*
X648784785Y-220586777D01*
X648574706Y-220708067D01*
X648382263Y-220855733D01*
X648382256Y-220855739D01*
X648210739Y-221027256D01*
X648210733Y-221027263D01*
X648063067Y-221219706D01*
X647941777Y-221429785D01*
X647941773Y-221429794D01*
X647848947Y-221653895D01*
X647786161Y-221888214D01*
X647754500Y-222128711D01*
X621530500Y-222128711D01*
X621530500Y-215889500D01*
X621550185Y-215822461D01*
X621602989Y-215776706D01*
X621654500Y-215765500D01*
X676920500Y-215765500D01*
X676987539Y-215785185D01*
G37*
%TD.AperFunction*%
%TA.AperFunction,NonConductor*%
G36*
X663494615Y-293722793D02*
G01*
X663550549Y-293764664D01*
X663556821Y-293773879D01*
X663627869Y-293889067D01*
X663646309Y-293956459D01*
X663625386Y-294023123D01*
X663610011Y-294041844D01*
X663288675Y-294363181D01*
X663227352Y-294396666D01*
X663200994Y-294399500D01*
X662760119Y-294399500D01*
X662693080Y-294379815D01*
X662647325Y-294327011D01*
X662637381Y-294257853D01*
X662666406Y-294194297D01*
X662721799Y-294157569D01*
X662863412Y-294111557D01*
X663052816Y-294015051D01*
X663224792Y-293890104D01*
X663363604Y-293751291D01*
X663424923Y-293717809D01*
X663494615Y-293722793D01*
G37*
%TD.AperFunction*%
%TA.AperFunction,NonConductor*%
G36*
X661181420Y-293559166D02*
G01*
X661195313Y-293575199D01*
X661298925Y-293717809D01*
X661314896Y-293739792D01*
X661465213Y-293890109D01*
X661637179Y-294015048D01*
X661637181Y-294015049D01*
X661637184Y-294015051D01*
X661826588Y-294111557D01*
X661968200Y-294157569D01*
X662025875Y-294197007D01*
X662053073Y-294261365D01*
X662041158Y-294330211D01*
X661993914Y-294381687D01*
X661929881Y-294399500D01*
X660260119Y-294399500D01*
X660193080Y-294379815D01*
X660147325Y-294327011D01*
X660137381Y-294257853D01*
X660166406Y-294194297D01*
X660221799Y-294157569D01*
X660363412Y-294111557D01*
X660552816Y-294015051D01*
X660633462Y-293956459D01*
X660724786Y-293890109D01*
X660724788Y-293890106D01*
X660724792Y-293890104D01*
X660875104Y-293739792D01*
X660994683Y-293575204D01*
X661050011Y-293532540D01*
X661119624Y-293526561D01*
X661181420Y-293559166D01*
G37*
%TD.AperFunction*%
%TA.AperFunction,NonConductor*%
G36*
X658724818Y-293630185D02*
G01*
X658758097Y-293661615D01*
X658814892Y-293739788D01*
X658965213Y-293890109D01*
X659137179Y-294015048D01*
X659137181Y-294015049D01*
X659137184Y-294015051D01*
X659326588Y-294111557D01*
X659468200Y-294157569D01*
X659525875Y-294197007D01*
X659553073Y-294261365D01*
X659541158Y-294330211D01*
X659493914Y-294381687D01*
X659429881Y-294399500D01*
X639305119Y-294399500D01*
X639238080Y-294379815D01*
X639192325Y-294327011D01*
X639182381Y-294257853D01*
X639211406Y-294194297D01*
X639266799Y-294157569D01*
X639408412Y-294111557D01*
X639597816Y-294015051D01*
X639678462Y-293956459D01*
X639769786Y-293890109D01*
X639769788Y-293890106D01*
X639769792Y-293890104D01*
X639920104Y-293739792D01*
X639920107Y-293739788D01*
X639976903Y-293661615D01*
X640032233Y-293618949D01*
X640077221Y-293610500D01*
X658657779Y-293610500D01*
X658724818Y-293630185D01*
G37*
%TD.AperFunction*%
%TA.AperFunction,NonConductor*%
G36*
X637726420Y-293559166D02*
G01*
X637740313Y-293575199D01*
X637843925Y-293717809D01*
X637859896Y-293739792D01*
X638010213Y-293890109D01*
X638182179Y-294015048D01*
X638182181Y-294015049D01*
X638182184Y-294015051D01*
X638371588Y-294111557D01*
X638513200Y-294157569D01*
X638570875Y-294197007D01*
X638598073Y-294261365D01*
X638586158Y-294330211D01*
X638538914Y-294381687D01*
X638474881Y-294399500D01*
X636805119Y-294399500D01*
X636738080Y-294379815D01*
X636692325Y-294327011D01*
X636682381Y-294257853D01*
X636711406Y-294194297D01*
X636766799Y-294157569D01*
X636908412Y-294111557D01*
X637097816Y-294015051D01*
X637178462Y-293956459D01*
X637269786Y-293890109D01*
X637269788Y-293890106D01*
X637269792Y-293890104D01*
X637420104Y-293739792D01*
X637539683Y-293575204D01*
X637595011Y-293532540D01*
X637664624Y-293526561D01*
X637726420Y-293559166D01*
G37*
%TD.AperFunction*%
%TA.AperFunction,NonConductor*%
G36*
X638122225Y-301250185D02*
G01*
X638167980Y-301302989D01*
X638177924Y-301372147D01*
X638148899Y-301435703D01*
X638128071Y-301454818D01*
X638010214Y-301540445D01*
X638010209Y-301540449D01*
X637859894Y-301690764D01*
X637859890Y-301690769D01*
X637740317Y-301855348D01*
X637684987Y-301898014D01*
X637615374Y-301903993D01*
X637553579Y-301871387D01*
X637539687Y-301855356D01*
X637491725Y-301789341D01*
X637468247Y-301723537D01*
X637484073Y-301655483D01*
X637504360Y-301628782D01*
X637866325Y-301266819D01*
X637927648Y-301233334D01*
X637954006Y-301230500D01*
X638055186Y-301230500D01*
X638122225Y-301250185D01*
G37*
%TD.AperFunction*%
%TA.AperFunction,NonConductor*%
G36*
X659279788Y-301250185D02*
G01*
X659325543Y-301302989D01*
X659335487Y-301372147D01*
X659306462Y-301435703D01*
X659269044Y-301464985D01*
X659137179Y-301532173D01*
X658965213Y-301657112D01*
X658814892Y-301807433D01*
X658758097Y-301885607D01*
X658702767Y-301928273D01*
X658657779Y-301936722D01*
X640158734Y-301936722D01*
X640091695Y-301917037D01*
X640048249Y-301869016D01*
X640045051Y-301862739D01*
X640015644Y-301822263D01*
X639920109Y-301690768D01*
X639769790Y-301540449D01*
X639769785Y-301540445D01*
X639651929Y-301454818D01*
X639609263Y-301399488D01*
X639603284Y-301329875D01*
X639635889Y-301268080D01*
X639696728Y-301233723D01*
X639724814Y-301230500D01*
X659212749Y-301230500D01*
X659279788Y-301250185D01*
G37*
%TD.AperFunction*%
%TA.AperFunction,NonConductor*%
G36*
X660728033Y-301250185D02*
G01*
X660748675Y-301266819D01*
X661229232Y-301747376D01*
X661262717Y-301808699D01*
X661257733Y-301878391D01*
X661241870Y-301907942D01*
X661195319Y-301972015D01*
X661139989Y-302014681D01*
X661070376Y-302020660D01*
X661008580Y-301988055D01*
X660994682Y-301972015D01*
X660875109Y-301807436D01*
X660875105Y-301807431D01*
X660724786Y-301657112D01*
X660552820Y-301532173D01*
X660420956Y-301464985D01*
X660370160Y-301417010D01*
X660353365Y-301349189D01*
X660375902Y-301283054D01*
X660430618Y-301239603D01*
X660477251Y-301230500D01*
X660660994Y-301230500D01*
X660728033Y-301250185D01*
G37*
%TD.AperFunction*%
%TA.AperFunction,NonConductor*%
G36*
X637726420Y-303519721D02*
G01*
X637740313Y-303535754D01*
X637859896Y-303700347D01*
X638010213Y-303850664D01*
X638182179Y-303975603D01*
X638182181Y-303975604D01*
X638182184Y-303975606D01*
X638371588Y-304072112D01*
X638573757Y-304137801D01*
X638783713Y-304171055D01*
X638783714Y-304171055D01*
X638996286Y-304171055D01*
X638996287Y-304171055D01*
X639206243Y-304137801D01*
X639408412Y-304072112D01*
X639597816Y-303975606D01*
X639761673Y-303856558D01*
X639769784Y-303850665D01*
X639769784Y-303850664D01*
X639769792Y-303850659D01*
X639896411Y-303724040D01*
X639957734Y-303690556D01*
X639984092Y-303687722D01*
X658657779Y-303687722D01*
X658724818Y-303707407D01*
X658758097Y-303738837D01*
X658814892Y-303817010D01*
X658965213Y-303967331D01*
X659137179Y-304092270D01*
X659137181Y-304092271D01*
X659137184Y-304092273D01*
X659326588Y-304188779D01*
X659528757Y-304254468D01*
X659738713Y-304287722D01*
X659738714Y-304287722D01*
X659951286Y-304287722D01*
X659951287Y-304287722D01*
X660161243Y-304254468D01*
X660363412Y-304188779D01*
X660552816Y-304092273D01*
X660626172Y-304038977D01*
X660724786Y-303967331D01*
X660724788Y-303967328D01*
X660724792Y-303967326D01*
X660875104Y-303817014D01*
X660994683Y-303652426D01*
X661050011Y-303609762D01*
X661119624Y-303603783D01*
X661181420Y-303636388D01*
X661195313Y-303652421D01*
X661298925Y-303795031D01*
X661314896Y-303817014D01*
X661465213Y-303967331D01*
X661637179Y-304092270D01*
X661637181Y-304092271D01*
X661637184Y-304092273D01*
X661826588Y-304188779D01*
X662028757Y-304254468D01*
X662238713Y-304287722D01*
X662238714Y-304287722D01*
X662451286Y-304287722D01*
X662451287Y-304287722D01*
X662661243Y-304254468D01*
X662863412Y-304188779D01*
X663052816Y-304092273D01*
X663171729Y-304005878D01*
X663224784Y-303967332D01*
X663224784Y-303967331D01*
X663224792Y-303967326D01*
X663363604Y-303828513D01*
X663424923Y-303795031D01*
X663494615Y-303800015D01*
X663550549Y-303841886D01*
X663556821Y-303851100D01*
X663560185Y-303856555D01*
X663560186Y-303856556D01*
X663652288Y-304005878D01*
X663652289Y-304005879D01*
X663656080Y-304012025D01*
X663654801Y-304012813D01*
X663677847Y-304069939D01*
X663664806Y-304138580D01*
X663642121Y-304169734D01*
X663288675Y-304523181D01*
X663227352Y-304556666D01*
X663200994Y-304559500D01*
X636049006Y-304559500D01*
X635981967Y-304539815D01*
X635961325Y-304523181D01*
X635688486Y-304250342D01*
X635655001Y-304189019D01*
X635659985Y-304119327D01*
X635701857Y-304063394D01*
X635767321Y-304038977D01*
X635832463Y-304052177D01*
X635871583Y-304072110D01*
X635871585Y-304072110D01*
X635871588Y-304072112D01*
X636073757Y-304137801D01*
X636283713Y-304171055D01*
X636283714Y-304171055D01*
X636496286Y-304171055D01*
X636496287Y-304171055D01*
X636706243Y-304137801D01*
X636908412Y-304072112D01*
X637097816Y-303975606D01*
X637119789Y-303959641D01*
X637269786Y-303850664D01*
X637269788Y-303850661D01*
X637269792Y-303850659D01*
X637420104Y-303700347D01*
X637539683Y-303535759D01*
X637595011Y-303493095D01*
X637664624Y-303487116D01*
X637726420Y-303519721D01*
G37*
%TD.AperFunction*%
%TA.AperFunction,NonConductor*%
G36*
X659123870Y-311410185D02*
G01*
X659169625Y-311462989D01*
X659179569Y-311532147D01*
X659150544Y-311595703D01*
X659129716Y-311614818D01*
X658965213Y-311734334D01*
X658965209Y-311734338D01*
X658955257Y-311744291D01*
X658893934Y-311777776D01*
X658867576Y-311780610D01*
X640077221Y-311780610D01*
X640010182Y-311760925D01*
X639976903Y-311729495D01*
X639920107Y-311651321D01*
X639870967Y-311602181D01*
X639837482Y-311540858D01*
X639842466Y-311471166D01*
X639884338Y-311415233D01*
X639949802Y-311390816D01*
X639958648Y-311390500D01*
X659056831Y-311390500D01*
X659123870Y-311410185D01*
G37*
%TD.AperFunction*%
%TA.AperFunction,NonConductor*%
G36*
X637888391Y-311410185D02*
G01*
X637934146Y-311462989D01*
X637944090Y-311532147D01*
X637915065Y-311595703D01*
X637909033Y-311602181D01*
X637859894Y-311651319D01*
X637859890Y-311651324D01*
X637740318Y-311815903D01*
X637684989Y-311858569D01*
X637615375Y-311864548D01*
X637553580Y-311831943D01*
X637539682Y-311815903D01*
X637420109Y-311651324D01*
X637420105Y-311651319D01*
X637370967Y-311602181D01*
X637337482Y-311540858D01*
X637342466Y-311471166D01*
X637384338Y-311415233D01*
X637449802Y-311390816D01*
X637458648Y-311390500D01*
X637821352Y-311390500D01*
X637888391Y-311410185D01*
G37*
%TD.AperFunction*%
%TA.AperFunction,NonConductor*%
G36*
X658583860Y-313551295D02*
G01*
X658627304Y-313599313D01*
X658678832Y-313700441D01*
X658689951Y-313722264D01*
X658810085Y-313887615D01*
X658833565Y-313953421D01*
X658817739Y-314021475D01*
X658767633Y-314070170D01*
X658709767Y-314084500D01*
X639775279Y-314084500D01*
X639708240Y-314064815D01*
X639662485Y-314012011D01*
X639652541Y-313942853D01*
X639681566Y-313879297D01*
X639702394Y-313860182D01*
X639769786Y-313811219D01*
X639769788Y-313811216D01*
X639769792Y-313811214D01*
X639920104Y-313660902D01*
X639920107Y-313660898D01*
X639976903Y-313582725D01*
X640032233Y-313540059D01*
X640077221Y-313531610D01*
X658516821Y-313531610D01*
X658583860Y-313551295D01*
G37*
%TD.AperFunction*%
%TA.AperFunction,NonConductor*%
G36*
X637726420Y-313480276D02*
G01*
X637740313Y-313496309D01*
X637815151Y-313599315D01*
X637859896Y-313660902D01*
X638010213Y-313811219D01*
X638077606Y-313860182D01*
X638120272Y-313915511D01*
X638126251Y-313985125D01*
X638093646Y-314046920D01*
X638032807Y-314081277D01*
X638004721Y-314084500D01*
X637275279Y-314084500D01*
X637208240Y-314064815D01*
X637162485Y-314012011D01*
X637152541Y-313942853D01*
X637181566Y-313879297D01*
X637202394Y-313860182D01*
X637269786Y-313811219D01*
X637269788Y-313811216D01*
X637269792Y-313811214D01*
X637420104Y-313660902D01*
X637539683Y-313496314D01*
X637595011Y-313453650D01*
X637664624Y-313447671D01*
X637726420Y-313480276D01*
G37*
%TD.AperFunction*%
%TA.AperFunction,NonConductor*%
G36*
X659009935Y-321570185D02*
G01*
X659055690Y-321622989D01*
X659065634Y-321692147D01*
X659036609Y-321755703D01*
X659015781Y-321774819D01*
X658965207Y-321811562D01*
X658814892Y-321961877D01*
X658758097Y-322040051D01*
X658702767Y-322082717D01*
X658657779Y-322091166D01*
X640269961Y-322091166D01*
X640202922Y-322071481D01*
X640157167Y-322018677D01*
X640152030Y-322005485D01*
X640145612Y-321985734D01*
X640141557Y-321973253D01*
X640141556Y-321973252D01*
X640141557Y-321973252D01*
X640074501Y-321841648D01*
X640045051Y-321783849D01*
X640018559Y-321747385D01*
X639995079Y-321681579D01*
X640010904Y-321613525D01*
X640061010Y-321564830D01*
X640118877Y-321550500D01*
X658942896Y-321550500D01*
X659009935Y-321570185D01*
G37*
%TD.AperFunction*%
%TA.AperFunction,NonConductor*%
G36*
X661363033Y-321570185D02*
G01*
X661383675Y-321586819D01*
X661433181Y-321636325D01*
X661466666Y-321697648D01*
X661469500Y-321724006D01*
X661469500Y-321755907D01*
X661449815Y-321822946D01*
X661433182Y-321843588D01*
X661314889Y-321961881D01*
X661195318Y-322126459D01*
X661139989Y-322169125D01*
X661070375Y-322175104D01*
X661008580Y-322142499D01*
X660994682Y-322126459D01*
X660875109Y-321961880D01*
X660875105Y-321961875D01*
X660724792Y-321811562D01*
X660686648Y-321783849D01*
X660674218Y-321774818D01*
X660631553Y-321719489D01*
X660625574Y-321649875D01*
X660658179Y-321588080D01*
X660719018Y-321553723D01*
X660747104Y-321550500D01*
X661295994Y-321550500D01*
X661363033Y-321570185D01*
G37*
%TD.AperFunction*%
%TA.AperFunction,NonConductor*%
G36*
X637726420Y-323440831D02*
G01*
X637740313Y-323456864D01*
X637842560Y-323597596D01*
X637859896Y-323621457D01*
X638010213Y-323771774D01*
X638182179Y-323896713D01*
X638182181Y-323896714D01*
X638182184Y-323896716D01*
X638371588Y-323993222D01*
X638573757Y-324058911D01*
X638783713Y-324092165D01*
X638783714Y-324092165D01*
X638996286Y-324092165D01*
X638996287Y-324092165D01*
X639206243Y-324058911D01*
X639408412Y-323993222D01*
X639597816Y-323896716D01*
X639625001Y-323876964D01*
X639640303Y-323865848D01*
X639706109Y-323842368D01*
X639713188Y-323842166D01*
X658657779Y-323842166D01*
X658724818Y-323861851D01*
X658758097Y-323893281D01*
X658814892Y-323971454D01*
X658965213Y-324121775D01*
X659137179Y-324246714D01*
X659137181Y-324246715D01*
X659137184Y-324246717D01*
X659326588Y-324343223D01*
X659528757Y-324408912D01*
X659738713Y-324442166D01*
X659738714Y-324442166D01*
X659951286Y-324442166D01*
X659951287Y-324442166D01*
X660161243Y-324408912D01*
X660363412Y-324343223D01*
X660552816Y-324246717D01*
X660574789Y-324230752D01*
X660724786Y-324121775D01*
X660724788Y-324121772D01*
X660724792Y-324121770D01*
X660875104Y-323971458D01*
X660994683Y-323806870D01*
X661050011Y-323764206D01*
X661119624Y-323758227D01*
X661181420Y-323790832D01*
X661195313Y-323806865D01*
X661272544Y-323913165D01*
X661314896Y-323971458D01*
X661465213Y-324121775D01*
X661637179Y-324246714D01*
X661637181Y-324246715D01*
X661637184Y-324246717D01*
X661826588Y-324343223D01*
X662028757Y-324408912D01*
X662238713Y-324442166D01*
X662238714Y-324442166D01*
X662451286Y-324442166D01*
X662451287Y-324442166D01*
X662661243Y-324408912D01*
X662802101Y-324363143D01*
X662871941Y-324361149D01*
X662931774Y-324397229D01*
X662962602Y-324459930D01*
X662954637Y-324529344D01*
X662928099Y-324568756D01*
X662653675Y-324843181D01*
X662592352Y-324876666D01*
X662565994Y-324879500D01*
X636049006Y-324879500D01*
X635981967Y-324859815D01*
X635961325Y-324843181D01*
X635092632Y-323974488D01*
X635059147Y-323913165D01*
X635064131Y-323843473D01*
X635079236Y-323816664D01*
X635078920Y-323816469D01*
X635111156Y-323764206D01*
X635174814Y-323660999D01*
X635174814Y-323660996D01*
X635178178Y-323655544D01*
X635230126Y-323608819D01*
X635299088Y-323597596D01*
X635363170Y-323625439D01*
X635371398Y-323632959D01*
X635510213Y-323771774D01*
X635682179Y-323896713D01*
X635682181Y-323896714D01*
X635682184Y-323896716D01*
X635871588Y-323993222D01*
X636073757Y-324058911D01*
X636283713Y-324092165D01*
X636283714Y-324092165D01*
X636496286Y-324092165D01*
X636496287Y-324092165D01*
X636706243Y-324058911D01*
X636908412Y-323993222D01*
X637097816Y-323896716D01*
X637119789Y-323880751D01*
X637269786Y-323771774D01*
X637269788Y-323771771D01*
X637269792Y-323771769D01*
X637420104Y-323621457D01*
X637539683Y-323456869D01*
X637595011Y-323414205D01*
X637664624Y-323408226D01*
X637726420Y-323440831D01*
G37*
%TD.AperFunction*%
%TA.AperFunction,NonConductor*%
G36*
X638172691Y-331095185D02*
G01*
X638218446Y-331147989D01*
X638228390Y-331217147D01*
X638199365Y-331280703D01*
X638178537Y-331299818D01*
X638010213Y-331422110D01*
X637859894Y-331572429D01*
X637859890Y-331572434D01*
X637740318Y-331737013D01*
X637684989Y-331779679D01*
X637615375Y-331785658D01*
X637553580Y-331753053D01*
X637539682Y-331737013D01*
X637476299Y-331649773D01*
X637452819Y-331583966D01*
X637468645Y-331515913D01*
X637488932Y-331489211D01*
X637866325Y-331111819D01*
X637927648Y-331078334D01*
X637954006Y-331075500D01*
X638105652Y-331075500D01*
X638172691Y-331095185D01*
G37*
%TD.AperFunction*%
%TA.AperFunction,NonConductor*%
G36*
X660728033Y-331095185D02*
G01*
X660748675Y-331111819D01*
X661407742Y-331770886D01*
X661441227Y-331832209D01*
X661436243Y-331901901D01*
X661407743Y-331946247D01*
X661314894Y-332039097D01*
X661314890Y-332039102D01*
X661195318Y-332203681D01*
X661139989Y-332246347D01*
X661070375Y-332252326D01*
X661008580Y-332219721D01*
X660994682Y-332203681D01*
X660875109Y-332039102D01*
X660875105Y-332039097D01*
X660724786Y-331888778D01*
X660552820Y-331763839D01*
X660363414Y-331667332D01*
X660363413Y-331667331D01*
X660363412Y-331667331D01*
X660161243Y-331601642D01*
X660161241Y-331601641D01*
X660161240Y-331601641D01*
X659976813Y-331572431D01*
X659951287Y-331568388D01*
X659738713Y-331568388D01*
X659713187Y-331572431D01*
X659528760Y-331601641D01*
X659326585Y-331667332D01*
X659285620Y-331688205D01*
X659229325Y-331701720D01*
X640077221Y-331701720D01*
X640010182Y-331682035D01*
X639976903Y-331650605D01*
X639920107Y-331572431D01*
X639769786Y-331422110D01*
X639601463Y-331299818D01*
X639558797Y-331244489D01*
X639552818Y-331174875D01*
X639585423Y-331113080D01*
X639646262Y-331078723D01*
X639674348Y-331075500D01*
X660660994Y-331075500D01*
X660728033Y-331095185D01*
G37*
%TD.AperFunction*%
%TA.AperFunction,NonConductor*%
G36*
X661181420Y-333868054D02*
G01*
X661195313Y-333884087D01*
X661270108Y-333987034D01*
X661314896Y-334048680D01*
X661459035Y-334192819D01*
X661492520Y-334254142D01*
X661487536Y-334323834D01*
X661445664Y-334379767D01*
X661380200Y-334404184D01*
X661371354Y-334404500D01*
X660818646Y-334404500D01*
X660751607Y-334384815D01*
X660705852Y-334332011D01*
X660695908Y-334262853D01*
X660724933Y-334199297D01*
X660730965Y-334192819D01*
X660761054Y-334162730D01*
X660875104Y-334048680D01*
X660994683Y-333884092D01*
X661050011Y-333841428D01*
X661119624Y-333835449D01*
X661181420Y-333868054D01*
G37*
%TD.AperFunction*%
%TA.AperFunction,NonConductor*%
G36*
X637726420Y-333401386D02*
G01*
X637740313Y-333417419D01*
X637828212Y-333538402D01*
X637859896Y-333582012D01*
X638010213Y-333732329D01*
X638182179Y-333857268D01*
X638182181Y-333857269D01*
X638182184Y-333857271D01*
X638371588Y-333953777D01*
X638573757Y-334019466D01*
X638783713Y-334052720D01*
X638783714Y-334052720D01*
X638996286Y-334052720D01*
X638996287Y-334052720D01*
X639206243Y-334019466D01*
X639408412Y-333953777D01*
X639597816Y-333857271D01*
X639650634Y-333818897D01*
X639769786Y-333732329D01*
X639769788Y-333732326D01*
X639769792Y-333732324D01*
X639920104Y-333582012D01*
X639920107Y-333582008D01*
X639976903Y-333503835D01*
X640032233Y-333461169D01*
X640077221Y-333452720D01*
X658427132Y-333452720D01*
X658494171Y-333472405D01*
X658539926Y-333525209D01*
X658545062Y-333538400D01*
X658572081Y-333621556D01*
X658593444Y-333687302D01*
X658689951Y-333876708D01*
X658814890Y-334048674D01*
X658959035Y-334192819D01*
X658992520Y-334254142D01*
X658987536Y-334323834D01*
X658945664Y-334379767D01*
X658880200Y-334404184D01*
X658871354Y-334404500D01*
X636049006Y-334404500D01*
X635981967Y-334384815D01*
X635961325Y-334368181D01*
X635755874Y-334162730D01*
X635722389Y-334101407D01*
X635727373Y-334031715D01*
X635769245Y-333975782D01*
X635834709Y-333951365D01*
X635881868Y-333957117D01*
X636073757Y-334019466D01*
X636283713Y-334052720D01*
X636283714Y-334052720D01*
X636496286Y-334052720D01*
X636496287Y-334052720D01*
X636706243Y-334019466D01*
X636908412Y-333953777D01*
X637097816Y-333857271D01*
X637150634Y-333818897D01*
X637269786Y-333732329D01*
X637269788Y-333732326D01*
X637269792Y-333732324D01*
X637420104Y-333582012D01*
X637539683Y-333417424D01*
X637595011Y-333374760D01*
X637664624Y-333368781D01*
X637726420Y-333401386D01*
G37*
%TD.AperFunction*%
%TA.AperFunction,NonConductor*%
G36*
X660728033Y-341255185D02*
G01*
X660748675Y-341271819D01*
X661366354Y-341889498D01*
X661399839Y-341950821D01*
X661394855Y-342020513D01*
X661366354Y-342064860D01*
X661314894Y-342116319D01*
X661314890Y-342116324D01*
X661195318Y-342280903D01*
X661139989Y-342323569D01*
X661070375Y-342329548D01*
X661008580Y-342296943D01*
X660994682Y-342280903D01*
X660875109Y-342116324D01*
X660875105Y-342116319D01*
X660724786Y-341966000D01*
X660552820Y-341841061D01*
X660363414Y-341744554D01*
X660363413Y-341744553D01*
X660363412Y-341744553D01*
X660161243Y-341678864D01*
X660161241Y-341678863D01*
X660161240Y-341678863D01*
X659999957Y-341653318D01*
X659951287Y-341645610D01*
X659738713Y-341645610D01*
X659690042Y-341653318D01*
X659528760Y-341678863D01*
X659326585Y-341744554D01*
X659137179Y-341841061D01*
X658965213Y-341966000D01*
X658814892Y-342116321D01*
X658758097Y-342194495D01*
X658702767Y-342237161D01*
X658657779Y-342245610D01*
X640336764Y-342245610D01*
X640269725Y-342225925D01*
X640223970Y-342173121D01*
X640214291Y-342141009D01*
X640207246Y-342096534D01*
X640207246Y-342096532D01*
X640141557Y-341894363D01*
X640045051Y-341704959D01*
X640045049Y-341704956D01*
X640045048Y-341704954D01*
X639920109Y-341532988D01*
X639834302Y-341447181D01*
X639800817Y-341385858D01*
X639805801Y-341316166D01*
X639847673Y-341260233D01*
X639913137Y-341235816D01*
X639921983Y-341235500D01*
X660660994Y-341235500D01*
X660728033Y-341255185D01*
G37*
%TD.AperFunction*%
%TA.AperFunction,NonConductor*%
G36*
X661181420Y-343945276D02*
G01*
X661195313Y-343961309D01*
X661303125Y-344109701D01*
X661314896Y-344125902D01*
X661465213Y-344276219D01*
X661553252Y-344340182D01*
X661595918Y-344395511D01*
X661601897Y-344465125D01*
X661569292Y-344526920D01*
X661508453Y-344561277D01*
X661480367Y-344564500D01*
X660709633Y-344564500D01*
X660642594Y-344544815D01*
X660596839Y-344492011D01*
X660586895Y-344422853D01*
X660615920Y-344359297D01*
X660636748Y-344340182D01*
X660724786Y-344276219D01*
X660724788Y-344276216D01*
X660724792Y-344276214D01*
X660875104Y-344125902D01*
X660994683Y-343961314D01*
X661050011Y-343918650D01*
X661119624Y-343912671D01*
X661181420Y-343945276D01*
G37*
%TD.AperFunction*%
%TA.AperFunction,NonConductor*%
G36*
X637726420Y-343361941D02*
G01*
X637740313Y-343377974D01*
X637842560Y-343518706D01*
X637859896Y-343542567D01*
X638010213Y-343692884D01*
X638182179Y-343817823D01*
X638182181Y-343817824D01*
X638182184Y-343817826D01*
X638371588Y-343914332D01*
X638573757Y-343980021D01*
X638783713Y-344013275D01*
X638783714Y-344013275D01*
X638996286Y-344013275D01*
X638996287Y-344013275D01*
X639206243Y-343980021D01*
X639212475Y-343977995D01*
X639274989Y-343974308D01*
X639315651Y-343982396D01*
X639387104Y-343996610D01*
X639387106Y-343996610D01*
X639559564Y-343996610D01*
X658657779Y-343996610D01*
X658724818Y-344016295D01*
X658758097Y-344047725D01*
X658814892Y-344125898D01*
X658965213Y-344276219D01*
X659053252Y-344340182D01*
X659095918Y-344395511D01*
X659101897Y-344465125D01*
X659069292Y-344526920D01*
X659008453Y-344561277D01*
X658980367Y-344564500D01*
X636049006Y-344564500D01*
X635981967Y-344544815D01*
X635961325Y-344528181D01*
X635183271Y-343750127D01*
X635149786Y-343688804D01*
X635154770Y-343619112D01*
X635165409Y-343597355D01*
X635174814Y-343582109D01*
X635174815Y-343582105D01*
X635178177Y-343576655D01*
X635230125Y-343529929D01*
X635299087Y-343518706D01*
X635363170Y-343546549D01*
X635371398Y-343554069D01*
X635510213Y-343692884D01*
X635682179Y-343817823D01*
X635682181Y-343817824D01*
X635682184Y-343817826D01*
X635871588Y-343914332D01*
X636073757Y-343980021D01*
X636283713Y-344013275D01*
X636283714Y-344013275D01*
X636496286Y-344013275D01*
X636496287Y-344013275D01*
X636706243Y-343980021D01*
X636908412Y-343914332D01*
X637097816Y-343817826D01*
X637119789Y-343801861D01*
X637269786Y-343692884D01*
X637269788Y-343692881D01*
X637269792Y-343692879D01*
X637420104Y-343542567D01*
X637539683Y-343377979D01*
X637595011Y-343335315D01*
X637664624Y-343329336D01*
X637726420Y-343361941D01*
G37*
%TD.AperFunction*%
%TA.AperFunction,NonConductor*%
G36*
X660688033Y-351415185D02*
G01*
X660708675Y-351431819D01*
X661305474Y-352028618D01*
X661338959Y-352089941D01*
X661333975Y-352159633D01*
X661316795Y-352188898D01*
X661317759Y-352189598D01*
X661195318Y-352358125D01*
X661139989Y-352400791D01*
X661070375Y-352406770D01*
X661008580Y-352374165D01*
X660994682Y-352358125D01*
X660875109Y-352193546D01*
X660875105Y-352193541D01*
X660724786Y-352043222D01*
X660552820Y-351918283D01*
X660363414Y-351821776D01*
X660363413Y-351821775D01*
X660363412Y-351821775D01*
X660161243Y-351756086D01*
X660161241Y-351756085D01*
X660161240Y-351756085D01*
X659964937Y-351724994D01*
X659951287Y-351722832D01*
X659738713Y-351722832D01*
X659738706Y-351722832D01*
X659642267Y-351738106D01*
X659572974Y-351729151D01*
X659564422Y-351724994D01*
X659559705Y-351722473D01*
X659400372Y-351656475D01*
X659400364Y-351656473D01*
X659323165Y-351641117D01*
X659261254Y-351608732D01*
X659226680Y-351548016D01*
X659230419Y-351478247D01*
X659271286Y-351421575D01*
X659336304Y-351395994D01*
X659347356Y-351395500D01*
X660620994Y-351395500D01*
X660688033Y-351415185D01*
G37*
%TD.AperFunction*%
%TA.AperFunction,NonConductor*%
G36*
X661181420Y-354022498D02*
G01*
X661195313Y-354038531D01*
X661247510Y-354110374D01*
X661314896Y-354203124D01*
X661465213Y-354353441D01*
X661637184Y-354478383D01*
X661637185Y-354478384D01*
X661660013Y-354490016D01*
X661710809Y-354537990D01*
X661727604Y-354605811D01*
X661705066Y-354671946D01*
X661650351Y-354715397D01*
X661603718Y-354724500D01*
X660586282Y-354724500D01*
X660519243Y-354704815D01*
X660473488Y-354652011D01*
X660463544Y-354582853D01*
X660492569Y-354519297D01*
X660529987Y-354490016D01*
X660552814Y-354478384D01*
X660552813Y-354478384D01*
X660552816Y-354478383D01*
X660671728Y-354391989D01*
X660724786Y-354353441D01*
X660724788Y-354353438D01*
X660724792Y-354353436D01*
X660875104Y-354203124D01*
X660994683Y-354038536D01*
X661050011Y-353995872D01*
X661119624Y-353989893D01*
X661181420Y-354022498D01*
G37*
%TD.AperFunction*%
%TA.AperFunction,NonConductor*%
G36*
X637726420Y-353322496D02*
G01*
X637740313Y-353338529D01*
X637841958Y-353478432D01*
X637859896Y-353503122D01*
X638010213Y-353653439D01*
X638182179Y-353778378D01*
X638182181Y-353778379D01*
X638182184Y-353778381D01*
X638371588Y-353874887D01*
X638573757Y-353940576D01*
X638783713Y-353973830D01*
X638783714Y-353973830D01*
X638996286Y-353973830D01*
X638996287Y-353973830D01*
X639206243Y-353940576D01*
X639408412Y-353874887D01*
X639597816Y-353778381D01*
X639635810Y-353750777D01*
X639769786Y-353653439D01*
X639769788Y-353653436D01*
X639769792Y-353653434D01*
X639920104Y-353503122D01*
X639938042Y-353478432D01*
X639976903Y-353424945D01*
X640032233Y-353382279D01*
X640077221Y-353373830D01*
X658379758Y-353373830D01*
X658446797Y-353393515D01*
X658492552Y-353446319D01*
X658502231Y-353478432D01*
X658512404Y-353542664D01*
X658527754Y-353639575D01*
X658585091Y-353816040D01*
X658593444Y-353841746D01*
X658689951Y-354031152D01*
X658814890Y-354203118D01*
X658965213Y-354353441D01*
X659137184Y-354478383D01*
X659137185Y-354478384D01*
X659160013Y-354490016D01*
X659210809Y-354537990D01*
X659227604Y-354605811D01*
X659205066Y-354671946D01*
X659150351Y-354715397D01*
X659103718Y-354724500D01*
X636049006Y-354724500D01*
X635981967Y-354704815D01*
X635961325Y-354688181D01*
X635107184Y-353834040D01*
X635073699Y-353772717D01*
X635078683Y-353703025D01*
X635089326Y-353681263D01*
X635115039Y-353639575D01*
X635174814Y-353542664D01*
X635174814Y-353542661D01*
X635178178Y-353537209D01*
X635230126Y-353490484D01*
X635299088Y-353479261D01*
X635363170Y-353507104D01*
X635371398Y-353514624D01*
X635510213Y-353653439D01*
X635682179Y-353778378D01*
X635682181Y-353778379D01*
X635682184Y-353778381D01*
X635871588Y-353874887D01*
X636073757Y-353940576D01*
X636283713Y-353973830D01*
X636283714Y-353973830D01*
X636496286Y-353973830D01*
X636496287Y-353973830D01*
X636706243Y-353940576D01*
X636908412Y-353874887D01*
X637097816Y-353778381D01*
X637135810Y-353750777D01*
X637269786Y-353653439D01*
X637269788Y-353653436D01*
X637269792Y-353653434D01*
X637420104Y-353503122D01*
X637539683Y-353338534D01*
X637595011Y-353295870D01*
X637664624Y-353289891D01*
X637726420Y-353322496D01*
G37*
%TD.AperFunction*%
%TA.AperFunction,NonConductor*%
G36*
X638239735Y-360940185D02*
G01*
X638285490Y-360992989D01*
X638295434Y-361062147D01*
X638266409Y-361125703D01*
X638228990Y-361154985D01*
X638182182Y-361178834D01*
X638010213Y-361303775D01*
X637859894Y-361454094D01*
X637859890Y-361454099D01*
X637740318Y-361618678D01*
X637684989Y-361661344D01*
X637615375Y-361667323D01*
X637553580Y-361634718D01*
X637539681Y-361618678D01*
X637538484Y-361617031D01*
X637518419Y-361589413D01*
X637460869Y-361510201D01*
X637437390Y-361444394D01*
X637453216Y-361376340D01*
X637473503Y-361349639D01*
X637866325Y-360956819D01*
X637927648Y-360923334D01*
X637954006Y-360920500D01*
X638172696Y-360920500D01*
X638239735Y-360940185D01*
G37*
%TD.AperFunction*%
%TA.AperFunction,NonConductor*%
G36*
X660728033Y-360940185D02*
G01*
X660748675Y-360956819D01*
X661433181Y-361641325D01*
X661466666Y-361702648D01*
X661469500Y-361729006D01*
X661469500Y-362064795D01*
X661449815Y-362131834D01*
X661433182Y-362152476D01*
X661314889Y-362270769D01*
X661195318Y-362435347D01*
X661139989Y-362478013D01*
X661070375Y-362483992D01*
X661008580Y-362451387D01*
X660994682Y-362435347D01*
X660875109Y-362270768D01*
X660875105Y-362270763D01*
X660724786Y-362120444D01*
X660552820Y-361995505D01*
X660363414Y-361898998D01*
X660363413Y-361898997D01*
X660363412Y-361898997D01*
X660161243Y-361833308D01*
X660161241Y-361833307D01*
X660161240Y-361833307D01*
X659999957Y-361807762D01*
X659951287Y-361800054D01*
X659738713Y-361800054D01*
X659699002Y-361806343D01*
X659687741Y-361808127D01*
X659618447Y-361799171D01*
X659589686Y-361781511D01*
X659586433Y-361778841D01*
X659443042Y-361683030D01*
X659443029Y-361683023D01*
X659283709Y-361617031D01*
X659283697Y-361617028D01*
X659114563Y-361583385D01*
X659114560Y-361583385D01*
X640077221Y-361583385D01*
X640010182Y-361563700D01*
X639976903Y-361532270D01*
X639920107Y-361454096D01*
X639769786Y-361303775D01*
X639597817Y-361178834D01*
X639551010Y-361154985D01*
X639500213Y-361107011D01*
X639483418Y-361039190D01*
X639505955Y-360973055D01*
X639560670Y-360929603D01*
X639607304Y-360920500D01*
X660660994Y-360920500D01*
X660728033Y-360940185D01*
G37*
%TD.AperFunction*%
%TA.AperFunction,NonConductor*%
G36*
X663494615Y-364263347D02*
G01*
X663550549Y-364305218D01*
X663556820Y-364314432D01*
X663606675Y-364395259D01*
X663625116Y-364462651D01*
X663604194Y-364529315D01*
X663588818Y-364548037D01*
X663288675Y-364848181D01*
X663227352Y-364881666D01*
X663200994Y-364884500D01*
X662923821Y-364884500D01*
X662856782Y-364864815D01*
X662811027Y-364812011D01*
X662801083Y-364742853D01*
X662830108Y-364679297D01*
X662867526Y-364650015D01*
X662897314Y-364634836D01*
X663052816Y-364555605D01*
X663224792Y-364430658D01*
X663363604Y-364291845D01*
X663424923Y-364258363D01*
X663494615Y-364263347D01*
G37*
%TD.AperFunction*%
%TA.AperFunction,NonConductor*%
G36*
X661181420Y-364099720D02*
G01*
X661195313Y-364115753D01*
X661298925Y-364258363D01*
X661314896Y-364280346D01*
X661465213Y-364430663D01*
X661637179Y-364555602D01*
X661637181Y-364555603D01*
X661637184Y-364555605D01*
X661711098Y-364593266D01*
X661822474Y-364650015D01*
X661873270Y-364697990D01*
X661890065Y-364765811D01*
X661867528Y-364831946D01*
X661812812Y-364875397D01*
X661766179Y-364884500D01*
X660423821Y-364884500D01*
X660356782Y-364864815D01*
X660311027Y-364812011D01*
X660301083Y-364742853D01*
X660330108Y-364679297D01*
X660367526Y-364650015D01*
X660397314Y-364634836D01*
X660552816Y-364555605D01*
X660589001Y-364529315D01*
X660724786Y-364430663D01*
X660724788Y-364430660D01*
X660724792Y-364430658D01*
X660875104Y-364280346D01*
X660994683Y-364115758D01*
X661050011Y-364073094D01*
X661119624Y-364067115D01*
X661181420Y-364099720D01*
G37*
%TD.AperFunction*%
%TA.AperFunction,NonConductor*%
G36*
X637726420Y-363283051D02*
G01*
X637740313Y-363299084D01*
X637842560Y-363439816D01*
X637859896Y-363463677D01*
X638010213Y-363613994D01*
X638182179Y-363738933D01*
X638182181Y-363738934D01*
X638182184Y-363738936D01*
X638371588Y-363835442D01*
X638573757Y-363901131D01*
X638783713Y-363934385D01*
X638783714Y-363934385D01*
X638996286Y-363934385D01*
X638996287Y-363934385D01*
X639206243Y-363901131D01*
X639408412Y-363835442D01*
X639597816Y-363738936D01*
X639628293Y-363716793D01*
X639769786Y-363613994D01*
X639769788Y-363613991D01*
X639769792Y-363613989D01*
X639920104Y-363463677D01*
X639937440Y-363439816D01*
X639976903Y-363385500D01*
X640032233Y-363342834D01*
X640077221Y-363334385D01*
X658370500Y-363334385D01*
X658437539Y-363354070D01*
X658483294Y-363406874D01*
X658494500Y-363458385D01*
X658494500Y-363506841D01*
X658527754Y-363716797D01*
X658590968Y-363911350D01*
X658593444Y-363918968D01*
X658689951Y-364108374D01*
X658814890Y-364280340D01*
X658965213Y-364430663D01*
X659137179Y-364555602D01*
X659137181Y-364555603D01*
X659137184Y-364555605D01*
X659211098Y-364593266D01*
X659322474Y-364650015D01*
X659373270Y-364697990D01*
X659390065Y-364765811D01*
X659367528Y-364831946D01*
X659312812Y-364875397D01*
X659266179Y-364884500D01*
X636049006Y-364884500D01*
X635981967Y-364864815D01*
X635961325Y-364848181D01*
X635011879Y-363898735D01*
X634978394Y-363837412D01*
X634983378Y-363767720D01*
X635011875Y-363723377D01*
X635082712Y-363652541D01*
X635174814Y-363503219D01*
X635174814Y-363503216D01*
X635178178Y-363497764D01*
X635230126Y-363451039D01*
X635299088Y-363439816D01*
X635363170Y-363467659D01*
X635371398Y-363475179D01*
X635510213Y-363613994D01*
X635682179Y-363738933D01*
X635682181Y-363738934D01*
X635682184Y-363738936D01*
X635871588Y-363835442D01*
X636073757Y-363901131D01*
X636283713Y-363934385D01*
X636283714Y-363934385D01*
X636496286Y-363934385D01*
X636496287Y-363934385D01*
X636706243Y-363901131D01*
X636908412Y-363835442D01*
X637097816Y-363738936D01*
X637128293Y-363716793D01*
X637269786Y-363613994D01*
X637269788Y-363613991D01*
X637269792Y-363613989D01*
X637420104Y-363463677D01*
X637539683Y-363299089D01*
X637595011Y-363256425D01*
X637664624Y-363250446D01*
X637726420Y-363283051D01*
G37*
%TD.AperFunction*%
%TA.AperFunction,NonConductor*%
G36*
X659536920Y-371100185D02*
G01*
X659582675Y-371152989D01*
X659592619Y-371222147D01*
X659563594Y-371285703D01*
X659508200Y-371322430D01*
X659366588Y-371368443D01*
X659366585Y-371368444D01*
X659177179Y-371464951D01*
X659005213Y-371589890D01*
X658854892Y-371740211D01*
X658798097Y-371818385D01*
X658742767Y-371861051D01*
X658697779Y-371869500D01*
X640262019Y-371869500D01*
X640194980Y-371849815D01*
X640149225Y-371797011D01*
X640144089Y-371783820D01*
X640141557Y-371776027D01*
X640046715Y-371589890D01*
X640045051Y-371586624D01*
X640045049Y-371586621D01*
X640045048Y-371586619D01*
X639920109Y-371414653D01*
X639797637Y-371292181D01*
X639764152Y-371230858D01*
X639769136Y-371161166D01*
X639811008Y-371105233D01*
X639876472Y-371080816D01*
X639885318Y-371080500D01*
X659469881Y-371080500D01*
X659536920Y-371100185D01*
G37*
%TD.AperFunction*%
%TA.AperFunction,NonConductor*%
G36*
X660728033Y-371100185D02*
G01*
X660748675Y-371116819D01*
X661287233Y-371655377D01*
X661320718Y-371716700D01*
X661315734Y-371786392D01*
X661299871Y-371815942D01*
X661235319Y-371904792D01*
X661179989Y-371947459D01*
X661110376Y-371953438D01*
X661048581Y-371920833D01*
X661034682Y-371904793D01*
X660915109Y-371740214D01*
X660915105Y-371740209D01*
X660764786Y-371589890D01*
X660592820Y-371464951D01*
X660403414Y-371368444D01*
X660403413Y-371368443D01*
X660403412Y-371368443D01*
X660261799Y-371322430D01*
X660204125Y-371282993D01*
X660176927Y-371218635D01*
X660188842Y-371149789D01*
X660236086Y-371098313D01*
X660300119Y-371080500D01*
X660660994Y-371080500D01*
X660728033Y-371100185D01*
G37*
%TD.AperFunction*%
%TA.AperFunction,NonConductor*%
G36*
X663534615Y-373732793D02*
G01*
X663590549Y-373774664D01*
X663596821Y-373783879D01*
X663652609Y-373874327D01*
X663671049Y-373941719D01*
X663650126Y-374008383D01*
X663634751Y-374027104D01*
X663288675Y-374373181D01*
X663227352Y-374406666D01*
X663200994Y-374409500D01*
X662800119Y-374409500D01*
X662733080Y-374389815D01*
X662687325Y-374337011D01*
X662677381Y-374267853D01*
X662706406Y-374204297D01*
X662761799Y-374167569D01*
X662903412Y-374121557D01*
X663092816Y-374025051D01*
X663190456Y-373954112D01*
X663264784Y-373900110D01*
X663264784Y-373900109D01*
X663264792Y-373900104D01*
X663403604Y-373761291D01*
X663464923Y-373727809D01*
X663534615Y-373732793D01*
G37*
%TD.AperFunction*%
%TA.AperFunction,NonConductor*%
G36*
X661221420Y-373569166D02*
G01*
X661235313Y-373585199D01*
X661338925Y-373727809D01*
X661354896Y-373749792D01*
X661505213Y-373900109D01*
X661677179Y-374025048D01*
X661677181Y-374025049D01*
X661677184Y-374025051D01*
X661866588Y-374121557D01*
X662008200Y-374167569D01*
X662065875Y-374207007D01*
X662093073Y-374271365D01*
X662081158Y-374340211D01*
X662033914Y-374391687D01*
X661969881Y-374409500D01*
X660300119Y-374409500D01*
X660233080Y-374389815D01*
X660187325Y-374337011D01*
X660177381Y-374267853D01*
X660206406Y-374204297D01*
X660261799Y-374167569D01*
X660403412Y-374121557D01*
X660592816Y-374025051D01*
X660615758Y-374008383D01*
X660764786Y-373900109D01*
X660764788Y-373900106D01*
X660764792Y-373900104D01*
X660915104Y-373749792D01*
X661034683Y-373585204D01*
X661090011Y-373542540D01*
X661159624Y-373536561D01*
X661221420Y-373569166D01*
G37*
%TD.AperFunction*%
%TA.AperFunction,NonConductor*%
G36*
X637726420Y-373243606D02*
G01*
X637740313Y-373259639D01*
X637836091Y-373391467D01*
X637859896Y-373424232D01*
X638010213Y-373574549D01*
X638182179Y-373699488D01*
X638182181Y-373699489D01*
X638182184Y-373699491D01*
X638371588Y-373795997D01*
X638573757Y-373861686D01*
X638783713Y-373894940D01*
X638783714Y-373894940D01*
X638996286Y-373894940D01*
X638996287Y-373894940D01*
X639206243Y-373861686D01*
X639408412Y-373795997D01*
X639597816Y-373699491D01*
X639673943Y-373644181D01*
X639739750Y-373620702D01*
X639746828Y-373620500D01*
X658697779Y-373620500D01*
X658764818Y-373640185D01*
X658798097Y-373671615D01*
X658854892Y-373749788D01*
X659005213Y-373900109D01*
X659177179Y-374025048D01*
X659177181Y-374025049D01*
X659177184Y-374025051D01*
X659366588Y-374121557D01*
X659508200Y-374167569D01*
X659565875Y-374207007D01*
X659593073Y-374271365D01*
X659581158Y-374340211D01*
X659533914Y-374391687D01*
X659469881Y-374409500D01*
X636049006Y-374409500D01*
X635981967Y-374389815D01*
X635961325Y-374373181D01*
X635353467Y-373765323D01*
X635319982Y-373704000D01*
X635324966Y-373634308D01*
X635366838Y-373578375D01*
X635432302Y-373553958D01*
X635500575Y-373568810D01*
X635514033Y-373577324D01*
X635682179Y-373699488D01*
X635682181Y-373699489D01*
X635682184Y-373699491D01*
X635871588Y-373795997D01*
X636073757Y-373861686D01*
X636283713Y-373894940D01*
X636283714Y-373894940D01*
X636496286Y-373894940D01*
X636496287Y-373894940D01*
X636706243Y-373861686D01*
X636908412Y-373795997D01*
X637097816Y-373699491D01*
X637173943Y-373644182D01*
X637269786Y-373574549D01*
X637269788Y-373574546D01*
X637269792Y-373574544D01*
X637420104Y-373424232D01*
X637539683Y-373259644D01*
X637595011Y-373216980D01*
X637664624Y-373211001D01*
X637726420Y-373243606D01*
G37*
%TD.AperFunction*%
%TA.AperFunction,NonConductor*%
G36*
X658736443Y-381260185D02*
G01*
X658782198Y-381312989D01*
X658792142Y-381382147D01*
X658769721Y-381437387D01*
X658758096Y-381453387D01*
X658702766Y-381496052D01*
X658657779Y-381504500D01*
X640077221Y-381504500D01*
X640010182Y-381484815D01*
X639976904Y-381453387D01*
X639965279Y-381437387D01*
X639941798Y-381371581D01*
X639957623Y-381303527D01*
X640007728Y-381254831D01*
X640065596Y-381240500D01*
X658669404Y-381240500D01*
X658736443Y-381260185D01*
G37*
%TD.AperFunction*%
%TA.AperFunction,NonConductor*%
G36*
X661181420Y-383204166D02*
G01*
X661195313Y-383220199D01*
X661297560Y-383360931D01*
X661314896Y-383384792D01*
X661465213Y-383535109D01*
X661637179Y-383660048D01*
X661637181Y-383660049D01*
X661637184Y-383660051D01*
X661826588Y-383756557D01*
X662028757Y-383822246D01*
X662238713Y-383855500D01*
X662238714Y-383855500D01*
X662451286Y-383855500D01*
X662451287Y-383855500D01*
X662661243Y-383822246D01*
X662863412Y-383756557D01*
X663052816Y-383660051D01*
X663224792Y-383535104D01*
X663363604Y-383396291D01*
X663424923Y-383362809D01*
X663494615Y-383367793D01*
X663550549Y-383409664D01*
X663556821Y-383418878D01*
X663560185Y-383424333D01*
X663560186Y-383424334D01*
X663652287Y-383573655D01*
X663652289Y-383573657D01*
X663776344Y-383697712D01*
X663857983Y-383748067D01*
X663904708Y-383800015D01*
X663915931Y-383868977D01*
X663888087Y-383933060D01*
X663880568Y-383941287D01*
X663288675Y-384533181D01*
X663227352Y-384566666D01*
X663200994Y-384569500D01*
X635414006Y-384569500D01*
X635346967Y-384549815D01*
X635326325Y-384533181D01*
X634801819Y-384008675D01*
X634768334Y-383947352D01*
X634765500Y-383920994D01*
X634765500Y-383886057D01*
X634785185Y-383819018D01*
X634824401Y-383780520D01*
X634958656Y-383697712D01*
X635082712Y-383573656D01*
X635174814Y-383424334D01*
X635174814Y-383424331D01*
X635178178Y-383418879D01*
X635230126Y-383372154D01*
X635299088Y-383360931D01*
X635363170Y-383388774D01*
X635371398Y-383396294D01*
X635510213Y-383535109D01*
X635682179Y-383660048D01*
X635682181Y-383660049D01*
X635682184Y-383660051D01*
X635871588Y-383756557D01*
X636073757Y-383822246D01*
X636283713Y-383855500D01*
X636283714Y-383855500D01*
X636496286Y-383855500D01*
X636496287Y-383855500D01*
X636706243Y-383822246D01*
X636908412Y-383756557D01*
X637097816Y-383660051D01*
X637119789Y-383644086D01*
X637269786Y-383535109D01*
X637269788Y-383535106D01*
X637269792Y-383535104D01*
X637420104Y-383384792D01*
X637539683Y-383220204D01*
X637595011Y-383177540D01*
X637664624Y-383171561D01*
X637726420Y-383204166D01*
X637740313Y-383220199D01*
X637842560Y-383360931D01*
X637859896Y-383384792D01*
X638010213Y-383535109D01*
X638182179Y-383660048D01*
X638182181Y-383660049D01*
X638182184Y-383660051D01*
X638371588Y-383756557D01*
X638573757Y-383822246D01*
X638783713Y-383855500D01*
X638783714Y-383855500D01*
X638996286Y-383855500D01*
X638996287Y-383855500D01*
X639206243Y-383822246D01*
X639408412Y-383756557D01*
X639597816Y-383660051D01*
X639619789Y-383644086D01*
X639769786Y-383535109D01*
X639769788Y-383535106D01*
X639769792Y-383535104D01*
X639920104Y-383384792D01*
X639929286Y-383372154D01*
X639976903Y-383306615D01*
X640032233Y-383263949D01*
X640077221Y-383255500D01*
X658657779Y-383255500D01*
X658724818Y-383275185D01*
X658758097Y-383306615D01*
X658814892Y-383384788D01*
X658965213Y-383535109D01*
X659137179Y-383660048D01*
X659137181Y-383660049D01*
X659137184Y-383660051D01*
X659326588Y-383756557D01*
X659528757Y-383822246D01*
X659738713Y-383855500D01*
X659738714Y-383855500D01*
X659951286Y-383855500D01*
X659951287Y-383855500D01*
X660161243Y-383822246D01*
X660363412Y-383756557D01*
X660552816Y-383660051D01*
X660574789Y-383644086D01*
X660724786Y-383535109D01*
X660724788Y-383535106D01*
X660724792Y-383535104D01*
X660875104Y-383384792D01*
X660994683Y-383220204D01*
X661050011Y-383177540D01*
X661119624Y-383171561D01*
X661181420Y-383204166D01*
G37*
%TD.AperFunction*%
%TA.AperFunction,NonConductor*%
G36*
X660688033Y-392690185D02*
G01*
X660708675Y-392706819D01*
X661599616Y-393597760D01*
X661633101Y-393659083D01*
X661629866Y-393723758D01*
X661582754Y-393868755D01*
X661582753Y-393868759D01*
X661549500Y-394078713D01*
X661549500Y-394591286D01*
X661577699Y-394769331D01*
X661582754Y-394801243D01*
X661648443Y-395003412D01*
X661740562Y-395184206D01*
X661753458Y-395252874D01*
X661727182Y-395317615D01*
X661670075Y-395357872D01*
X661630077Y-395364500D01*
X636722061Y-395364500D01*
X636655022Y-395344815D01*
X636609267Y-395292011D01*
X636599323Y-395222853D01*
X636628348Y-395159297D01*
X636683742Y-395122569D01*
X636748412Y-395101557D01*
X636937816Y-395005051D01*
X636959789Y-394989086D01*
X637109786Y-394880109D01*
X637109788Y-394880106D01*
X637109792Y-394880104D01*
X637260104Y-394729792D01*
X637260106Y-394729788D01*
X637260109Y-394729786D01*
X637385048Y-394557820D01*
X637385047Y-394557820D01*
X637385051Y-394557816D01*
X637481557Y-394368412D01*
X637547246Y-394166243D01*
X637580500Y-393956287D01*
X637580500Y-393639006D01*
X637600185Y-393571967D01*
X637616819Y-393551325D01*
X638461325Y-392706819D01*
X638522648Y-392673334D01*
X638549006Y-392670500D01*
X660620994Y-392670500D01*
X660688033Y-392690185D01*
G37*
%TD.AperFunction*%
%TA.AperFunction,NonConductor*%
G36*
X635203170Y-394733774D02*
G01*
X635211398Y-394741294D01*
X635350213Y-394880109D01*
X635522179Y-395005048D01*
X635522181Y-395005049D01*
X635522184Y-395005051D01*
X635711588Y-395101557D01*
X635776257Y-395122569D01*
X635833933Y-395162007D01*
X635861131Y-395226365D01*
X635849216Y-395295212D01*
X635801972Y-395346687D01*
X635737939Y-395364500D01*
X634779006Y-395364500D01*
X634711967Y-395344815D01*
X634691325Y-395328181D01*
X634666598Y-395303454D01*
X634633113Y-395242131D01*
X634638097Y-395172439D01*
X634679969Y-395116506D01*
X634689166Y-395110245D01*
X634798656Y-395042712D01*
X634922712Y-394918656D01*
X635014814Y-394769334D01*
X635014814Y-394769331D01*
X635018178Y-394763879D01*
X635070126Y-394717154D01*
X635139088Y-394705931D01*
X635203170Y-394733774D01*
G37*
%TD.AperFunction*%
%TA.AperFunction,NonConductor*%
G36*
X663703481Y-404240185D02*
G01*
X663741979Y-404279401D01*
X663824788Y-404413656D01*
X663824789Y-404413657D01*
X663948844Y-404537712D01*
X664103620Y-404633178D01*
X664150345Y-404685126D01*
X664161568Y-404754088D01*
X664133724Y-404818171D01*
X664126206Y-404826398D01*
X663987392Y-404965212D01*
X663986696Y-404966028D01*
X663986353Y-404966251D01*
X663983952Y-404968653D01*
X663983447Y-404968148D01*
X663928191Y-405004223D01*
X663892403Y-405009500D01*
X636210758Y-405009500D01*
X636143719Y-404989815D01*
X636123077Y-404973181D01*
X636016294Y-404866398D01*
X635982809Y-404805075D01*
X635987793Y-404735383D01*
X636029665Y-404679450D01*
X636038879Y-404673178D01*
X636044331Y-404669814D01*
X636044334Y-404669814D01*
X636193656Y-404577712D01*
X636317712Y-404453656D01*
X636409814Y-404304334D01*
X636409816Y-404304326D01*
X636412864Y-404297791D01*
X636414297Y-404298459D01*
X636449210Y-404248045D01*
X636513728Y-404221227D01*
X636527135Y-404220500D01*
X663636442Y-404220500D01*
X663703481Y-404240185D01*
G37*
%TD.AperFunction*%
%TA.AperFunction,NonConductor*%
G36*
X664038781Y-406780185D02*
G01*
X664059423Y-406796819D01*
X664137709Y-406875105D01*
X664137714Y-406875109D01*
X664302293Y-406994682D01*
X664344959Y-407050011D01*
X664350938Y-407119625D01*
X664318333Y-407181420D01*
X664302293Y-407195318D01*
X664137714Y-407314890D01*
X664137709Y-407314894D01*
X664019423Y-407433181D01*
X663958100Y-407466666D01*
X663931742Y-407469500D01*
X636170758Y-407469500D01*
X636103719Y-407449815D01*
X636083077Y-407433181D01*
X636004792Y-407354896D01*
X635949736Y-407314896D01*
X635840204Y-407235316D01*
X635797540Y-407179989D01*
X635791561Y-407110376D01*
X635824166Y-407048580D01*
X635840199Y-407034686D01*
X636004792Y-406915104D01*
X636123077Y-406796819D01*
X636184400Y-406763334D01*
X636210758Y-406760500D01*
X663971742Y-406760500D01*
X664038781Y-406780185D01*
G37*
%TD.AperFunction*%
%TA.AperFunction,NonConductor*%
G36*
X663998781Y-409240185D02*
G01*
X664019423Y-409256819D01*
X664137709Y-409375105D01*
X664137714Y-409375109D01*
X664302293Y-409494682D01*
X664344959Y-409550011D01*
X664350938Y-409619625D01*
X664318333Y-409681420D01*
X664302293Y-409695318D01*
X664137714Y-409814890D01*
X664137709Y-409814894D01*
X663987398Y-409965205D01*
X663986696Y-409966028D01*
X663986350Y-409966253D01*
X663983951Y-409968653D01*
X663983447Y-409968149D01*
X663928191Y-410004223D01*
X663892403Y-410009500D01*
X636210758Y-410009500D01*
X636143719Y-409989815D01*
X636123077Y-409973181D01*
X636004792Y-409854896D01*
X635949736Y-409814896D01*
X635840204Y-409735316D01*
X635797540Y-409679989D01*
X635791561Y-409610376D01*
X635824166Y-409548580D01*
X635840199Y-409534686D01*
X636004792Y-409415104D01*
X636155104Y-409264792D01*
X636155111Y-409264781D01*
X636155804Y-409263972D01*
X636156149Y-409263746D01*
X636158549Y-409261347D01*
X636159052Y-409261850D01*
X636214309Y-409225777D01*
X636250097Y-409220500D01*
X663931742Y-409220500D01*
X663998781Y-409240185D01*
G37*
%TD.AperFunction*%
M02*
