M48
; DRILL file {KiCad 8.0.8} date 2025-02-25T14:17:34-0800
; FORMAT={-:-/ absolute / inch / decimal}
; #@! TF.CreationDate,2025-02-25T14:17:34-08:00
; #@! TF.GenerationSoftware,Kicad,Pcbnew,8.0.8
; #@! TF.FileFunction,Plated,1,2,PTH
FMAT,2
INCH
; #@! TA.AperFunction,Plated,PTH,ComponentDrill
T1C0.0374
; #@! TA.AperFunction,Plated,PTH,ComponentDrill
T2C0.0394
%
G90
G05
T1
X24.9563Y-11.525
X24.9563Y-11.9171
X24.9563Y-12.3093
X24.9563Y-12.7014
X24.9563Y-13.0936
X24.9563Y-13.4857
X24.9563Y-13.8779
X24.9563Y-14.27
X24.9563Y-14.6622
X24.9563Y-15.0543
X25.0Y-8.975
X25.0Y-9.0734
X25.0Y-9.1719
X25.0Y-9.2703
X25.0Y-9.6031
X25.0Y-9.7016
X25.0Y-9.8
X25.0Y-9.8984
X25.0Y-10.225
X25.0Y-10.3234
X25.0Y-10.4219
X25.0Y-10.5203
X25.0Y-10.8797
X25.0Y-10.9781
X25.0Y-11.0766
X25.0Y-11.175
X25.0Y-15.8813
X25.0Y-15.9797
X25.0Y-16.0781
X25.0Y-16.1766
X25.0547Y-11.525
X25.0547Y-11.9171
X25.0547Y-12.3093
X25.0547Y-12.7014
X25.0547Y-13.0936
X25.0547Y-13.4857
X25.0547Y-13.8779
X25.0547Y-14.27
X25.0547Y-14.6622
X25.0547Y-15.0543
X25.1531Y-11.525
X25.1531Y-11.9171
X25.1531Y-12.3093
X25.1531Y-12.7014
X25.1531Y-13.0936
X25.1531Y-13.4857
X25.1531Y-13.8779
X25.1531Y-14.27
X25.1531Y-14.6622
X25.1531Y-15.0543
X25.9781Y-11.525
X25.9781Y-11.9217
X25.9781Y-12.3185
X25.9781Y-12.7152
X25.9781Y-13.112
X25.9781Y-13.5087
X25.9781Y-13.9054
X25.9781Y-14.3022
X25.9781Y-15.0543
X25.9797Y-14.675
X26.0766Y-11.525
X26.0766Y-11.9217
X26.0766Y-12.3185
X26.0766Y-12.7152
X26.0766Y-13.112
X26.0766Y-13.5087
X26.0766Y-13.9054
X26.0766Y-14.3022
X26.0766Y-15.0543
X26.0781Y-14.675
X26.175Y-8.975
X26.175Y-9.0734
X26.175Y-9.1719
X26.175Y-9.2703
X26.175Y-9.6031
X26.175Y-9.7016
X26.175Y-9.8
X26.175Y-9.8984
X26.175Y-10.225
X26.175Y-10.3234
X26.175Y-10.4219
X26.175Y-10.5203
X26.175Y-10.8797
X26.175Y-10.9781
X26.175Y-11.0766
X26.175Y-11.175
X26.175Y-11.525
X26.175Y-11.9217
X26.175Y-12.3185
X26.175Y-12.7152
X26.175Y-13.112
X26.175Y-13.5087
X26.175Y-13.9054
X26.175Y-14.3022
X26.175Y-15.0543
X26.1766Y-14.675
X26.1867Y-15.8797
X26.1867Y-15.9781
X26.1867Y-16.0766
X26.1867Y-16.175
T2
X24.95Y-15.5
X25.0484Y-15.5
X26.0984Y-15.525
X26.1969Y-15.525
M30
